{
.appVersion = "1325";
copyright = "Ariel Martín Pérez";
customParameters = (
{
name = trademark;
value = "Ariel Martín Pérez - www.arielgraphisme.com";
},
{
name = openTypeNameLicenseURL;
value = "http://scripts.sil.org/OFL";
},
{
name = license;
value = "SIL Open Font License v1.1";
}
);
date = "2020-05-03 20:57:56 +0000";
designer = "Ariel Martín Pérez";
designerURL = www.arielgraphisme.com;
familyName = Brassia;
featurePrefixes = (
{
automatic = 1;
code = "languagesystem DFLT dflt;\012\012languagesystem latn dflt;\012languagesystem latn CAT;\012";
name = Languagesystems;
}
);
features = (
{
automatic = 1;
code = "feature locl;\012";
name = aalt;
},
{
automatic = 1;
code = "lookup locl_latn_0 {\012	script latn;\012	language CAT;\012	sub  l' periodcentered' l by ldot;\012	sub  L' periodcentered' L by Ldot;\012} locl_latn_0;\012";
name = locl;
}
);
fontMaster = (
{
ascender = 800;
capHeight = 700;
descender = -200;
id = "A956090A-BD7D-40E0-8141-33D8BAD0406F";
xHeight = 500;
}
);
glyphs = (
{
glyphname = A;
lastChange = "2020-01-05 22:06:01 +0000";
layers = (
{
anchors = (
{
name = bottom;
position = "{362, 0}";
},
{
name = ogonek;
position = "{659, 10}";
},
{
name = top;
position = "{362, 700}";
}
);
components = (
{
name = _part.pupil;
transform = "{1, 0, 0, 1, -10, 10}";
}
);
layerId = "A956090A-BD7D-40E0-8141-33D8BAD0406F";
paths = (
{
closed = 1;
nodes = (
"308 700 LINE",
"308 555 OFFCURVE",
"35 373 OFFCURVE",
"35 135 CURVE SMOOTH",
"35 90 OFFCURVE",
"35 53 OFFCURVE",
"45 0 CURVE",
"201 0 LINE",
"199 13 OFFCURVE",
"196 26 OFFCURVE",
"196 38 CURVE SMOOTH",
"196 57 OFFCURVE",
"205 68 OFFCURVE",
"222 70 CURVE SMOOTH",
"249 73 OFFCURVE",
"311 76 OFFCURVE",
"362 76 CURVE",
"362 178 LINE",
"302 178 OFFCURVE",
"208 182 OFFCURVE",
"170 207 CURVE",
"188 159 LINE",
"188 316 OFFCURVE",
"360 470 OFFCURVE",
"360 560 CURVE",
"374 560 LINE",
"374 700 LINE"
);
},
{
closed = 1;
nodes = (
"350 560 LINE",
"364 560 LINE",
"364 470 OFFCURVE",
"536 316 OFFCURVE",
"536 159 CURVE",
"554 207 LINE",
"516 182 OFFCURVE",
"422 178 OFFCURVE",
"362 178 CURVE",
"362 76 LINE",
"413 76 OFFCURVE",
"475 73 OFFCURVE",
"502 70 CURVE SMOOTH",
"519 68 OFFCURVE",
"528 57 OFFCURVE",
"528 38 CURVE SMOOTH",
"528 26 OFFCURVE",
"525 13 OFFCURVE",
"523 0 CURVE",
"679 0 LINE",
"689 53 OFFCURVE",
"689 90 OFFCURVE",
"689 135 CURVE SMOOTH",
"689 373 OFFCURVE",
"416 555 OFFCURVE",
"416 700 CURVE",
"350 700 LINE"
);
}
);
width = 724;
},
{
associatedMasterId = "A956090A-BD7D-40E0-8141-33D8BAD0406F";
background = {
backgroundImage = {
crop = "{{0, 0}, {206.4, 199}}";
imagePath = "../../Atelier typographique liège/000DOCATELIERFIG/01-CROQUIS/1/A.jpg";
locked = "1";
transform = "{3.7975, 0, 0, 3.7975, -98, -52}";
};
};
layerId = "417FE42B-B60B-4BE8-B1F3-9AFB3F90604B";
name = "Feb 20 19, 11:42";
paths = (
{
closed = 1;
nodes = (
"201 -1 LINE",
"195 48 OFFCURVE",
"188 95 OFFCURVE",
"188 158 CURVE SMOOTH",
"188 349 OFFCURVE",
"415 500 OFFCURVE",
"415 703 CURVE",
"308 702 LINE",
"308 558 OFFCURVE",
"35 373 OFFCURVE",
"35 135 CURVE SMOOTH",
"35 90 OFFCURVE",
"35 52 OFFCURVE",
"45 -1 CURVE"
);
},
{
closed = 1;
nodes = (
"688 52 OFFCURVE",
"688 90 OFFCURVE",
"688 135 CURVE SMOOTH",
"688 373 OFFCURVE",
"415 558 OFFCURVE",
"415 702 CURVE",
"308 703 LINE",
"308 500 OFFCURVE",
"535 349 OFFCURVE",
"535 158 CURVE SMOOTH",
"535 95 OFFCURVE",
"528 48 OFFCURVE",
"522 -1 CURVE",
"678 -1 LINE"
);
},
{
closed = 1;
nodes = (
"115 121 LINE",
"608 121 LINE",
"608 199 LINE",
"520 174 OFFCURVE",
"451 162 OFFCURVE",
"362 162 CURVE SMOOTH",
"286 162 OFFCURVE",
"190 172 OFFCURVE",
"115 191 CURVE"
);
},
{
closed = 1;
nodes = (
"188 73 OFFCURVE",
"282 81 OFFCURVE",
"362 81 CURVE SMOOTH",
"446 81 OFFCURVE",
"517 71 OFFCURVE",
"608 51 CURVE",
"608 129 LINE",
"115 129 LINE",
"115 59 LINE"
);
},
{
closed = 1;
nodes = (
"388 241 OFFCURVE",
"410 262 OFFCURVE",
"410 289 CURVE SMOOTH",
"410 315 OFFCURVE",
"388 336 OFFCURVE",
"362 336 CURVE SMOOTH",
"336 336 OFFCURVE",
"315 315 OFFCURVE",
"315 289 CURVE SMOOTH",
"315 262 OFFCURVE",
"336 241 OFFCURVE",
"362 241 CURVE SMOOTH"
);
}
);
width = 723;
},
{
anchors = (
{
name = bottom;
position = "{372, 0}";
},
{
name = ogonek;
position = "{669, 10}";
},
{
name = top;
position = "{372, 700}";
}
);
associatedMasterId = "A956090A-BD7D-40E0-8141-33D8BAD0406F";
background = {
backgroundImage = {
crop = "{{0, 0}, {206.4, 199}}";
imagePath = "../../Atelier typographique liège/000DOCATELIERFIG/01-CROQUIS/1/A.jpg";
transform = "{3.7975, 0, 0, 3.7975, -98, -52}";
};
};
layerId = "8704F5B1-8D25-42E2-AC36-41398A9DB9F4";
name = "Feb 21 19, 11:04";
paths = (
{
closed = 1;
nodes = (
"398 241 OFFCURVE",
"420 262 OFFCURVE",
"420 289 CURVE SMOOTH",
"420 315 OFFCURVE",
"398 336 OFFCURVE",
"372 336 CURVE SMOOTH",
"346 336 OFFCURVE",
"325 315 OFFCURVE",
"325 289 CURVE SMOOTH",
"325 262 OFFCURVE",
"346 241 OFFCURVE",
"372 241 CURVE SMOOTH"
);
},
{
closed = 1;
nodes = (
"198 73 OFFCURVE",
"292 81 OFFCURVE",
"372 81 CURVE SMOOTH",
"456 81 OFFCURVE",
"527 71 OFFCURVE",
"618 51 CURVE",
"618 199 LINE",
"530 174 OFFCURVE",
"461 162 OFFCURVE",
"372 162 CURVE SMOOTH",
"296 162 OFFCURVE",
"200 172 OFFCURVE",
"125 191 CURVE",
"125 59 LINE"
);
},
{
closed = 1;
nodes = (
"45 90 OFFCURVE",
"45 52 OFFCURVE",
"55 -1 CURVE",
"211 -1 LINE",
"205 48 OFFCURVE",
"198 95 OFFCURVE",
"198 158 CURVE SMOOTH",
"198 299 OFFCURVE",
"370 470 OFFCURVE",
"370 560 CURVE",
"374 560 LINE",
"374 470 OFFCURVE",
"545 299 OFFCURVE",
"545 158 CURVE SMOOTH",
"545 95 OFFCURVE",
"538 48 OFFCURVE",
"532 -1 CURVE",
"688 -1 LINE",
"698 52 OFFCURVE",
"698 90 OFFCURVE",
"698 135 CURVE SMOOTH",
"698 373 OFFCURVE",
"425 555 OFFCURVE",
"425 700 CURVE",
"318 700 LINE",
"318 555 OFFCURVE",
"45 373 OFFCURVE",
"45 135 CURVE SMOOTH"
);
}
);
width = 743;
},
{
anchors = (
{
name = bottom;
position = "{362, 0}";
},
{
name = ogonek;
position = "{659, 10}";
},
{
name = top;
position = "{362, 700}";
}
);
associatedMasterId = "A956090A-BD7D-40E0-8141-33D8BAD0406F";
components = (
{
name = _part.pupil;
transform = "{1, 0, 0, 1, -10, 0}";
}
);
layerId = "1F6E2BE5-0B8F-4D27-90FC-9F079C04577A";
name = "Jan 2 20, 13:57";
paths = (
{
closed = 1;
nodes = (
"35 90 OFFCURVE",
"35 53 OFFCURVE",
"45 0 CURVE",
"201 0 LINE",
"198 22 OFFCURVE",
"195 44 OFFCURVE",
"193 67 CURVE",
"232 73 OFFCURVE",
"297 76 OFFCURVE",
"362 76 CURVE SMOOTH",
"426 76 OFFCURVE",
"491 73 OFFCURVE",
"530 67 CURVE",
"528 44 OFFCURVE",
"525 22 OFFCURVE",
"522 0 CURVE",
"678 0 LINE",
"688 53 OFFCURVE",
"688 90 OFFCURVE",
"688 135 CURVE SMOOTH",
"688 373 OFFCURVE",
"415 555 OFFCURVE",
"415 700 CURVE",
"308 700 LINE",
"308 555 OFFCURVE",
"35 373 OFFCURVE",
"35 135 CURVE SMOOTH"
);
},
{
closed = 1;
nodes = (
"211 337 OFFCURVE",
"360 476 OFFCURVE",
"360 560 CURVE",
"364 560 LINE",
"364 476 OFFCURVE",
"512 336 OFFCURVE",
"533 190 CURVE",
"491 175 OFFCURVE",
"421 172 OFFCURVE",
"362 172 CURVE SMOOTH",
"311 172 OFFCURVE",
"235 175 OFFCURVE",
"190 191 CURVE"
);
}
);
width = 723;
}
);
leftKerningGroup = A;
rightKerningGroup = A;
unicode = 0041;
},
{
glyphname = AE;
lastChange = "2020-01-05 22:06:15 +0000";
layers = (
{
layerId = "A956090A-BD7D-40E0-8141-33D8BAD0406F";
paths = (
{
closed = 1;
nodes = (
"812 0 LINE",
"763 153 LINE",
"628 114 OFFCURVE",
"520 102 OFFCURVE",
"363 101 CURVE",
"363 0 LINE"
);
},
{
closed = 1;
nodes = (
"463 442 OFFCURVE",
"484 449 OFFCURVE",
"502 449 CURVE SMOOTH",
"576 449 OFFCURVE",
"614 334 OFFCURVE",
"757 334 CURVE",
"757 483 LINE",
"742 480 OFFCURVE",
"727 478 OFFCURVE",
"712 478 CURVE SMOOTH",
"620 478 OFFCURVE",
"580 575 OFFCURVE",
"498 575 CURVE SMOOTH",
"488 575 OFFCURVE",
"478 572 OFFCURVE",
"468 567 CURVE",
"438 424 LINE"
);
},
{
closed = 1;
nodes = (
"526 599 OFFCURVE",
"599 609 OFFCURVE",
"650 609 CURVE SMOOTH",
"703 609 OFFCURVE",
"719 598 OFFCURVE",
"756 582 CURVE",
"756 700 LINE",
"418 700 LINE",
"468 571 LINE"
);
},
{
closed = 1;
nodes = (
"504 35 OFFCURVE",
"492 73 OFFCURVE",
"484 112 CURVE SMOOTH",
"471 174 OFFCURVE",
"465 239 OFFCURVE",
"465 304 CURVE SMOOTH",
"465 381 OFFCURVE",
"470 458 OFFCURVE",
"480 529 CURVE",
"478 549 LINE",
"467 598 LINE",
"495 611 LINE",
"502 643 OFFCURVE",
"511 673 OFFCURVE",
"520 700 CURVE",
"412 700 LINE",
"399 661 OFFCURVE",
"385 622 OFFCURVE",
"375 583 CURVE SMOOTH",
"341 463 OFFCURVE",
"322 343 OFFCURVE",
"322 216 CURVE SMOOTH",
"322 142 OFFCURVE",
"330 69 OFFCURVE",
"347 0 CURVE",
"519 0 LINE"
);
},
{
closed = 1;
nodes = (
"308 700 LINE",
"308 555 OFFCURVE",
"35 373 OFFCURVE",
"35 135 CURVE SMOOTH",
"35 90 OFFCURVE",
"35 53 OFFCURVE",
"45 0 CURVE",
"201 0 LINE",
"199 13 OFFCURVE",
"196 26 OFFCURVE",
"196 38 CURVE SMOOTH",
"196 57 OFFCURVE",
"205 68 OFFCURVE",
"222 70 CURVE SMOOTH",
"249 73 OFFCURVE",
"311 76 OFFCURVE",
"362 76 CURVE",
"362 178 LINE",
"302 178 OFFCURVE",
"208 182 OFFCURVE",
"170 207 CURVE",
"188 159 LINE",
"188 316 OFFCURVE",
"333 470 OFFCURVE",
"363 560 CURVE",
"427 560 LINE",
"424 700 LINE"
);
}
);
width = 837;
},
{
associatedMasterId = "A956090A-BD7D-40E0-8141-33D8BAD0406F";
layerId = "4C5BB841-A9F4-422A-AB99-904D3390ADFD";
name = "Jan 1 20, 21:20";
paths = (
{
closed = 1;
nodes = (
"45 90 OFFCURVE",
"45 52 OFFCURVE",
"55 -1 CURVE",
"211 -1 LINE",
"208 22 OFFCURVE",
"205 44 OFFCURVE",
"203 67 CURVE",
"242 73 OFFCURVE",
"307 76 OFFCURVE",
"372 76 CURVE SMOOTH",
"384 76 OFFCURVE",
"395 76 OFFCURVE",
"407 76 CURVE",
"407 172 LINE",
"395 172 OFFCURVE",
"383 172 OFFCURVE",
"372 172 CURVE SMOOTH",
"321 172 OFFCURVE",
"246 174 OFFCURVE",
"201 190 CURVE",
"222 336 OFFCURVE",
"351 499 OFFCURVE",
"381 583 CURVE",
"385 583 LINE",
"447 470 LINE",
"447 700 LINE",
"318 700 LINE",
"318 555 OFFCURVE",
"45 373 OFFCURVE",
"45 135 CURVE SMOOTH"
);
},
{
closed = 1;
nodes = (
"822 0 LINE",
"773 153 LINE",
"638 114 OFFCURVE",
"530 102 OFFCURVE",
"373 101 CURVE",
"373 0 LINE"
);
},
{
closed = 1;
nodes = (
"473 442 OFFCURVE",
"494 449 OFFCURVE",
"512 449 CURVE SMOOTH",
"586 449 OFFCURVE",
"624 334 OFFCURVE",
"767 334 CURVE",
"767 483 LINE",
"752 480 OFFCURVE",
"737 478 OFFCURVE",
"722 478 CURVE SMOOTH",
"630 478 OFFCURVE",
"590 575 OFFCURVE",
"508 575 CURVE SMOOTH",
"498 575 OFFCURVE",
"488 572 OFFCURVE",
"478 567 CURVE",
"448 424 LINE"
);
},
{
closed = 1;
nodes = (
"536 599 OFFCURVE",
"609 609 OFFCURVE",
"660 609 CURVE SMOOTH",
"713 609 OFFCURVE",
"729 598 OFFCURVE",
"766 582 CURVE",
"766 700 LINE",
"428 700 LINE",
"478 571 LINE"
);
},
{
closed = 1;
nodes = (
"514 35 OFFCURVE",
"502 73 OFFCURVE",
"494 112 CURVE SMOOTH",
"481 174 OFFCURVE",
"475 239 OFFCURVE",
"475 304 CURVE SMOOTH",
"475 451 OFFCURVE",
"494 597 OFFCURVE",
"530 700 CURVE",
"422 700 LINE",
"409 661 OFFCURVE",
"395 622 OFFCURVE",
"385 583 CURVE SMOOTH",
"351 463 OFFCURVE",
"332 343 OFFCURVE",
"332 216 CURVE SMOOTH",
"332 142 OFFCURVE",
"340 69 OFFCURVE",
"357 0 CURVE",
"529 0 LINE"
);
}
);
width = 847;
}
);
leftKerningGroup = A;
rightKerningGroup = E;
unicode = 00C6;
},
{
glyphname = B;
lastChange = "2020-01-06 09:14:54 +0000";
layers = (
{
associatedMasterId = "A956090A-BD7D-40E0-8141-33D8BAD0406F";
background = {
backgroundImage = {
crop = "{{0, 0}, {170.16, 211.44}}";
imagePath = "../../Atelier typographique liège/000DOCATELIERFIG/01-CROQUIS/2/B-minuscule.jpg";
locked = "1";
transform = "{3.7975, 0, 0, 3.7975, -15, -49}";
};
};
layerId = "A929DBEB-AED4-4670-9E6B-367AB769B779";
name = "Feb 15 19, 20:41";
paths = (
{
closed = 1;
nodes = (
"207 585 OFFCURVE",
"166 484 OFFCURVE",
"166 324 CURVE SMOOTH",
"166 132 OFFCURVE",
"186 81 OFFCURVE",
"216 2 CURVE",
"65 3 LINE",
"47 91 OFFCURVE",
"40 208 OFFCURVE",
"40 324 CURVE SMOOTH",
"40 488 OFFCURVE",
"94 628 OFFCURVE",
"121 700 CURVE",
"228 701 LINE"
);
},
{
closed = 1;
nodes = (
"372 700 OFFCURVE",
"510 680 OFFCURVE",
"510 571 CURVE SMOOTH",
"510 462 OFFCURVE",
"402 408 OFFCURVE",
"337 381 CURVE",
"237 429 LINE",
"297 447 OFFCURVE",
"387 487 OFFCURVE",
"387 543 CURVE",
"389 571 OFFCURVE",
"352 598 OFFCURVE",
"287 598 CURVE SMOOTH",
"230 598 OFFCURVE",
"169 580 OFFCURVE",
"123 559 CURVE",
"148 700 LINE",
"317 700 LINE"
);
},
{
closed = 1;
nodes = (
"112 540 OFFCURVE",
"143 543 OFFCURVE",
"174 543 CURVE",
"174 381 OFFCURVE",
"611 462 OFFCURVE",
"611 200 CURVE SMOOTH",
"611 42 OFFCURVE",
"455 -29 OFFCURVE",
"355 -29 CURVE SMOOTH",
"255 -29 OFFCURVE",
"79 46 OFFCURVE",
"69 59 CURVE",
"69 208 LINE",
"125 148 OFFCURVE",
"220 105 OFFCURVE",
"318 105 CURVE SMOOTH",
"419 105 OFFCURVE",
"465 145 OFFCURVE",
"465 200 CURVE SMOOTH",
"465 360 OFFCURVE",
"81 312 OFFCURVE",
"81 538 CURVE"
);
}
);
width = 641;
},
{
associatedMasterId = "A956090A-BD7D-40E0-8141-33D8BAD0406F";
background = {
backgroundImage = {
crop = "{{0, 0}, {170.16, 211.44}}";
imagePath = "../../Atelier typographique liège/000DOCATELIERFIG/01-CROQUIS/2/B-minuscule.jpg";
locked = "1";
transform = "{3.7975, 0, 0, 3.7975, -15, -49}";
};
};
layerId = "0F19FB0B-A774-4061-8A5E-65C761ADAFF2";
name = "Feb 16 19, 19:20";
paths = (
{
closed = 1;
nodes = (
"148 700 LINE",
"123 559 LINE",
"169 580 OFFCURVE",
"220 608 OFFCURVE",
"287 608 CURVE SMOOTH",
"352 608 OFFCURVE",
"389 571 OFFCURVE",
"387 543 CURVE",
"387 487 OFFCURVE",
"297 447 OFFCURVE",
"237 429 CURVE",
"337 381 LINE",
"402 408 OFFCURVE",
"510 462 OFFCURVE",
"510 571 CURVE SMOOTH",
"510 680 OFFCURVE",
"372 700 OFFCURVE",
"317 700 CURVE"
);
},
{
closed = 1;
nodes = (
"81 312 OFFCURVE",
"465 360 OFFCURVE",
"465 200 CURVE SMOOTH",
"465 145 OFFCURVE",
"419 105 OFFCURVE",
"318 105 CURVE SMOOTH",
"220 105 OFFCURVE",
"125 148 OFFCURVE",
"69 208 CURVE",
"69 59 LINE",
"79 46 OFFCURVE",
"255 -29 OFFCURVE",
"355 -29 CURVE SMOOTH",
"455 -29 OFFCURVE",
"611 42 OFFCURVE",
"611 200 CURVE SMOOTH",
"611 462 OFFCURVE",
"174 381 OFFCURVE",
"174 543 CURVE",
"143 543 OFFCURVE",
"112 540 OFFCURVE",
"81 538 CURVE"
);
},
{
closed = 1;
nodes = (
"193 91 OFFCURVE",
"178 198 OFFCURVE",
"178 304 CURVE SMOOTH",
"178 451 OFFCURVE",
"197 597 OFFCURVE",
"233 700 CURVE",
"174 700 OFFCURVE",
"158 700 OFFCURVE",
"130 700 CURVE",
"75 540 OFFCURVE",
"40 384 OFFCURVE",
"40 216 CURVE SMOOTH",
"40 142 OFFCURVE",
"48 69 OFFCURVE",
"65 0 CURVE",
"232 0 LINE"
);
}
);
width = 641;
},
{
associatedMasterId = "A956090A-BD7D-40E0-8141-33D8BAD0406F";
background = {
backgroundImage = {
crop = "{{0, 0}, {170.16, 211.44}}";
imagePath = "../../Atelier typographique liège/000DOCATELIERFIG/01-CROQUIS/2/B-minuscule.jpg";
locked = "1";
transform = "{3.7975, 0, 0, 3.7975, -15, -49}";
};
};
layerId = "482568FB-F5D7-48FD-B657-91664E866198";
name = "Feb 17 19, 10:33";
paths = (
{
closed = 1;
nodes = (
"232 710 OFFCURVE",
"193 700 OFFCURVE",
"130 700 CURVE",
"130 559 LINE",
"172 580 OFFCURVE",
"220 608 OFFCURVE",
"287 608 CURVE SMOOTH",
"352 608 OFFCURVE",
"382 570 OFFCURVE",
"382 543 CURVE SMOOTH",
"382 487 OFFCURVE",
"324 430 OFFCURVE",
"239 459 CURVE",
"327 391 LINE",
"404 391 OFFCURVE",
"510 462 OFFCURVE",
"510 571 CURVE SMOOTH",
"510 680 OFFCURVE",
"372 710 OFFCURVE",
"317 710 CURVE SMOOTH"
);
},
{
closed = 1;
nodes = (
"82 312 OFFCURVE",
"465 360 OFFCURVE",
"465 200 CURVE SMOOTH",
"465 145 OFFCURVE",
"419 105 OFFCURVE",
"318 105 CURVE SMOOTH",
"220 105 OFFCURVE",
"125 148 OFFCURVE",
"69 208 CURVE",
"65 0 LINE",
"183 0 OFFCURVE",
"255 -29 OFFCURVE",
"355 -29 CURVE SMOOTH",
"455 -29 OFFCURVE",
"611 42 OFFCURVE",
"611 200 CURVE SMOOTH",
"611 462 OFFCURVE",
"179 381 OFFCURVE",
"179 541 CURVE",
"82 541 LINE"
);
},
{
closed = 1;
nodes = (
"193 91 OFFCURVE",
"178 198 OFFCURVE",
"178 304 CURVE SMOOTH",
"178 451 OFFCURVE",
"197 597 OFFCURVE",
"233 700 CURVE",
"174 700 OFFCURVE",
"158 700 OFFCURVE",
"130 700 CURVE",
"75 540 OFFCURVE",
"40 384 OFFCURVE",
"40 216 CURVE SMOOTH",
"40 142 OFFCURVE",
"48 69 OFFCURVE",
"65 0 CURVE",
"232 0 LINE"
);
}
);
width = 636;
},
{
associatedMasterId = "A956090A-BD7D-40E0-8141-33D8BAD0406F";
background = {
backgroundImage = {
crop = "{{0, 0}, {170.16, 211.44}}";
imagePath = "../../Atelier typographique liège/000DOCATELIERFIG/01-CROQUIS/2/B-minuscule.jpg";
locked = "1";
transform = "{3.7975, 0, 0, 3.7975, -15, -49}";
};
};
layerId = "5E55764F-29E3-4873-A096-48C0CAC47035";
name = "Feb 17 19, 10:33";
paths = (
{
closed = 1;
nodes = (
"232 710 OFFCURVE",
"193 700 OFFCURVE",
"130 700 CURVE",
"130 559 LINE",
"172 580 OFFCURVE",
"220 608 OFFCURVE",
"287 608 CURVE SMOOTH",
"352 608 OFFCURVE",
"382 570 OFFCURVE",
"382 543 CURVE SMOOTH",
"382 487 OFFCURVE",
"324 430 OFFCURVE",
"239 459 CURVE",
"327 391 LINE",
"404 391 OFFCURVE",
"510 462 OFFCURVE",
"510 571 CURVE SMOOTH",
"510 680 OFFCURVE",
"372 710 OFFCURVE",
"317 710 CURVE SMOOTH"
);
},
{
closed = 1;
nodes = (
"82 312 OFFCURVE",
"465 360 OFFCURVE",
"465 200 CURVE SMOOTH",
"465 145 OFFCURVE",
"419 105 OFFCURVE",
"318 105 CURVE SMOOTH",
"220 105 OFFCURVE",
"125 148 OFFCURVE",
"69 208 CURVE",
"65 0 LINE",
"183 0 OFFCURVE",
"255 -29 OFFCURVE",
"355 -29 CURVE SMOOTH",
"455 -29 OFFCURVE",
"611 42 OFFCURVE",
"611 200 CURVE SMOOTH",
"611 462 OFFCURVE",
"179 381 OFFCURVE",
"179 541 CURVE",
"82 541 LINE"
);
},
{
closed = 1;
nodes = (
"193 91 OFFCURVE",
"178 198 OFFCURVE",
"178 304 CURVE SMOOTH",
"178 451 OFFCURVE",
"197 597 OFFCURVE",
"233 700 CURVE",
"174 700 OFFCURVE",
"158 700 OFFCURVE",
"130 700 CURVE",
"75 540 OFFCURVE",
"40 384 OFFCURVE",
"40 216 CURVE SMOOTH",
"40 142 OFFCURVE",
"48 69 OFFCURVE",
"65 0 CURVE",
"232 0 LINE"
);
}
);
width = 636;
},
{
anchors = (
{
name = bottom;
position = "{326, 0}";
},
{
name = top;
position = "{326, 700}";
}
);
background = {
backgroundImage = {
crop = "{{0, 0}, {170.16, 211.44}}";
imagePath = "../../Atelier typographique liège/000DOCATELIERFIG/01-CROQUIS/2/B-minuscule.jpg";
locked = "1";
transform = "{3.7975, 0, 0, 3.7975, -15, -49}";
};
};
layerId = "A956090A-BD7D-40E0-8141-33D8BAD0406F";
paths = (
{
closed = 1;
nodes = (
"203 91 OFFCURVE",
"188 198 OFFCURVE",
"188 304 CURVE SMOOTH",
"188 451 OFFCURVE",
"207 597 OFFCURVE",
"243 700 CURVE",
"135 700 LINE",
"80 540 OFFCURVE",
"45 384 OFFCURVE",
"45 216 CURVE SMOOTH",
"45 142 OFFCURVE",
"53 69 OFFCURVE",
"70 0 CURVE",
"242 0 LINE"
);
},
{
closed = 1;
nodes = (
"188 0 OFFCURVE",
"310 1 OFFCURVE",
"410 1 CURVE SMOOTH",
"510 1 OFFCURVE",
"612 51 OFFCURVE",
"612 180 CURVE SMOOTH",
"612 317 OFFCURVE",
"510 354 OFFCURVE",
"406 390 CURVE SMOOTH",
"351 408 OFFCURVE",
"298 434 OFFCURVE",
"260 458 CURVE SMOOTH",
"228 478 OFFCURVE",
"207 504 OFFCURVE",
"207 542 CURVE",
"89 542 LINE",
"89 475 OFFCURVE",
"107 387 OFFCURVE",
"139 356 CURVE",
"193 370 LINE",
"240 295 OFFCURVE",
"470 289 OFFCURVE",
"470 200 CURVE SMOOTH",
"470 145 OFFCURVE",
"424 115 OFFCURVE",
"323 115 CURVE SMOOTH",
"225 115 OFFCURVE",
"130 158 OFFCURVE",
"74 218 CURVE",
"70 0 LINE"
);
},
{
closed = 1;
nodes = (
"486 394 OFFCURVE",
"549 465 OFFCURVE",
"549 553 CURVE SMOOTH",
"549 635 OFFCURVE",
"440 700 OFFCURVE",
"243 700 CURVE",
"135 700 LINE",
"135 542 LINE",
"207 542 LINE",
"207 567 OFFCURVE",
"230 612 OFFCURVE",
"253 629 CURVE",
"179 581 LINE",
"210 595 OFFCURVE",
"244 604 OFFCURVE",
"307 604 CURVE SMOOTH",
"381 604 OFFCURVE",
"417 572 OFFCURVE",
"417 524 CURVE SMOOTH",
"417 484 OFFCURVE",
"384 441 OFFCURVE",
"327 441 CURVE SMOOTH",
"307 441 OFFCURVE",
"285 446 OFFCURVE",
"260 458 CURVE",
"260 371 LINE",
"404 365 LINE",
"404 394 LINE"
);
}
);
width = 637;
},
{
anchors = (
{
name = bottom;
position = "{326, 0}";
},
{
name = top;
position = "{326, 700}";
}
);
associatedMasterId = "A956090A-BD7D-40E0-8141-33D8BAD0406F";
background = {
backgroundImage = {
crop = "{{0, 0}, {170.16, 211.44}}";
imagePath = "../../Atelier typographique liège/000DOCATELIERFIG/01-CROQUIS/2/B-minuscule.jpg";
locked = "1";
transform = "{3.7975, 0, 0, 3.7975, -15, -49}";
};
};
layerId = "43042A89-EBB9-48B4-80CB-47DD081F6B46";
name = "Feb 22 19, 21:07";
paths = (
{
closed = 1;
nodes = (
"87 458 OFFCURVE",
"138 411 OFFCURVE",
"202 378 CURVE SMOOTH",
"315 319 OFFCURVE",
"470 302 OFFCURVE",
"470 200 CURVE SMOOTH",
"470 145 OFFCURVE",
"424 115 OFFCURVE",
"323 115 CURVE SMOOTH",
"225 115 OFFCURVE",
"130 158 OFFCURVE",
"74 218 CURVE",
"70 0 LINE",
"188 0 OFFCURVE",
"310 1 OFFCURVE",
"410 1 CURVE SMOOTH",
"510 1 OFFCURVE",
"616 72 OFFCURVE",
"616 200 CURVE SMOOTH",
"616 462 OFFCURVE",
"184 390 OFFCURVE",
"205 541 CURVE",
"87 541 LINE"
);
},
{
closed = 1;
nodes = (
"203 91 OFFCURVE",
"188 198 OFFCURVE",
"188 304 CURVE SMOOTH",
"188 451 OFFCURVE",
"207 597 OFFCURVE",
"243 700 CURVE",
"135 700 LINE",
"70 540 OFFCURVE",
"45 384 OFFCURVE",
"45 216 CURVE SMOOTH",
"45 142 OFFCURVE",
"53 69 OFFCURVE",
"70 0 CURVE",
"242 0 LINE"
);
},
{
closed = 1;
nodes = (
"153 700 LINE",
"128 559 LINE",
"174 580 OFFCURVE",
"225 608 OFFCURVE",
"292 608 CURVE SMOOTH",
"357 608 OFFCURVE",
"394 571 OFFCURVE",
"392 543 CURVE",
"392 487 OFFCURVE",
"302 447 OFFCURVE",
"242 429 CURVE",
"398 372 LINE",
"398 408 LINE",
"451 440 OFFCURVE",
"515 498 OFFCURVE",
"515 571 CURVE SMOOTH",
"515 680 OFFCURVE",
"357 700 OFFCURVE",
"292 700 CURVE"
);
}
);
width = 651;
},
{
anchors = (
{
name = bottom;
position = "{326, 0}";
},
{
name = top;
position = "{326, 700}";
}
);
associatedMasterId = "A956090A-BD7D-40E0-8141-33D8BAD0406F";
background = {
backgroundImage = {
crop = "{{0, 0}, {170.16, 211.44}}";
imagePath = "../../Atelier typographique liège/000DOCATELIERFIG/01-CROQUIS/2/B-minuscule.jpg";
locked = "1";
transform = "{3.7975, 0, 0, 3.7975, -15, -49}";
};
};
layerId = "7164BACE-6B9C-49F9-9559-EEA1E341C16E";
name = "Jan 2 20, 12:27";
paths = (
{
closed = 1;
nodes = (
"203 91 OFFCURVE",
"188 198 OFFCURVE",
"188 304 CURVE SMOOTH",
"188 451 OFFCURVE",
"207 597 OFFCURVE",
"243 700 CURVE",
"135 700 LINE",
"80 540 OFFCURVE",
"45 384 OFFCURVE",
"45 216 CURVE SMOOTH",
"45 142 OFFCURVE",
"53 69 OFFCURVE",
"70 0 CURVE",
"242 0 LINE"
);
},
{
closed = 1;
nodes = (
"188 0 OFFCURVE",
"310 1 OFFCURVE",
"410 1 CURVE SMOOTH",
"510 1 OFFCURVE",
"616 51 OFFCURVE",
"616 180 CURVE SMOOTH",
"616 306 OFFCURVE",
"517 364 OFFCURVE",
"389 401 CURVE SMOOTH",
"307 425 OFFCURVE",
"207 466 OFFCURVE",
"207 542 CURVE",
"89 542 LINE",
"89 475 OFFCURVE",
"108 433 OFFCURVE",
"140 402 CURVE",
"194 402 LINE",
"194 343 OFFCURVE",
"271 310 OFFCURVE",
"323 295 CURVE SMOOTH",
"411 270 OFFCURVE",
"470 243 OFFCURVE",
"470 200 CURVE SMOOTH",
"470 145 OFFCURVE",
"424 115 OFFCURVE",
"323 115 CURVE SMOOTH",
"225 115 OFFCURVE",
"130 158 OFFCURVE",
"74 218 CURVE",
"70 0 LINE"
);
},
{
closed = 1;
nodes = (
"486 400 OFFCURVE",
"559 455 OFFCURVE",
"559 544 CURVE SMOOTH",
"559 629 OFFCURVE",
"454 710 OFFCURVE",
"292 710 CURVE SMOOTH",
"216 710 OFFCURVE",
"177 707 OFFCURVE",
"135 700 CURVE",
"135 542 LINE",
"207 542 LINE",
"207 570 OFFCURVE",
"225 608 OFFCURVE",
"292 608 CURVE SMOOTH",
"357 608 OFFCURVE",
"422 581 OFFCURVE",
"422 544 CURVE SMOOTH",
"422 487 OFFCURVE",
"327 454 OFFCURVE",
"248 454 CURVE",
"404 371 LINE",
"404 400 LINE"
);
}
);
width = 651;
}
);
leftKerningGroup = H;
unicode = 0042;
},
{
glyphname = C;
lastChange = "2020-05-03 19:37:28 +0000";
layers = (
{
anchors = (
{
name = bottom;
position = "{291, 0}";
},
{
name = top;
position = "{291, 700}";
}
);
background = {
backgroundImage = {
crop = "{{0, 0}, {171.36, 212.16}}";
imagePath = "../../Atelier typographique liège/000DOCATELIERFIG/01-CROQUIS/3/C.jpg";
locked = "1";
transform = "{3.8057, 0, 0, 3.8057, -50.522, -53.043}";
};
};
layerId = "A956090A-BD7D-40E0-8141-33D8BAD0406F";
paths = (
{
closed = 1;
nodes = (
"139 700 LINE",
"139 500 OFFCURVE",
"35 343 OFFCURVE",
"35 216 CURVE SMOOTH",
"35 99 OFFCURVE",
"139 -20 OFFCURVE",
"291 -20 CURVE SMOOTH",
"479 -20 OFFCURVE",
"559 133 OFFCURVE",
"560 233 CURVE",
"413 233 LINE",
"413 181 OFFCURVE",
"379 119 OFFCURVE",
"306 119 CURVE SMOOTH",
"224 119 OFFCURVE",
"177 178 OFFCURVE",
"177 246 CURVE SMOOTH",
"177 309 OFFCURVE",
"232 458 OFFCURVE",
"232 539 CURVE",
"244 700 LINE"
);
},
{
closed = 1;
nodes = (
"139 651 OFFCURVE",
"180 584 OFFCURVE",
"232 539 CURVE",
"236 540 LINE",
"283 465 OFFCURVE",
"414 500 OFFCURVE",
"414 379 CURVE",
"560 379 LINE",
"562 648 OFFCURVE",
"244 563 OFFCURVE",
"244 700 CURVE",
"139 700 LINE"
);
}
);
width = 595;
},
{
associatedMasterId = "A956090A-BD7D-40E0-8141-33D8BAD0406F";
background = {
backgroundImage = {
crop = "{{0, 0}, {171.36, 212.16}}";
imagePath = "../../Atelier typographique liège/000DOCATELIERFIG/01-CROQUIS/3/C.jpg";
locked = "1";
transform = "{3.8057, 0, 0, 3.8057, -50.522, -53.043}";
};
};
layerId = "A0DF7B1B-A461-4A15-BEE3-FB85EB0D24EC";
name = "Feb 16 19, 18:32";
paths = (
{
closed = 1;
nodes = (
"251 618 LINE",
"251 489 OFFCURVE",
"167 372 OFFCURVE",
"167 277 CURVE SMOOTH",
"167 169 OFFCURVE",
"213 112 OFFCURVE",
"305 112 CURVE SMOOTH",
"369 112 OFFCURVE",
"408 172 OFFCURVE",
"408 214 CURVE",
"550 214 LINE",
"550 114 OFFCURVE",
"463 -29 OFFCURVE",
"305 -29 CURVE SMOOTH",
"153 -29 OFFCURVE",
"40 80 OFFCURVE",
"40 207 CURVE SMOOTH",
"40 334 OFFCURVE",
"149 496 OFFCURVE",
"149 700 CURVE",
"249 701 LINE"
);
},
{
closed = 1;
nodes = (
"572 499 LINE",
"533 470 OFFCURVE",
"477 462 OFFCURVE",
"440 462 CURVE SMOOTH",
"275 462 OFFCURVE",
"149 618 OFFCURVE",
"149 700 CURVE",
"249 701 LINE",
"249 630 OFFCURVE",
"328 595 OFFCURVE",
"406 595 CURVE SMOOTH",
"464 595 OFFCURVE",
"501 608 OFFCURVE",
"527 630 CURVE"
);
},
{
closed = 1;
nodes = (
"571 570 OFFCURVE",
"596 468 OFFCURVE",
"582 369 CURVE",
"451 389 LINE",
"483 426 OFFCURVE",
"479 489 OFFCURVE",
"453 528 CURVE",
"527 630 LINE"
);
}
);
width = 612;
},
{
associatedMasterId = "A956090A-BD7D-40E0-8141-33D8BAD0406F";
background = {
backgroundImage = {
crop = "{{0, 0}, {171.36, 212.16}}";
imagePath = "../../Atelier typographique liège/000DOCATELIERFIG/01-CROQUIS/3/C.jpg";
locked = "1";
transform = "{3.8057, 0, 0, 3.8057, -50.522, -53.043}";
};
};
layerId = "3E35CF94-3C26-49FA-B84E-41D3E6D151D1";
name = "Feb 16 19, 18:44";
paths = (
{
closed = 1;
nodes = (
"251 618 LINE",
"251 489 OFFCURVE",
"167 372 OFFCURVE",
"167 277 CURVE SMOOTH",
"167 169 OFFCURVE",
"213 112 OFFCURVE",
"305 112 CURVE SMOOTH",
"369 112 OFFCURVE",
"408 172 OFFCURVE",
"415 214 CURVE",
"551 214 LINE",
"550 114 OFFCURVE",
"463 -29 OFFCURVE",
"305 -29 CURVE SMOOTH",
"153 -29 OFFCURVE",
"40 80 OFFCURVE",
"40 207 CURVE SMOOTH",
"40 334 OFFCURVE",
"149 496 OFFCURVE",
"149 700 CURVE",
"249 701 LINE"
);
},
{
closed = 1;
nodes = (
"249 701 LINE",
"249 630 OFFCURVE",
"269 595 OFFCURVE",
"346 595 CURVE SMOOTH",
"441 595 OFFCURVE",
"552 583 OFFCURVE",
"551 379 CURVE",
"415 379 LINE",
"421 444 OFFCURVE",
"382 482 OFFCURVE",
"348 482 CURVE SMOOTH",
"184 482 OFFCURVE",
"149 618 OFFCURVE",
"149 700 CURVE"
);
}
);
width = 604;
},
{
associatedMasterId = "A956090A-BD7D-40E0-8141-33D8BAD0406F";
background = {
backgroundImage = {
crop = "{{0, 0}, {171.36, 212.16}}";
imagePath = "../../Atelier typographique liège/000DOCATELIERFIG/01-CROQUIS/3/C.jpg";
locked = "1";
transform = "{3.8057, 0, 0, 3.8057, -50.522, -53.043}";
};
};
layerId = "00E73EE2-62AF-4790-B946-655C53CCF48B";
name = "Feb 20 19, 11:52";
paths = (
{
closed = 1;
nodes = (
"251 618 LINE",
"251 489 OFFCURVE",
"167 391 OFFCURVE",
"167 261 CURVE SMOOTH",
"167 188 OFFCURVE",
"213 121 OFFCURVE",
"305 121 CURVE SMOOTH",
"369 121 OFFCURVE",
"408 191 OFFCURVE",
"408 233 CURVE",
"550 233 LINE",
"550 133 OFFCURVE",
"463 -10 OFFCURVE",
"305 -10 CURVE SMOOTH",
"153 -10 OFFCURVE",
"40 79 OFFCURVE",
"40 241 CURVE SMOOTH",
"40 333 OFFCURVE",
"149 496 OFFCURVE",
"149 700 CURVE",
"249 701 LINE"
);
},
{
closed = 1;
nodes = (
"572 499 LINE",
"533 470 OFFCURVE",
"477 462 OFFCURVE",
"440 462 CURVE SMOOTH",
"275 462 OFFCURVE",
"149 618 OFFCURVE",
"149 700 CURVE",
"249 701 LINE",
"249 630 OFFCURVE",
"328 595 OFFCURVE",
"406 595 CURVE SMOOTH",
"464 595 OFFCURVE",
"501 608 OFFCURVE",
"527 630 CURVE"
);
}
);
width = 592;
},
{
anchors = (
{
name = bottom;
position = "{286, 0}";
},
{
name = top;
position = "{286, 700}";
}
);
associatedMasterId = "A956090A-BD7D-40E0-8141-33D8BAD0406F";
background = {
backgroundImage = {
crop = "{{0, 0}, {171.36, 212.16}}";
imagePath = "../../Atelier typographique liège/000DOCATELIERFIG/01-CROQUIS/3/C.jpg";
locked = "1";
transform = "{3.8057, 0, 0, 3.8057, -50.522, -53.043}";
};
};
layerId = "A5E8D1BF-1BD8-43B4-83FB-4E4A21266297";
name = "Feb 21 19, 11:20";
paths = (
{
closed = 1;
nodes = (
"139 700 LINE",
"139 496 OFFCURVE",
"30 383 OFFCURVE",
"30 236 CURVE SMOOTH",
"30 69 OFFCURVE",
"153 -20 OFFCURVE",
"295 -20 CURVE SMOOTH",
"453 -20 OFFCURVE",
"540 133 OFFCURVE",
"540 233 CURVE",
"398 233 LINE",
"398 191 OFFCURVE",
"359 111 OFFCURVE",
"295 111 CURVE SMOOTH",
"203 111 OFFCURVE",
"177 198 OFFCURVE",
"177 256 CURVE SMOOTH",
"177 362 OFFCURVE",
"227 434 OFFCURVE",
"238 522 CURVE",
"239 700 LINE"
);
},
{
closed = 1;
nodes = (
"299 478 OFFCURVE",
"369 462 OFFCURVE",
"440 462 CURVE SMOOTH",
"466 462 OFFCURVE",
"500 466 OFFCURVE",
"532 479 CURVE",
"492 610 LINE",
"469 600 OFFCURVE",
"442 595 OFFCURVE",
"406 595 CURVE SMOOTH",
"330 595 OFFCURVE",
"249 636 OFFCURVE",
"249 700 CURVE",
"248 522 LINE"
);
}
);
width = 585;
},
{
anchors = (
{
name = bottom;
position = "{286, 0}";
},
{
name = top;
position = "{286, 700}";
}
);
associatedMasterId = "A956090A-BD7D-40E0-8141-33D8BAD0406F";
background = {
backgroundImage = {
crop = "{{0, 0}, {171.36, 212.16}}";
imagePath = "../../Atelier typographique liège/000DOCATELIERFIG/01-CROQUIS/3/C.jpg";
locked = "1";
transform = "{3.8057, 0, 0, 3.8057, -50.522, -53.043}";
};
};
layerId = "EB3F07D3-CFA8-461F-B9F5-CFB60614F3FF";
name = "Feb 21 19, 11:21";
paths = (
{
closed = 1;
nodes = (
"139 700 LINE",
"139 496 OFFCURVE",
"30 383 OFFCURVE",
"30 236 CURVE SMOOTH",
"30 69 OFFCURVE",
"153 -20 OFFCURVE",
"295 -20 CURVE SMOOTH",
"453 -20 OFFCURVE",
"540 133 OFFCURVE",
"540 233 CURVE",
"398 233 LINE",
"398 191 OFFCURVE",
"359 111 OFFCURVE",
"295 111 CURVE SMOOTH",
"203 111 OFFCURVE",
"177 198 OFFCURVE",
"177 256 CURVE SMOOTH",
"177 362 OFFCURVE",
"227 434 OFFCURVE",
"238 522 CURVE",
"239 700 LINE"
);
},
{
closed = 1;
nodes = (
"289 478 OFFCURVE",
"359 462 OFFCURVE",
"430 462 CURVE SMOOTH",
"456 462 OFFCURVE",
"490 466 OFFCURVE",
"522 479 CURVE",
"482 610 LINE",
"459 600 OFFCURVE",
"432 595 OFFCURVE",
"396 595 CURVE SMOOTH",
"320 595 OFFCURVE",
"239 636 OFFCURVE",
"239 700 CURVE",
"238 522 LINE"
);
}
);
width = 585;
},
{
anchors = (
{
name = bottom;
position = "{286, 0}";
},
{
name = top;
position = "{286, 700}";
}
);
associatedMasterId = "A956090A-BD7D-40E0-8141-33D8BAD0406F";
background = {
backgroundImage = {
crop = "{{0, 0}, {171.36, 212.16}}";
imagePath = "../../Atelier typographique liège/000DOCATELIERFIG/01-CROQUIS/3/C.jpg";
locked = "1";
transform = "{3.8057, 0, 0, 3.8057, -50.522, -53.043}";
};
};
layerId = "96E10781-A4B8-43B1-AB92-8B0E08C73E19";
name = "Feb 21 19, 11:25";
paths = (
{
closed = 1;
nodes = (
"286 483 OFFCURVE",
"359 462 OFFCURVE",
"430 462 CURVE SMOOTH",
"456 462 OFFCURVE",
"490 466 OFFCURVE",
"522 479 CURVE",
"482 610 LINE",
"459 600 OFFCURVE",
"432 595 OFFCURVE",
"396 595 CURVE SMOOTH",
"320 595 OFFCURVE",
"239 636 OFFCURVE",
"239 700 CURVE",
"179 700 LINE",
"179 531 LINE",
"232 531 LINE"
);
},
{
closed = 1;
nodes = (
"139 700 LINE",
"139 496 OFFCURVE",
"35 343 OFFCURVE",
"35 216 CURVE SMOOTH",
"35 99 OFFCURVE",
"138 -20 OFFCURVE",
"290 -20 CURVE SMOOTH",
"448 -20 OFFCURVE",
"541 133 OFFCURVE",
"542 233 CURVE",
"405 233 LINE",
"398 191 OFFCURVE",
"359 119 OFFCURVE",
"295 119 CURVE SMOOTH",
"213 119 OFFCURVE",
"172 188 OFFCURVE",
"172 256 CURVE SMOOTH",
"172 319 OFFCURVE",
"227 450 OFFCURVE",
"227 531 CURVE",
"239 700 LINE"
);
}
);
width = 585;
}
);
leftKerningGroup = C;
rightKerningGroup = C;
unicode = 0043;
},
{
glyphname = D;
lastChange = "2020-01-05 19:35:21 +0000";
layers = (
{
anchors = (
{
name = bottom;
position = "{324, 0}";
},
{
name = center;
position = "{324, 350}";
},
{
name = top;
position = "{174, 700}";
}
);
background = {
backgroundImage = {
crop = "{{0, 0}, {170.16, 199.2}}";
imagePath = "../../Atelier typographique liège/000DOCATELIERFIG/01-CROQUIS/4/D.jpg";
locked = "1";
transform = "{3.78611, 0, 0, 3.78611, 16, -55}";
};
};
layerId = "A956090A-BD7D-40E0-8141-33D8BAD0406F";
paths = (
{
closed = 1;
nodes = (
"198 91 OFFCURVE",
"183 198 OFFCURVE",
"183 304 CURVE SMOOTH",
"183 451 OFFCURVE",
"202 597 OFFCURVE",
"238 700 CURVE",
"179 700 OFFCURVE",
"163 700 OFFCURVE",
"135 700 CURVE",
"70 540 OFFCURVE",
"45 384 OFFCURVE",
"45 216 CURVE SMOOTH",
"45 142 OFFCURVE",
"53 69 OFFCURVE",
"70 0 CURVE",
"237 0 LINE"
);
},
{
closed = 1;
nodes = (
"127 0 LINE",
"199 0 OFFCURVE",
"281 0 OFFCURVE",
"344 0 CURVE SMOOTH",
"400 0 OFFCURVE",
"617 0 OFFCURVE",
"617 206 CURVE SMOOTH",
"617 352 OFFCURVE",
"489 442 OFFCURVE",
"380 502 CURVE SMOOTH",
"298 547 OFFCURVE",
"232 599 OFFCURVE",
"232 662 CURVE SMOOTH",
"232 674 OFFCURVE",
"234 686 OFFCURVE",
"238 700 CURVE",
"189 700 OFFCURVE",
"166 700 OFFCURVE",
"135 700 CURVE",
"124 650 OFFCURVE",
"134 524 OFFCURVE",
"155 482 CURVE",
"199 510 LINE",
"228 458 OFFCURVE",
"282 425 OFFCURVE",
"335 395 CURVE SMOOTH",
"450 330 OFFCURVE",
"479 269 OFFCURVE",
"479 218 CURVE SMOOTH",
"479 142 OFFCURVE",
"420 108 OFFCURVE",
"343 108 CURVE SMOOTH",
"226 108 OFFCURVE",
"141 152 OFFCURVE",
"127 173 CURVE"
);
},
{
closed = 1;
nodes = (
"338 216 OFFCURVE",
"360 237 OFFCURVE",
"360 263 CURVE SMOOTH",
"360 289 OFFCURVE",
"338 311 OFFCURVE",
"312 311 CURVE SMOOTH",
"286 311 OFFCURVE",
"265 289 OFFCURVE",
"265 263 CURVE SMOOTH",
"265 237 OFFCURVE",
"286 216 OFFCURVE",
"312 216 CURVE SMOOTH"
);
}
);
width = 647;
},
{
associatedMasterId = "A956090A-BD7D-40E0-8141-33D8BAD0406F";
background = {
backgroundImage = {
crop = "{{0, 0}, {170.16, 199.2}}";
imagePath = "../../Atelier typographique liège/000DOCATELIERFIG/01-CROQUIS/4/D.jpg";
locked = "1";
transform = "{3.78611, 0, 0, 3.78611, 16, -55}";
};
};
layerId = "4F23F5F4-DCDC-47DA-8BAA-1661F2E37C4B";
name = "Feb 16 19, 18:35";
paths = (
{
closed = 1;
nodes = (
"193 91 OFFCURVE",
"178 198 OFFCURVE",
"178 304 CURVE SMOOTH",
"178 451 OFFCURVE",
"197 597 OFFCURVE",
"233 700 CURVE",
"174 700 OFFCURVE",
"158 700 OFFCURVE",
"130 700 CURVE",
"75 540 OFFCURVE",
"40 384 OFFCURVE",
"40 216 CURVE SMOOTH",
"40 142 OFFCURVE",
"48 69 OFFCURVE",
"65 0 CURVE",
"232 0 LINE"
);
},
{
closed = 1;
nodes = (
"122 0 LINE",
"194 0 OFFCURVE",
"276 0 OFFCURVE",
"339 0 CURVE SMOOTH",
"395 0 OFFCURVE",
"612 0 OFFCURVE",
"612 206 CURVE SMOOTH",
"612 331 OFFCURVE",
"515 432 OFFCURVE",
"399 496 CURVE SMOOTH",
"303 549 OFFCURVE",
"222 592 OFFCURVE",
"233 700 CURVE",
"184 700 OFFCURVE",
"161 700 OFFCURVE",
"130 700 CURVE",
"100 563 OFFCURVE",
"234 472 OFFCURVE",
"340 405 CURVE SMOOTH",
"426 351 OFFCURVE",
"494 299 OFFCURVE",
"494 208 CURVE SMOOTH",
"494 152 OFFCURVE",
"455 108 OFFCURVE",
"338 108 CURVE SMOOTH",
"221 108 OFFCURVE",
"136 142 OFFCURVE",
"122 163 CURVE"
);
},
{
closed = 1;
nodes = (
"313 216 OFFCURVE",
"335 237 OFFCURVE",
"335 263 CURVE SMOOTH",
"335 289 OFFCURVE",
"313 311 OFFCURVE",
"287 311 CURVE SMOOTH",
"261 311 OFFCURVE",
"240 289 OFFCURVE",
"240 263 CURVE SMOOTH",
"240 237 OFFCURVE",
"261 216 OFFCURVE",
"287 216 CURVE SMOOTH"
);
}
);
width = 632;
},
{
associatedMasterId = "A956090A-BD7D-40E0-8141-33D8BAD0406F";
background = {
backgroundImage = {
crop = "{{0, 0}, {170.16, 199.2}}";
imagePath = "../../Atelier typographique liège/000DOCATELIERFIG/01-CROQUIS/4/D.jpg";
locked = "1";
transform = "{3.78611, 0, 0, 3.78611, 16, -55}";
};
};
layerId = "F9FCFE14-9422-464B-8F1E-FEFF440E03D6";
name = "Feb 20 19, 18:53";
paths = (
{
closed = 1;
nodes = (
"198 91 OFFCURVE",
"183 198 OFFCURVE",
"183 304 CURVE SMOOTH",
"183 451 OFFCURVE",
"202 597 OFFCURVE",
"238 700 CURVE",
"179 700 OFFCURVE",
"163 700 OFFCURVE",
"135 700 CURVE",
"70 540 OFFCURVE",
"45 384 OFFCURVE",
"45 216 CURVE SMOOTH",
"45 142 OFFCURVE",
"53 69 OFFCURVE",
"70 0 CURVE",
"237 0 LINE"
);
},
{
closed = 1;
nodes = (
"127 0 LINE",
"199 0 OFFCURVE",
"281 0 OFFCURVE",
"344 0 CURVE SMOOTH",
"400 0 OFFCURVE",
"617 0 OFFCURVE",
"617 206 CURVE SMOOTH",
"617 331 OFFCURVE",
"520 432 OFFCURVE",
"404 496 CURVE SMOOTH",
"308 549 OFFCURVE",
"227 592 OFFCURVE",
"238 700 CURVE",
"189 700 OFFCURVE",
"166 700 OFFCURVE",
"135 700 CURVE",
"105 563 OFFCURVE",
"229 472 OFFCURVE",
"335 405 CURVE SMOOTH",
"421 351 OFFCURVE",
"489 299 OFFCURVE",
"489 208 CURVE SMOOTH",
"489 152 OFFCURVE",
"460 108 OFFCURVE",
"343 108 CURVE SMOOTH",
"226 108 OFFCURVE",
"141 142 OFFCURVE",
"127 163 CURVE"
);
},
{
closed = 1;
nodes = (
"338 216 OFFCURVE",
"360 237 OFFCURVE",
"360 263 CURVE SMOOTH",
"360 289 OFFCURVE",
"338 311 OFFCURVE",
"312 311 CURVE SMOOTH",
"286 311 OFFCURVE",
"265 289 OFFCURVE",
"265 263 CURVE SMOOTH",
"265 237 OFFCURVE",
"286 216 OFFCURVE",
"312 216 CURVE SMOOTH"
);
}
);
width = 647;
},
{
anchors = (
{
name = bottom;
position = "{324, 0}";
},
{
name = center;
position = "{324, 350}";
},
{
name = top;
position = "{174, 700}";
}
);
associatedMasterId = "A956090A-BD7D-40E0-8141-33D8BAD0406F";
background = {
backgroundImage = {
crop = "{{0, 0}, {170.16, 199.2}}";
imagePath = "../../Atelier typographique liège/000DOCATELIERFIG/01-CROQUIS/4/D.jpg";
locked = "1";
transform = "{3.78611, 0, 0, 3.78611, 16, -55}";
};
};
layerId = "2D19BB10-35F4-49AA-A2B4-9C60941559CF";
name = "Feb 22 19, 12:05";
paths = (
{
closed = 1;
nodes = (
"198 91 OFFCURVE",
"183 198 OFFCURVE",
"183 304 CURVE SMOOTH",
"183 451 OFFCURVE",
"202 597 OFFCURVE",
"238 700 CURVE",
"179 700 OFFCURVE",
"163 700 OFFCURVE",
"135 700 CURVE",
"70 540 OFFCURVE",
"45 384 OFFCURVE",
"45 216 CURVE SMOOTH",
"45 142 OFFCURVE",
"53 69 OFFCURVE",
"70 0 CURVE",
"237 0 LINE"
);
},
{
closed = 1;
nodes = (
"127 0 LINE",
"199 0 OFFCURVE",
"281 0 OFFCURVE",
"344 0 CURVE SMOOTH",
"400 0 OFFCURVE",
"617 0 OFFCURVE",
"617 206 CURVE SMOOTH",
"617 331 OFFCURVE",
"520 432 OFFCURVE",
"404 496 CURVE SMOOTH",
"308 549 OFFCURVE",
"227 592 OFFCURVE",
"238 700 CURVE",
"189 700 OFFCURVE",
"166 700 OFFCURVE",
"135 700 CURVE",
"105 563 OFFCURVE",
"229 452 OFFCURVE",
"335 395 CURVE SMOOTH",
"424 347 OFFCURVE",
"479 289 OFFCURVE",
"479 208 CURVE SMOOTH",
"479 142 OFFCURVE",
"440 108 OFFCURVE",
"343 108 CURVE SMOOTH",
"226 108 OFFCURVE",
"141 142 OFFCURVE",
"127 163 CURVE"
);
},
{
closed = 1;
nodes = (
"338 216 OFFCURVE",
"360 237 OFFCURVE",
"360 263 CURVE SMOOTH",
"360 289 OFFCURVE",
"338 311 OFFCURVE",
"312 311 CURVE SMOOTH",
"286 311 OFFCURVE",
"265 289 OFFCURVE",
"265 263 CURVE SMOOTH",
"265 237 OFFCURVE",
"286 216 OFFCURVE",
"312 216 CURVE SMOOTH"
);
}
);
width = 647;
}
);
leftKerningGroup = H;
rightKerningGroup = D;
unicode = 0044;
},
{
glyphname = Eth;
lastChange = "2020-03-12 09:47:09 +0000";
layers = (
{
layerId = "A956090A-BD7D-40E0-8141-33D8BAD0406F";
paths = (
{
closed = 1;
nodes = (
"213 91 OFFCURVE",
"198 198 OFFCURVE",
"198 304 CURVE SMOOTH",
"198 451 OFFCURVE",
"217 597 OFFCURVE",
"253 700 CURVE",
"194 700 OFFCURVE",
"178 700 OFFCURVE",
"150 700 CURVE",
"85 540 OFFCURVE",
"60 384 OFFCURVE",
"60 216 CURVE SMOOTH",
"60 142 OFFCURVE",
"68 69 OFFCURVE",
"85 0 CURVE",
"252 0 LINE"
);
},
{
closed = 1;
nodes = (
"142 0 LINE",
"214 0 OFFCURVE",
"296 0 OFFCURVE",
"359 0 CURVE SMOOTH",
"415 0 OFFCURVE",
"632 0 OFFCURVE",
"632 206 CURVE SMOOTH",
"632 352 OFFCURVE",
"504 442 OFFCURVE",
"395 502 CURVE SMOOTH",
"313 547 OFFCURVE",
"247 599 OFFCURVE",
"247 662 CURVE SMOOTH",
"247 674 OFFCURVE",
"249 686 OFFCURVE",
"253 700 CURVE",
"204 700 OFFCURVE",
"181 700 OFFCURVE",
"150 700 CURVE",
"139 650 OFFCURVE",
"149 514 OFFCURVE",
"170 472 CURVE",
"214 500 LINE",
"263 448 OFFCURVE",
"297 425 OFFCURVE",
"350 395 CURVE SMOOTH",
"465 330 OFFCURVE",
"494 269 OFFCURVE",
"494 218 CURVE SMOOTH",
"494 142 OFFCURVE",
"435 108 OFFCURVE",
"358 108 CURVE SMOOTH",
"241 108 OFFCURVE",
"156 142 OFFCURVE",
"142 163 CURVE"
);
},
{
closed = 1;
nodes = (
"67 205 OFFCURVE",
"112 209 OFFCURVE",
"176 209 CURVE SMOOTH",
"236 209 OFFCURVE",
"281 205 OFFCURVE",
"337 190 CURVE",
"337 326 LINE",
"281 312 OFFCURVE",
"239 301 OFFCURVE",
"176 301 CURVE SMOOTH",
"115 301 OFFCURVE",
"68 312 OFFCURVE",
"15 326 CURVE",
"15 190 LINE"
);
}
);
width = 662;
}
);
rightKerningGroup = D;
unicode = 00D0;
},
{
glyphname = E;
lastChange = "2020-01-06 09:12:49 +0000";
layers = (
{
anchors = (
{
name = bottom;
position = "{328, 0}";
},
{
name = ogonek;
position = "{590, 10}";
},
{
name = top;
position = "{328, 700}";
},
{
name = topleft;
position = "{20, 700}";
}
);
background = {
backgroundImage = {
crop = "{{0, 0}, {170.16, 212.16}}";
imagePath = "../../Atelier typographique liège/000DOCATELIERFIG/01-CROQUIS/5/E-minuscule.jpg";
locked = "1";
transform = "{3.8007, 0, 0, 3.8007, -42, -52.357}";
};
};
layerId = "A956090A-BD7D-40E0-8141-33D8BAD0406F";
paths = (
{
closed = 1;
nodes = (
"45 142 OFFCURVE",
"53 69 OFFCURVE",
"70 0 CURVE",
"616 0 LINE",
"567 153 LINE",
"444 117 OFFCURVE",
"344 105 OFFCURVE",
"209 102 CURVE",
"194 167 OFFCURVE",
"188 235 OFFCURVE",
"188 304 CURVE SMOOTH",
"188 358 OFFCURVE",
"191 412 OFFCURVE",
"196 464 CURVE",
"278 459 OFFCURVE",
"334 334 OFFCURVE",
"510 334 CURVE",
"510 483 LINE",
"495 480 OFFCURVE",
"480 478 OFFCURVE",
"465 478 CURVE SMOOTH",
"343 478 OFFCURVE",
"303 574 OFFCURVE",
"221 574 CURVE SMOOTH",
"218 574 OFFCURVE",
"208 574 OFFCURVE",
"201 573 CURVE",
"201 577 LINE",
"265 602 OFFCURVE",
"328 609 OFFCURVE",
"373 609 CURVE SMOOTH",
"426 609 OFFCURVE",
"480 599 OFFCURVE",
"520 582 CURVE",
"520 700 LINE",
"135 700 LINE",
"70 540 OFFCURVE",
"45 384 OFFCURVE",
"45 216 CURVE SMOOTH"
);
}
);
width = 646;
},
{
associatedMasterId = "A956090A-BD7D-40E0-8141-33D8BAD0406F";
background = {
backgroundImage = {
crop = "{{0, 0}, {170.16, 212.16}}";
imagePath = "../../Atelier typographique liège/000DOCATELIERFIG/01-CROQUIS/5/E-minuscule.jpg";
locked = "1";
transform = "{3.8007, 0, 0, 3.8007, -42, -52.357}";
};
};
layerId = "51052924-F465-41D0-844D-458927ACB31C";
name = "Feb 20 19, 11:45";
paths = (
{
closed = 1;
nodes = (
"418 111 OFFCURVE",
"305 101 OFFCURVE",
"130 101 CURVE",
"130 0 LINE",
"611 0 LINE",
"562 153 LINE"
);
},
{
closed = 1;
nodes = (
"130 700 LINE",
"130 535 LINE",
"189 590 OFFCURVE",
"299 609 OFFCURVE",
"368 609 CURVE SMOOTH",
"421 609 OFFCURVE",
"467 598 OFFCURVE",
"504 582 CURVE",
"504 700 LINE"
);
},
{
closed = 1;
nodes = (
"140 449 OFFCURVE",
"167 464 OFFCURVE",
"186 464 CURVE SMOOTH",
"271 464 OFFCURVE",
"326 334 OFFCURVE",
"505 334 CURVE",
"505 483 LINE",
"490 480 OFFCURVE",
"475 478 OFFCURVE",
"460 478 CURVE SMOOTH",
"338 478 OFFCURVE",
"298 575 OFFCURVE",
"216 575 CURVE SMOOTH",
"190 575 OFFCURVE",
"170 556 OFFCURVE",
"130 535 CURVE",
"119 422 LINE"
);
},
{
closed = 1;
nodes = (
"198 91 OFFCURVE",
"183 198 OFFCURVE",
"183 304 CURVE SMOOTH",
"183 451 OFFCURVE",
"202 597 OFFCURVE",
"238 700 CURVE",
"130 700 LINE",
"75 540 OFFCURVE",
"40 384 OFFCURVE",
"40 216 CURVE SMOOTH",
"40 142 OFFCURVE",
"48 69 OFFCURVE",
"65 0 CURVE",
"237 0 LINE"
);
}
);
width = 641;
}
);
leftKerningGroup = H;
rightKerningGroup = E;
unicode = 0045;
},
{
glyphname = F;
lastChange = "2020-01-02 13:50:38 +0000";
layers = (
{
anchors = (
{
name = bottom;
position = "{275, 0}";
},
{
name = top;
position = "{275, 700}";
}
);
layerId = "A956090A-BD7D-40E0-8141-33D8BAD0406F";
paths = (
{
closed = 1;
nodes = (
"45 142 OFFCURVE",
"53 69 OFFCURVE",
"70 0 CURVE",
"242 0 LINE",
"203 91 OFFCURVE",
"188 198 OFFCURVE",
"188 304 CURVE SMOOTH",
"188 358 OFFCURVE",
"191 412 OFFCURVE",
"196 464 CURVE",
"278 459 OFFCURVE",
"324 324 OFFCURVE",
"500 324 CURVE",
"500 473 LINE",
"485 470 OFFCURVE",
"470 468 OFFCURVE",
"455 468 CURVE SMOOTH",
"333 468 OFFCURVE",
"303 575 OFFCURVE",
"221 575 CURVE SMOOTH",
"218 575 OFFCURVE",
"208 574 OFFCURVE",
"201 573 CURVE",
"201 577 LINE",
"265 602 OFFCURVE",
"328 609 OFFCURVE",
"373 609 CURVE SMOOTH",
"426 609 OFFCURVE",
"470 599 OFFCURVE",
"510 582 CURVE",
"510 700 LINE",
"135 700 LINE",
"70 540 OFFCURVE",
"45 384 OFFCURVE",
"45 216 CURVE SMOOTH"
);
}
);
width = 545;
},
{
associatedMasterId = "A956090A-BD7D-40E0-8141-33D8BAD0406F";
layerId = "64C18AF0-1689-495A-AAA5-ECC0CD5F7C48";
name = "Feb 20 19, 11:46";
paths = (
{
closed = 1;
nodes = (
"130 700 LINE",
"130 535 LINE",
"189 590 OFFCURVE",
"299 609 OFFCURVE",
"368 609 CURVE SMOOTH",
"421 609 OFFCURVE",
"467 598 OFFCURVE",
"504 582 CURVE",
"504 700 LINE"
);
},
{
closed = 1;
nodes = (
"140 449 OFFCURVE",
"167 464 OFFCURVE",
"186 464 CURVE SMOOTH",
"271 464 OFFCURVE",
"326 334 OFFCURVE",
"505 334 CURVE",
"505 483 LINE",
"490 480 OFFCURVE",
"475 478 OFFCURVE",
"460 478 CURVE SMOOTH",
"338 478 OFFCURVE",
"298 575 OFFCURVE",
"216 575 CURVE SMOOTH",
"190 575 OFFCURVE",
"170 556 OFFCURVE",
"130 535 CURVE",
"119 422 LINE"
);
},
{
closed = 1;
nodes = (
"198 91 OFFCURVE",
"183 198 OFFCURVE",
"183 304 CURVE SMOOTH",
"183 451 OFFCURVE",
"202 597 OFFCURVE",
"238 700 CURVE",
"130 700 LINE",
"75 540 OFFCURVE",
"40 384 OFFCURVE",
"40 216 CURVE SMOOTH",
"40 142 OFFCURVE",
"48 69 OFFCURVE",
"65 0 CURVE",
"237 0 LINE"
);
}
);
width = 535;
}
);
rightKerningGroup = F;
unicode = 0046;
},
{
glyphname = G;
lastChange = "2020-01-05 22:05:34 +0000";
layers = (
{
anchors = (
{
name = bottom;
position = "{301, 0}";
},
{
name = top;
position = "{331, 700}";
}
);
background = {
backgroundImage = {
crop = "{{0, 0}, {171.36, 212.16}}";
imagePath = "../../Atelier typographique liège/000DOCATELIERFIG/01-CROQUIS/3/G.jpg";
locked = "1";
transform = "{3.78234, 0, 0, 3.78234, -42.109, -52.135}";
};
};
layerId = "A956090A-BD7D-40E0-8141-33D8BAD0406F";
paths = (
{
closed = 1;
nodes = (
"271 490 OFFCURVE",
"347 463 OFFCURVE",
"424 463 CURVE SMOOTH",
"475 463 OFFCURVE",
"527 475 OFFCURVE",
"567 499 CURVE",
"522 630 LINE",
"486 608 OFFCURVE",
"459 595 OFFCURVE",
"401 595 CURVE SMOOTH",
"325 595 OFFCURVE",
"244 633 OFFCURVE",
"244 700 CURVE",
"182 700 LINE",
"181 529 LINE",
"236 540 LINE"
);
},
{
closed = 1;
nodes = (
"35 99 OFFCURVE",
"144 -20 OFFCURVE",
"296 -20 CURVE SMOOTH",
"449 -20 OFFCURVE",
"551 85 OFFCURVE",
"551 248 CURVE SMOOTH",
"551 286 OFFCURVE",
"546 346 OFFCURVE",
"538 388 CURVE",
"474 373 OFFCURVE",
"431 366 OFFCURVE",
"378 366 CURVE SMOOTH",
"335 366 OFFCURVE",
"294 371 OFFCURVE",
"261 379 CURVE",
"280 238 LINE",
"339 263 OFFCURVE",
"395 268 OFFCURVE",
"471 268 CURVE",
"417 278 LINE",
"450 198 OFFCURVE",
"400 119 OFFCURVE",
"316 119 CURVE SMOOTH",
"234 119 OFFCURVE",
"177 178 OFFCURVE",
"177 246 CURVE SMOOTH",
"177 309 OFFCURVE",
"232 458 OFFCURVE",
"232 539 CURVE",
"244 700 LINE",
"139 700 LINE",
"139 500 OFFCURVE",
"35 343 OFFCURVE",
"35 216 CURVE SMOOTH"
);
}
);
width = 602;
},
{
associatedMasterId = "A956090A-BD7D-40E0-8141-33D8BAD0406F";
background = {
backgroundImage = {
crop = "{{0, 0}, {171.36, 212.16}}";
imagePath = "../../Atelier typographique liège/000DOCATELIERFIG/01-CROQUIS/3/G.jpg";
transform = "{3.78234, 0, 0, 3.78234, -42.109, -52.135}";
};
};
layerId = "3E5EFDA8-5F1C-40E9-AE36-970DCEA47AC8";
name = "Feb 16 19, 19:04";
paths = (
{
closed = 1;
nodes = (
"-40 80 OFFCURVE",
"73 -29 OFFCURVE",
"225 -29 CURVE SMOOTH",
"383 -29 OFFCURVE",
"470 85 OFFCURVE",
"470 214 CURVE SMOOTH",
"470 269 OFFCURVE",
"468 300 OFFCURVE",
"460 348 CURVE",
"396 333 OFFCURVE",
"351 326 OFFCURVE",
"298 326 CURVE SMOOTH",
"255 326 OFFCURVE",
"214 331 OFFCURVE",
"171 339 CURVE",
"190 218 LINE",
"240 239 OFFCURVE",
"263 243 OFFCURVE",
"332 246 CURVE",
"332 177 OFFCURVE",
"307 112 OFFCURVE",
"225 112 CURVE SMOOTH",
"133 112 OFFCURVE",
"87 169 OFFCURVE",
"87 277 CURVE SMOOTH",
"87 353 OFFCURVE",
"141 443 OFFCURVE",
"162 542 CURVE",
"213 496 OFFCURVE",
"282 462 OFFCURVE",
"360 462 CURVE SMOOTH",
"397 462 OFFCURVE",
"453 470 OFFCURVE",
"492 499 CURVE",
"447 630 LINE",
"421 608 OFFCURVE",
"384 595 OFFCURVE",
"326 595 CURVE SMOOTH",
"250 595 OFFCURVE",
"169 629 OFFCURVE",
"169 696 CURVE SMOOTH",
"169 701 LINE",
"69 700 LINE",
"69 496 OFFCURVE",
"-40 334 OFFCURVE",
"-40 207 CURVE SMOOTH"
);
}
);
width = 600;
},
{
anchors = (
{
name = bottom;
position = "{301, 0}";
},
{
name = top;
position = "{301, 700}";
}
);
associatedMasterId = "A956090A-BD7D-40E0-8141-33D8BAD0406F";
background = {
backgroundImage = {
crop = "{{0, 0}, {171.36, 212.16}}";
imagePath = "../../Atelier typographique liège/000DOCATELIERFIG/01-CROQUIS/3/G.jpg";
locked = "1";
transform = "{3.78234, 0, 0, 3.78234, -42.109, -52.135}";
};
};
layerId = "18505849-2AFB-4A70-9F36-274E11A34EE6";
name = "Feb 21 19, 11:42";
paths = (
{
closed = 1;
nodes = (
"422 222 LINE",
"422 246 LINE",
"353 243 OFFCURVE",
"320 239 OFFCURVE",
"270 218 CURVE",
"251 339 LINE",
"294 331 OFFCURVE",
"335 326 OFFCURVE",
"378 326 CURVE SMOOTH",
"431 326 OFFCURVE",
"476 333 OFFCURVE",
"540 348 CURVE",
"550 287 OFFCURVE",
"550 248 OFFCURVE",
"550 222 CURVE SMOOTH",
"550 203 OFFCURVE",
"547 183 OFFCURVE",
"542 162 CURVE"
);
},
{
closed = 1;
nodes = (
"293 497 OFFCURVE",
"362 462 OFFCURVE",
"440 462 CURVE SMOOTH",
"477 462 OFFCURVE",
"533 470 OFFCURVE",
"572 499 CURVE",
"527 630 LINE",
"501 608 OFFCURVE",
"464 595 OFFCURVE",
"406 595 CURVE SMOOTH",
"330 595 OFFCURVE",
"249 633 OFFCURVE",
"249 700 CURVE",
"187 669 LINE",
"186 577 LINE",
"242 542 LINE"
);
},
{
closed = 1;
nodes = (
"542 162 LINE",
"519 74 OFFCURVE",
"444 -20 OFFCURVE",
"305 -20 CURVE SMOOTH",
"153 -20 OFFCURVE",
"40 79 OFFCURVE",
"40 241 CURVE SMOOTH",
"40 333 OFFCURVE",
"139 496 OFFCURVE",
"139 700 CURVE",
"249 700 LINE",
"242 542 LINE",
"240 447 OFFCURVE",
"177 364 OFFCURVE",
"177 261 CURVE SMOOTH",
"177 188 OFFCURVE",
"213 111 OFFCURVE",
"305 111 CURVE SMOOTH",
"364 111 OFFCURVE",
"421 148 OFFCURVE",
"422 222 CURVE SMOOTH",
"422 222 LINE"
);
}
);
width = 612;
},
{
anchors = (
{
name = bottom;
position = "{301, 0}";
},
{
name = top;
position = "{301, 700}";
}
);
associatedMasterId = "A956090A-BD7D-40E0-8141-33D8BAD0406F";
background = {
backgroundImage = {
crop = "{{0, 0}, {171.36, 212.16}}";
imagePath = "../../Atelier typographique liège/000DOCATELIERFIG/01-CROQUIS/3/G.jpg";
locked = "1";
transform = "{3.78234, 0, 0, 3.78234, -42.109, -52.135}";
};
};
layerId = "DA38E7F2-B0A7-4F55-8009-EFB30769A960";
name = "Feb 21 19, 11:44";
paths = (
{
closed = 1;
nodes = (
"547 183 OFFCURVE",
"550 203 OFFCURVE",
"550 222 CURVE SMOOTH",
"550 248 OFFCURVE",
"550 287 OFFCURVE",
"540 348 CURVE",
"476 333 OFFCURVE",
"431 326 OFFCURVE",
"378 326 CURVE SMOOTH",
"335 326 OFFCURVE",
"294 331 OFFCURVE",
"251 339 CURVE",
"270 218 LINE",
"320 239 OFFCURVE",
"353 243 OFFCURVE",
"422 246 CURVE",
"422 222 LINE",
"542 162 LINE"
);
},
{
closed = 1;
nodes = (
"288 497 OFFCURVE",
"357 462 OFFCURVE",
"435 462 CURVE SMOOTH",
"472 462 OFFCURVE",
"528 470 OFFCURVE",
"567 499 CURVE",
"522 630 LINE",
"496 608 OFFCURVE",
"459 595 OFFCURVE",
"401 595 CURVE SMOOTH",
"325 595 OFFCURVE",
"244 633 OFFCURVE",
"244 700 CURVE",
"182 700 LINE",
"181 500 LINE",
"237 542 LINE"
);
},
{
closed = 1;
nodes = (
"139 700 LINE",
"139 500 OFFCURVE",
"35 343 OFFCURVE",
"35 216 CURVE SMOOTH",
"35 99 OFFCURVE",
"144 -20 OFFCURVE",
"296 -20 CURVE SMOOTH",
"441 -20 OFFCURVE",
"516 74 OFFCURVE",
"542 162 CURVE",
"422 246 LINE",
"422 178 OFFCURVE",
"379 119 OFFCURVE",
"306 119 CURVE SMOOTH",
"224 119 OFFCURVE",
"177 178 OFFCURVE",
"177 246 CURVE SMOOTH",
"177 309 OFFCURVE",
"232 450 OFFCURVE",
"232 531 CURVE",
"244 700 LINE"
);
}
);
width = 612;
},
{
anchors = (
{
name = bottom;
position = "{301, 0}";
},
{
name = top;
position = "{301, 700}";
}
);
associatedMasterId = "A956090A-BD7D-40E0-8141-33D8BAD0406F";
background = {
backgroundImage = {
crop = "{{0, 0}, {171.36, 212.16}}";
imagePath = "../../Atelier typographique liège/000DOCATELIERFIG/01-CROQUIS/3/G.jpg";
locked = "1";
transform = "{3.78234, 0, 0, 3.78234, -42.109, -52.135}";
};
};
layerId = "4DDD46EF-BCF0-4B45-9511-2C5E247D3396";
name = "Jan 2 20, 19:56";
paths = (
{
closed = 1;
nodes = (
"271 490 OFFCURVE",
"347 463 OFFCURVE",
"424 463 CURVE SMOOTH",
"475 463 OFFCURVE",
"527 475 OFFCURVE",
"567 499 CURVE",
"522 630 LINE",
"486 608 OFFCURVE",
"459 595 OFFCURVE",
"401 595 CURVE SMOOTH",
"325 595 OFFCURVE",
"244 633 OFFCURVE",
"244 700 CURVE",
"182 700 LINE",
"181 529 LINE",
"236 540 LINE"
);
},
{
closed = 1;
nodes = (
"35 99 OFFCURVE",
"144 -20 OFFCURVE",
"296 -20 CURVE SMOOTH",
"449 -20 OFFCURVE",
"551 85 OFFCURVE",
"551 248 CURVE SMOOTH",
"551 286 OFFCURVE",
"546 326 OFFCURVE",
"538 368 CURVE",
"474 353 OFFCURVE",
"431 346 OFFCURVE",
"378 346 CURVE SMOOTH",
"335 346 OFFCURVE",
"294 351 OFFCURVE",
"251 359 CURVE",
"270 218 LINE",
"329 243 OFFCURVE",
"395 248 OFFCURVE",
"471 248 CURVE",
"417 278 LINE",
"450 198 OFFCURVE",
"400 119 OFFCURVE",
"316 119 CURVE SMOOTH",
"234 119 OFFCURVE",
"177 178 OFFCURVE",
"177 246 CURVE SMOOTH",
"177 309 OFFCURVE",
"232 458 OFFCURVE",
"232 539 CURVE",
"244 700 LINE",
"139 700 LINE",
"139 500 OFFCURVE",
"35 343 OFFCURVE",
"35 216 CURVE SMOOTH"
);
}
);
width = 602;
}
);
leftKerningGroup = C;
rightKerningGroup = G;
unicode = 0047;
},
{
glyphname = H;
lastChange = "2020-01-02 12:16:38 +0000";
layers = (
{
anchors = (
{
name = bottom;
position = "{336, 0}";
},
{
name = center;
position = "{336, 350}";
},
{
name = top;
position = "{336, 700}";
},
{
name = topleft;
position = "{10, 700}";
}
);
background = {
backgroundImage = {
crop = "{{0, 0}, {177.36, 199}}";
imagePath = "../../Atelier typographique liège/000DOCATELIERFIG/01-CROQUIS/1/H.jpg";
locked = "1";
transform = "{3.82771, 0, 0, 3.82771, -58, -54}";
};
};
layerId = "A956090A-BD7D-40E0-8141-33D8BAD0406F";
paths = (
{
closed = 1;
nodes = (
"203 91 OFFCURVE",
"198 198 OFFCURVE",
"198 304 CURVE SMOOTH",
"198 451 OFFCURVE",
"207 597 OFFCURVE",
"243 700 CURVE",
"135 700 LINE",
"70 540 OFFCURVE",
"45 384 OFFCURVE",
"45 216 CURVE SMOOTH",
"45 142 OFFCURVE",
"53 69 OFFCURVE",
"70 0 CURVE",
"242 0 LINE"
);
},
{
closed = 1;
nodes = (
"601 0 LINE",
"618 69 OFFCURVE",
"626 142 OFFCURVE",
"626 216 CURVE SMOOTH",
"626 384 OFFCURVE",
"601 540 OFFCURVE",
"536 700 CURVE",
"428 700 LINE",
"464 597 OFFCURVE",
"473 451 OFFCURVE",
"473 304 CURVE SMOOTH",
"473 198 OFFCURVE",
"468 91 OFFCURVE",
"429 0 CURVE"
);
},
{
closed = 1;
nodes = (
"122 325 LINE",
"142 233 LINE",
"142 249 OFFCURVE",
"243 256 OFFCURVE",
"337 256 CURVE SMOOTH",
"430 256 OFFCURVE",
"535 249 OFFCURVE",
"535 233 CURVE",
"545 332 LINE",
"535 416 LINE",
"535 368 OFFCURVE",
"416 362 OFFCURVE",
"337 362 CURVE SMOOTH",
"271 362 OFFCURVE",
"142 368 OFFCURVE",
"142 416 CURVE"
);
}
);
width = 671;
},
{
anchors = (
{
name = bottom;
position = "{346, 0}";
},
{
name = center;
position = "{346, 350}";
},
{
name = top;
position = "{346, 700}";
},
{
name = topleft;
position = "{20, 700}";
}
);
associatedMasterId = "A956090A-BD7D-40E0-8141-33D8BAD0406F";
background = {
backgroundImage = {
crop = "{{0, 0}, {177.36, 199}}";
imagePath = "../../Atelier typographique liège/000DOCATELIERFIG/01-CROQUIS/1/H.jpg";
locked = "1";
transform = "{3.82771, 0, 0, 3.82771, -47.969, -53.822}";
};
};
layerId = "A90F20D5-C687-430E-86DA-872F49C5429C";
name = "Feb 21 19, 11:08";
paths = (
{
closed = 1;
nodes = (
"203 91 OFFCURVE",
"188 198 OFFCURVE",
"188 304 CURVE SMOOTH",
"188 451 OFFCURVE",
"207 597 OFFCURVE",
"243 700 CURVE",
"135 700 LINE",
"70 540 OFFCURVE",
"45 384 OFFCURVE",
"45 216 CURVE SMOOTH",
"45 142 OFFCURVE",
"53 69 OFFCURVE",
"70 0 CURVE",
"242 0 LINE"
);
},
{
closed = 1;
nodes = (
"621 0 LINE",
"638 69 OFFCURVE",
"646 142 OFFCURVE",
"646 216 CURVE SMOOTH",
"646 384 OFFCURVE",
"621 540 OFFCURVE",
"556 700 CURVE",
"448 700 LINE",
"484 597 OFFCURVE",
"503 451 OFFCURVE",
"503 304 CURVE SMOOTH",
"503 198 OFFCURVE",
"488 91 OFFCURVE",
"449 0 CURVE"
);
},
{
closed = 1;
nodes = (
"368 461 OFFCURVE",
"390 482 OFFCURVE",
"390 509 CURVE SMOOTH",
"390 535 OFFCURVE",
"368 556 OFFCURVE",
"342 556 CURVE SMOOTH",
"316 556 OFFCURVE",
"295 535 OFFCURVE",
"295 509 CURVE SMOOTH",
"295 482 OFFCURVE",
"316 461 OFFCURVE",
"342 461 CURVE SMOOTH"
);
},
{
closed = 1;
nodes = (
"368 131 OFFCURVE",
"390 152 OFFCURVE",
"390 179 CURVE SMOOTH",
"390 205 OFFCURVE",
"368 226 OFFCURVE",
"342 226 CURVE SMOOTH",
"316 226 OFFCURVE",
"295 205 OFFCURVE",
"295 179 CURVE SMOOTH",
"295 152 OFFCURVE",
"316 131 OFFCURVE",
"342 131 CURVE SMOOTH"
);
},
{
closed = 1;
nodes = (
"178 286 OFFCURVE",
"262 293 OFFCURVE",
"342 293 CURVE SMOOTH",
"426 293 OFFCURVE",
"507 286 OFFCURVE",
"598 265 CURVE",
"598 429 LINE",
"510 410 OFFCURVE",
"431 394 OFFCURVE",
"342 394 CURVE SMOOTH",
"266 394 OFFCURVE",
"180 408 OFFCURVE",
"105 429 CURVE",
"105 265 LINE"
);
}
);
width = 691;
},
{
anchors = (
{
name = bottom;
position = "{346, 0}";
},
{
name = center;
position = "{346, 350}";
},
{
name = top;
position = "{346, 700}";
},
{
name = topleft;
position = "{20, 700}";
}
);
associatedMasterId = "A956090A-BD7D-40E0-8141-33D8BAD0406F";
background = {
backgroundImage = {
crop = "{{0, 0}, {177.36, 199}}";
imagePath = "../../Atelier typographique liège/000DOCATELIERFIG/01-CROQUIS/1/H.jpg";
locked = "1";
transform = "{3.82771, 0, 0, 3.82771, -47.969, -53.822}";
};
};
layerId = "328CB3AD-916F-4E4F-BC08-6383E1657C06";
name = "Feb 21 19, 11:08";
paths = (
{
closed = 1;
nodes = (
"203 91 OFFCURVE",
"188 198 OFFCURVE",
"188 304 CURVE SMOOTH",
"188 451 OFFCURVE",
"207 597 OFFCURVE",
"243 700 CURVE",
"135 700 LINE",
"70 540 OFFCURVE",
"45 384 OFFCURVE",
"45 216 CURVE SMOOTH",
"45 142 OFFCURVE",
"53 69 OFFCURVE",
"70 0 CURVE",
"242 0 LINE"
);
},
{
closed = 1;
nodes = (
"621 0 LINE",
"638 69 OFFCURVE",
"646 142 OFFCURVE",
"646 216 CURVE SMOOTH",
"646 384 OFFCURVE",
"621 540 OFFCURVE",
"556 700 CURVE",
"448 700 LINE",
"484 597 OFFCURVE",
"503 451 OFFCURVE",
"503 304 CURVE SMOOTH",
"503 198 OFFCURVE",
"488 91 OFFCURVE",
"449 0 CURVE"
);
},
{
closed = 1;
nodes = (
"178 286 OFFCURVE",
"262 293 OFFCURVE",
"342 293 CURVE SMOOTH",
"426 293 OFFCURVE",
"507 286 OFFCURVE",
"598 265 CURVE",
"598 429 LINE",
"510 410 OFFCURVE",
"431 394 OFFCURVE",
"342 394 CURVE SMOOTH",
"266 394 OFFCURVE",
"180 408 OFFCURVE",
"105 429 CURVE",
"105 265 LINE"
);
}
);
width = 691;
},
{
anchors = (
{
name = bottom;
position = "{346, 0}";
},
{
name = center;
position = "{346, 350}";
},
{
name = top;
position = "{346, 700}";
},
{
name = topleft;
position = "{20, 700}";
}
);
associatedMasterId = "A956090A-BD7D-40E0-8141-33D8BAD0406F";
background = {
backgroundImage = {
crop = "{{0, 0}, {177.36, 199}}";
imagePath = "../../Atelier typographique liège/000DOCATELIERFIG/01-CROQUIS/1/H.jpg";
locked = "1";
transform = "{3.82771, 0, 0, 3.82771, -47.969, -53.822}";
};
};
layerId = "B30C6F90-7DDA-4FBE-A302-F64F73C53715";
name = "Feb 21 19, 12:32";
paths = (
{
closed = 1;
nodes = (
"203 91 OFFCURVE",
"188 198 OFFCURVE",
"188 304 CURVE SMOOTH",
"188 451 OFFCURVE",
"207 597 OFFCURVE",
"243 700 CURVE",
"135 700 LINE",
"70 540 OFFCURVE",
"45 384 OFFCURVE",
"45 216 CURVE SMOOTH",
"45 142 OFFCURVE",
"53 69 OFFCURVE",
"70 0 CURVE",
"242 0 LINE"
);
},
{
closed = 1;
nodes = (
"621 0 LINE",
"638 69 OFFCURVE",
"646 142 OFFCURVE",
"646 216 CURVE SMOOTH",
"646 384 OFFCURVE",
"621 540 OFFCURVE",
"556 700 CURVE",
"448 700 LINE",
"484 597 OFFCURVE",
"503 451 OFFCURVE",
"503 304 CURVE SMOOTH",
"503 198 OFFCURVE",
"488 91 OFFCURVE",
"449 0 CURVE"
);
},
{
closed = 1;
nodes = (
"178 286 OFFCURVE",
"262 293 OFFCURVE",
"342 293 CURVE SMOOTH",
"426 293 OFFCURVE",
"507 286 OFFCURVE",
"598 265 CURVE",
"598 434 LINE",
"510 415 OFFCURVE",
"431 399 OFFCURVE",
"342 399 CURVE SMOOTH",
"266 399 OFFCURVE",
"180 413 OFFCURVE",
"105 434 CURVE",
"105 265 LINE"
);
}
);
width = 691;
}
);
leftKerningGroup = H;
rightKerningGroup = H;
unicode = 0048;
},
{
glyphname = I;
lastChange = "2020-01-06 09:20:59 +0000";
layers = (
{
anchors = (
{
name = bottom;
position = "{146, 0}";
},
{
name = ogonek;
position = "{265, 10}";
},
{
name = top;
position = "{166, 700}";
},
{
name = topleft;
position = "{17, 700}";
}
);
background = {
backgroundImage = {
crop = "{{0, 0}, {170.16, 199}}";
imagePath = "../../Atelier typographique liège/000DOCATELIERFIG/01-CROQUIS/2/I.jpg";
locked = "1";
transform = "{3.82551, 0, 0, 3.82551, -183, -57}";
};
};
layerId = "A956090A-BD7D-40E0-8141-33D8BAD0406F";
paths = (
{
closed = 1;
nodes = (
"110 700 LINE",
"78 633 OFFCURVE",
"52 553 OFFCURVE",
"52 473 CURVE SMOOTH",
"52 385 OFFCURVE",
"96 279 OFFCURVE",
"96 189 CURVE SMOOTH",
"96 123 OFFCURVE",
"80 78 OFFCURVE",
"45 0 CURVE",
"217 0 LINE",
"237 48 OFFCURVE",
"247 93 OFFCURVE",
"247 145 CURVE SMOOTH",
"247 308 OFFCURVE",
"177 327 OFFCURVE",
"177 492 CURVE SMOOTH",
"177 563 OFFCURVE",
"191 635 OFFCURVE",
"222 700 CURVE"
);
}
);
width = 292;
}
);
leftKerningGroup = I;
rightKerningGroup = I;
unicode = 0049;
},
{
glyphname = J;
lastChange = "2020-01-02 11:34:55 +0000";
layers = (
{
anchors = (
{
name = bottom;
position = "{305, 0}";
},
{
name = top;
position = "{305, 700}";
}
);
background = {
backgroundImage = {
crop = "{{0, 0}, {171.36, 212.16}}";
imagePath = "../../Atelier typographique liège/000DOCATELIERFIG/01-CROQUIS/3/J.jpg";
locked = "1";
transform = "{3.78704, 0, 0, 3.78704, -77, -53}";
};
};
guideLines = (
{
position = "{195, 595}";
}
);
layerId = "A956090A-BD7D-40E0-8141-33D8BAD0406F";
paths = (
{
closed = 1;
nodes = (
"561 306 OFFCURVE",
"508 412 OFFCURVE",
"478 537 CURVE SMOOTH",
"471 566 OFFCURVE",
"473 586 OFFCURVE",
"487 586 CURVE",
"477 700 LINE",
"352 700 LINE",
"352 581 LINE",
"337 567 OFFCURVE",
"339 548 OFFCURVE",
"347 518 CURVE SMOOTH",
"370 423 OFFCURVE",
"419 294 OFFCURVE",
"419 246 CURVE SMOOTH",
"419 171 OFFCURVE",
"373 119 OFFCURVE",
"305 119 CURVE SMOOTH",
"276 119 OFFCURVE",
"243 132 OFFCURVE",
"224 163 CURVE SMOOTH",
"204 196 OFFCURVE",
"203 222 OFFCURVE",
"202 250 CURVE SMOOTH",
"201 274 OFFCURVE",
"200 300 OFFCURVE",
"187 337 CURVE",
"25 358 LINE",
"44 320 OFFCURVE",
"49 279 OFFCURVE",
"49 233 CURVE SMOOTH",
"49 133 OFFCURVE",
"117 -20 OFFCURVE",
"305 -20 CURVE SMOOTH",
"457 -20 OFFCURVE",
"561 99 OFFCURVE",
"561 216 CURVE SMOOTH"
);
},
{
closed = 1;
nodes = (
"25 556 LINE",
"43 545 OFFCURVE",
"87 538 OFFCURVE",
"127 538 CURVE SMOOTH",
"248 538 OFFCURVE",
"332 595 OFFCURVE",
"424 595 CURVE SMOOTH",
"501 595 OFFCURVE",
"555 556 OFFCURVE",
"576 538 CURVE",
"576 688 LINE",
"552 703 OFFCURVE",
"490 710 OFFCURVE",
"443 710 CURVE SMOOTH",
"332 710 OFFCURVE",
"221 680 OFFCURVE",
"130 680 CURVE SMOOTH",
"88 680 OFFCURVE",
"57 687 OFFCURVE",
"25 706 CURVE"
);
}
);
width = 591;
},
{
anchors = (
{
name = bottom;
position = "{297, 0}";
},
{
name = top;
position = "{297, 700}";
}
);
associatedMasterId = "A956090A-BD7D-40E0-8141-33D8BAD0406F";
background = {
backgroundImage = {
crop = "{{0, 0}, {171.36, 212.16}}";
imagePath = "../../Atelier typographique liège/000DOCATELIERFIG/01-CROQUIS/3/J.jpg";
locked = "1";
transform = "{3.78704, 0, 0, 3.78704, -72, -53}";
};
};
layerId = "EFA7672B-F241-49D5-9B10-7F9CB1FDBC39";
name = "Feb 21 19, 18:55";
paths = (
{
closed = 1;
nodes = (
"410 233 LINE",
"410 237 OFFCURVE",
"410 242 OFFCURVE",
"410 246 CURVE SMOOTH",
"410 265 OFFCURVE",
"414 303 OFFCURVE",
"425 327 CURVE",
"571 358 LINE",
"546 320 OFFCURVE",
"547 279 OFFCURVE",
"547 233 CURVE"
);
},
{
closed = 1;
nodes = (
"139 700 LINE",
"139 500 OFFCURVE",
"35 343 OFFCURVE",
"35 216 CURVE SMOOTH",
"35 99 OFFCURVE",
"139 -20 OFFCURVE",
"291 -20 CURVE SMOOTH",
"479 -20 OFFCURVE",
"546 133 OFFCURVE",
"547 233 CURVE",
"410 233 LINE",
"403 181 OFFCURVE",
"379 119 OFFCURVE",
"306 119 CURVE SMOOTH",
"224 119 OFFCURVE",
"177 178 OFFCURVE",
"177 246 CURVE SMOOTH",
"177 309 OFFCURVE",
"232 450 OFFCURVE",
"232 531 CURVE",
"244 700 LINE"
);
},
{
closed = 1;
nodes = (
"288 489 OFFCURVE",
"357 462 OFFCURVE",
"435 462 CURVE SMOOTH",
"472 462 OFFCURVE",
"518 470 OFFCURVE",
"567 499 CURVE",
"522 630 LINE",
"486 608 OFFCURVE",
"459 595 OFFCURVE",
"401 595 CURVE SMOOTH",
"325 595 OFFCURVE",
"244 633 OFFCURVE",
"244 700 CURVE",
"182 700 LINE",
"181 500 LINE",
"237 534 LINE"
);
}
);
width = 614;
},
{
anchors = (
{
name = bottom;
position = "{310, 0}";
},
{
name = top;
position = "{310, 700}";
}
);
associatedMasterId = "A956090A-BD7D-40E0-8141-33D8BAD0406F";
background = {
backgroundImage = {
crop = "{{0, 0}, {171.36, 212.16}}";
imagePath = "../../Atelier typographique liège/000DOCATELIERFIG/01-CROQUIS/3/J.jpg";
locked = "1";
transform = "{3.78704, 0, 0, 3.78704, -72, -53}";
};
};
guideLines = (
{
position = "{200, 595}";
}
);
layerId = "A7A696DF-842B-45FB-B999-3E0A72349E44";
name = "Jan 2 20, 11:28";
paths = (
{
closed = 1;
nodes = (
"420 500 LINE",
"419 700 LINE",
"357 700 LINE",
"357 633 OFFCURVE",
"276 595 OFFCURVE",
"200 595 CURVE SMOOTH",
"142 595 OFFCURVE",
"115 608 OFFCURVE",
"79 630 CURVE",
"34 499 LINE",
"83 470 OFFCURVE",
"129 462 OFFCURVE",
"166 462 CURVE SMOOTH",
"244 462 OFFCURVE",
"314 489 OFFCURVE",
"365 534 CURVE"
);
},
{
closed = 1;
nodes = (
"566 343 OFFCURVE",
"462 500 OFFCURVE",
"462 700 CURVE",
"357 700 LINE",
"369 531 LINE",
"369 450 OFFCURVE",
"424 309 OFFCURVE",
"424 246 CURVE SMOOTH",
"424 171 OFFCURVE",
"378 119 OFFCURVE",
"310 119 CURVE SMOOTH",
"281 119 OFFCURVE",
"248 132 OFFCURVE",
"229 163 CURVE SMOOTH",
"209 196 OFFCURVE",
"208 222 OFFCURVE",
"207 250 CURVE SMOOTH",
"206 274 OFFCURVE",
"205 300 OFFCURVE",
"192 337 CURVE",
"30 358 LINE",
"49 320 OFFCURVE",
"54 279 OFFCURVE",
"54 233 CURVE SMOOTH",
"54 133 OFFCURVE",
"122 -20 OFFCURVE",
"310 -20 CURVE SMOOTH",
"462 -20 OFFCURVE",
"566 99 OFFCURVE",
"566 216 CURVE SMOOTH"
);
},
{
closed = 1;
nodes = (
"614 595 LINE",
"544 595 OFFCURVE",
"462 645 OFFCURVE",
"462 700 CURVE",
"391 700 LINE",
"391 529 LINE",
"428 502 LINE",
"488 535 LINE",
"514 493 OFFCURVE",
"537 476 OFFCURVE",
"591 465 CURVE"
);
}
);
width = 619;
},
{
anchors = (
{
name = bottom;
position = "{310, 0}";
},
{
name = top;
position = "{310, 700}";
}
);
associatedMasterId = "A956090A-BD7D-40E0-8141-33D8BAD0406F";
background = {
backgroundImage = {
crop = "{{0, 0}, {171.36, 212.16}}";
imagePath = "../../Atelier typographique liège/000DOCATELIERFIG/01-CROQUIS/3/J.jpg";
locked = "1";
transform = "{3.78704, 0, 0, 3.78704, -72, -53}";
};
};
guideLines = (
{
position = "{200, 595}";
}
);
layerId = "5DA77255-FC6A-4F34-86C1-7D0FA7D99AA8";
name = "Jan 2 20, 11:32";
paths = (
{
closed = 1;
nodes = (
"566 343 OFFCURVE",
"462 500 OFFCURVE",
"462 700 CURVE",
"357 700 LINE",
"339 595 LINE",
"339 514 OFFCURVE",
"424 309 OFFCURVE",
"424 246 CURVE SMOOTH",
"424 171 OFFCURVE",
"378 119 OFFCURVE",
"310 119 CURVE SMOOTH",
"281 119 OFFCURVE",
"248 132 OFFCURVE",
"229 163 CURVE SMOOTH",
"209 196 OFFCURVE",
"208 222 OFFCURVE",
"207 250 CURVE SMOOTH",
"206 274 OFFCURVE",
"205 300 OFFCURVE",
"192 337 CURVE",
"30 358 LINE",
"49 320 OFFCURVE",
"54 279 OFFCURVE",
"54 233 CURVE SMOOTH",
"54 133 OFFCURVE",
"122 -20 OFFCURVE",
"310 -20 CURVE SMOOTH",
"462 -20 OFFCURVE",
"566 99 OFFCURVE",
"566 216 CURVE SMOOTH"
);
},
{
closed = 1;
nodes = (
"25 556 LINE",
"43 545 OFFCURVE",
"87 538 OFFCURVE",
"127 538 CURVE SMOOTH",
"248 538 OFFCURVE",
"337 588 OFFCURVE",
"429 588 CURVE SMOOTH",
"506 588 OFFCURVE",
"560 556 OFFCURVE",
"581 538 CURVE",
"581 688 LINE",
"557 703 OFFCURVE",
"495 710 OFFCURVE",
"448 710 CURVE SMOOTH",
"337 710 OFFCURVE",
"221 680 OFFCURVE",
"130 680 CURVE SMOOTH",
"88 680 OFFCURVE",
"57 687 OFFCURVE",
"25 706 CURVE"
);
}
);
width = 596;
}
);
unicode = 004A;
},
{
glyphname = K;
lastChange = "2020-01-05 22:15:52 +0000";
layers = (
{
anchors = (
{
name = bottom;
position = "{319, 0}";
},
{
name = top;
position = "{319, 700}";
}
);
background = {
backgroundImage = {
crop = "{{0, 0}, {163, 198.48}}";
imagePath = "../../Atelier typographique liège/000DOCATELIERFIG/01-CROQUIS/2/K.jpg";
locked = "1";
transform = "{3.79521, 0, 0, 3.79521, 40, -53}";
};
};
layerId = "A956090A-BD7D-40E0-8141-33D8BAD0406F";
paths = (
{
closed = 1;
nodes = (
"206 73 OFFCURVE",
"190 144 OFFCURVE",
"185 234 CURVE SMOOTH",
"184 256 OFFCURVE",
"183 279 OFFCURVE",
"183 304 CURVE SMOOTH",
"183 431 OFFCURVE",
"202 597 OFFCURVE",
"238 700 CURVE",
"179 700 OFFCURVE",
"163 700 OFFCURVE",
"135 700 CURVE",
"80 540 OFFCURVE",
"45 384 OFFCURVE",
"45 216 CURVE SMOOTH",
"45 142 OFFCURVE",
"53 69 OFFCURVE",
"70 0 CURVE",
"237 0 LINE"
);
},
{
closed = 1;
nodes = (
"399 649 OFFCURVE",
"420 601 OFFCURVE",
"420 547 CURVE SMOOTH",
"420 440 OFFCURVE",
"294 375 OFFCURVE",
"111 379 CURVE",
"185 234 LINE",
"185 261 OFFCURVE",
"204 269 OFFCURVE",
"246 277 CURVE SMOOTH",
"326 293 OFFCURVE",
"394 320 OFFCURVE",
"447 356 CURVE SMOOTH",
"521 407 OFFCURVE",
"564 473 OFFCURVE",
"564 545 CURVE SMOOTH",
"564 608 OFFCURVE",
"550 653 OFFCURVE",
"519 700 CURVE",
"354 700 LINE"
);
},
{
closed = 1;
nodes = (
"341 303 LINE",
"344 300 LINE",
"342 297 OFFCURVE",
"342 294 OFFCURVE",
"342 290 CURVE SMOOTH",
"342 222 OFFCURVE",
"448 191 OFFCURVE",
"448 129 CURVE SMOOTH",
"448 89 OFFCURVE",
"426 42 OFFCURVE",
"401 0 CURVE",
"554 0 LINE",
"578 35 OFFCURVE",
"592 74 OFFCURVE",
"592 112 CURVE SMOOTH",
"592 186 OFFCURVE",
"547 241 OFFCURVE",
"471 295 CURVE SMOOTH",
"443 315 OFFCURVE",
"436 347 OFFCURVE",
"447 356 CURVE",
"443 404 LINE",
"341 404 LINE"
);
}
);
width = 627;
},
{
associatedMasterId = "A956090A-BD7D-40E0-8141-33D8BAD0406F";
background = {
backgroundImage = {
crop = "{{0, 0}, {163, 198.48}}";
imagePath = "../../Atelier typographique liège/000DOCATELIERFIG/01-CROQUIS/2/K.jpg";
locked = "1";
transform = "{3.79521, 0, 0, 3.79521, 40, -53}";
};
paths = (
{
closed = 1;
nodes = (
"223 91 OFFCURVE",
"208 198 OFFCURVE",
"208 304 CURVE SMOOTH",
"208 451 OFFCURVE",
"227 597 OFFCURVE",
"263 700 CURVE",
"204 700 OFFCURVE",
"188 700 OFFCURVE",
"160 700 CURVE",
"105 540 OFFCURVE",
"70 384 OFFCURVE",
"70 216 CURVE SMOOTH",
"70 142 OFFCURVE",
"78 69 OFFCURVE",
"95 0 CURVE",
"262 0 LINE"
);
},
{
closed = 1;
nodes = (
"412 663 OFFCURVE",
"444 606 OFFCURVE",
"444 557 CURVE SMOOTH",
"444 483 OFFCURVE",
"329 395 OFFCURVE",
"136 399 CURVE",
"136 272 LINE",
"405 301 OFFCURVE",
"589 414 OFFCURVE",
"589 565 CURVE SMOOTH",
"589 608 OFFCURVE",
"575 653 OFFCURVE",
"544 700 CURVE",
"379 700 LINE"
);
}
);
};
layerId = "7FE18D86-FF4C-48D9-A9B3-17CF305B6447";
name = "Feb 16 19, 19:09";
width = 600;
},
{
associatedMasterId = "A956090A-BD7D-40E0-8141-33D8BAD0406F";
background = {
backgroundImage = {
crop = "{{0, 0}, {163, 198.48}}";
imagePath = "../../Atelier typographique liège/000DOCATELIERFIG/01-CROQUIS/2/K.jpg";
locked = "1";
transform = "{3.79521, 0, 0, 3.79521, 40, -53}";
};
};
layerId = "BD354754-A593-425B-9ABF-FF5DE4EBA6A5";
name = "Feb 16 19, 19:12";
paths = (
{
closed = 1;
nodes = (
"193 91 OFFCURVE",
"178 198 OFFCURVE",
"178 304 CURVE SMOOTH",
"178 451 OFFCURVE",
"197 597 OFFCURVE",
"233 700 CURVE",
"174 700 OFFCURVE",
"158 700 OFFCURVE",
"130 700 CURVE",
"75 540 OFFCURVE",
"40 384 OFFCURVE",
"40 216 CURVE SMOOTH",
"40 142 OFFCURVE",
"48 69 OFFCURVE",
"65 0 CURVE",
"232 0 LINE"
);
},
{
closed = 1;
nodes = (
"382 663 OFFCURVE",
"414 606 OFFCURVE",
"414 557 CURVE SMOOTH",
"414 483 OFFCURVE",
"299 395 OFFCURVE",
"106 399 CURVE",
"106 282 LINE",
"375 291 OFFCURVE",
"559 414 OFFCURVE",
"559 565 CURVE SMOOTH",
"559 608 OFFCURVE",
"545 653 OFFCURVE",
"514 700 CURVE",
"349 700 LINE"
);
},
{
closed = 1;
nodes = (
"222 350 LINE",
"374 270 OFFCURVE",
"433 217 OFFCURVE",
"433 149 CURVE SMOOTH",
"433 109 OFFCURVE",
"411 65 OFFCURVE",
"376 0 CURVE",
"549 0 LINE",
"571 42 OFFCURVE",
"593 84 OFFCURVE",
"593 127 CURVE SMOOTH",
"593 265 OFFCURVE",
"507 331 OFFCURVE",
"323 423 CURVE"
);
}
);
width = 623;
},
{
anchors = (
{
name = bottom;
position = "{319, 0}";
},
{
name = top;
position = "{319, 700}";
}
);
associatedMasterId = "A956090A-BD7D-40E0-8141-33D8BAD0406F";
background = {
backgroundImage = {
crop = "{{0, 0}, {163, 198.48}}";
imagePath = "../../Atelier typographique liège/000DOCATELIERFIG/01-CROQUIS/2/K.jpg";
locked = "1";
transform = "{3.79521, 0, 0, 3.79521, 40, -53}";
};
};
layerId = "5FCB350C-75F4-40D1-A8CF-D2DC9A171B1F";
name = "Jan 2 20, 12:35";
paths = (
{
closed = 1;
nodes = (
"198 91 OFFCURVE",
"183 178 OFFCURVE",
"183 304 CURVE SMOOTH",
"183 431 OFFCURVE",
"202 597 OFFCURVE",
"238 700 CURVE",
"179 700 OFFCURVE",
"163 700 OFFCURVE",
"135 700 CURVE",
"80 540 OFFCURVE",
"45 384 OFFCURVE",
"45 216 CURVE SMOOTH",
"45 142 OFFCURVE",
"53 69 OFFCURVE",
"70 0 CURVE",
"237 0 LINE"
);
},
{
closed = 1;
nodes = (
"399 649 OFFCURVE",
"420 601 OFFCURVE",
"420 547 CURVE SMOOTH",
"420 440 OFFCURVE",
"294 375 OFFCURVE",
"111 379 CURVE",
"111 262 LINE",
"251 267 OFFCURVE",
"367 301 OFFCURVE",
"447 356 CURVE SMOOTH",
"521 407 OFFCURVE",
"564 473 OFFCURVE",
"564 545 CURVE SMOOTH",
"564 608 OFFCURVE",
"550 653 OFFCURVE",
"519 700 CURVE",
"354 700 LINE"
);
},
{
closed = 1;
nodes = (
"341 303 LINE",
"344 300 LINE",
"342 297 OFFCURVE",
"342 294 OFFCURVE",
"342 290 CURVE SMOOTH",
"342 252 OFFCURVE",
"428 191 OFFCURVE",
"428 129 CURVE SMOOTH",
"428 89 OFFCURVE",
"406 42 OFFCURVE",
"381 0 CURVE",
"554 0 LINE",
"578 35 OFFCURVE",
"590 74 OFFCURVE",
"590 112 CURVE SMOOTH",
"590 186 OFFCURVE",
"547 261 OFFCURVE",
"471 315 CURVE SMOOTH",
"443 335 OFFCURVE",
"436 347 OFFCURVE",
"447 356 CURVE",
"443 404 LINE",
"341 404 LINE"
);
}
);
width = 630;
}
);
leftKerningGroup = H;
rightKerningGroup = K;
unicode = 004B;
},
{
glyphname = L;
lastChange = "2020-03-12 09:39:39 +0000";
layers = (
{
anchors = (
{
name = bottom;
position = "{296, 0}";
},
{
name = center;
position = "{296, 350}";
},
{
name = top;
position = "{296, 700}";
},
{
name = topright;
position = "{511, 700}";
}
);
background = {
backgroundImage = {
crop = "{{0, 0}, {185.28, 198.72}}";
imagePath = "../../Atelier typographique liège/000DOCATELIERFIG/01-CROQUIS/5/L.jpg";
locked = "1";
transform = "{3.79189, 0, 0, 3.79189, 14, -53}";
};
};
layerId = "A956090A-BD7D-40E0-8141-33D8BAD0406F";
paths = (
{
closed = 1;
nodes = (
"318 111 OFFCURVE",
"195 101 OFFCURVE",
"70 101 CURVE",
"70 0 LINE",
"511 0 LINE",
"462 153 LINE"
);
},
{
closed = 1;
nodes = (
"203 91 OFFCURVE",
"188 198 OFFCURVE",
"188 304 CURVE SMOOTH",
"188 451 OFFCURVE",
"207 597 OFFCURVE",
"243 700 CURVE",
"135 700 LINE",
"70 540 OFFCURVE",
"45 384 OFFCURVE",
"45 216 CURVE SMOOTH",
"45 142 OFFCURVE",
"53 69 OFFCURVE",
"70 0 CURVE",
"242 0 LINE"
);
}
);
width = 536;
},
{
associatedMasterId = "A956090A-BD7D-40E0-8141-33D8BAD0406F";
background = {
backgroundImage = {
crop = "{{0, 0}, {185.28, 198.72}}";
imagePath = "../../Atelier typographique liège/000DOCATELIERFIG/01-CROQUIS/5/L.jpg";
locked = "1";
transform = "{3.79189, 0, 0, 3.79189, 14, -53}";
};
};
layerId = "40912F70-7A3F-4764-8A42-2BFEE1D78760";
name = "Feb 15 19, 21:20";
paths = (
{
closed = 1;
nodes = (
"483 243 OFFCURVE",
"518 184 OFFCURVE",
"518 157 CURVE SMOOTH",
"518 130 OFFCURVE",
"502 90 OFFCURVE",
"450 90 CURVE SMOOTH",
"376 90 OFFCURVE",
"338 133 OFFCURVE",
"266 133 CURVE SMOOTH",
"154 133 OFFCURVE",
"65 51 OFFCURVE",
"65 0 CURVE",
"232 0 LINE",
"232 16 OFFCURVE",
"240 37 OFFCURVE",
"266 37 CURVE SMOOTH",
"308 37 OFFCURVE",
"388 -18 OFFCURVE",
"486 -18 CURVE SMOOTH",
"574 -18 OFFCURVE",
"616 70 OFFCURVE",
"618 134 CURVE SMOOTH",
"620 198 OFFCURVE",
"595 285 OFFCURVE",
"502 318 CURVE",
"435 255 LINE"
);
},
{
closed = 1;
nodes = (
"193 91 OFFCURVE",
"178 198 OFFCURVE",
"178 304 CURVE SMOOTH",
"178 451 OFFCURVE",
"197 597 OFFCURVE",
"233 700 CURVE",
"174 700 OFFCURVE",
"158 700 OFFCURVE",
"130 700 CURVE",
"75 540 OFFCURVE",
"40 384 OFFCURVE",
"40 216 CURVE SMOOTH",
"40 142 OFFCURVE",
"48 69 OFFCURVE",
"65 0 CURVE",
"232 0 LINE"
);
}
);
width = 600;
}
);
leftKerningGroup = H;
rightKerningGroup = L;
unicode = 004C;
},
{
glyphname = Ldot;
lastChange = "2020-01-05 21:39:43 +0000";
layers = (
{
anchors = (
{
name = bottom;
position = "{296, 0}";
},
{
name = center;
position = "{296, 350}";
},
{
name = top;
position = "{296, 700}";
},
{
name = topright;
position = "{571, 700}";
}
);
components = (
{
name = L;
}
);
layerId = "A956090A-BD7D-40E0-8141-33D8BAD0406F";
paths = (
{
closed = 1;
nodes = (
"379 260 OFFCURVE",
"410 289 OFFCURVE",
"410 324 CURVE SMOOTH",
"410 360 OFFCURVE",
"379 391 OFFCURVE",
"344 390 CURVE SMOOTH",
"308 389 OFFCURVE",
"280 360 OFFCURVE",
"280 324 CURVE SMOOTH",
"280 289 OFFCURVE",
"308 260 OFFCURVE",
"344 260 CURVE SMOOTH"
);
}
);
width = 536;
}
);
unicode = 013F;
},
{
glyphname = M;
lastChange = "2020-01-06 09:24:47 +0000";
layers = (
{
associatedMasterId = "A956090A-BD7D-40E0-8141-33D8BAD0406F";
background = {
backgroundImage = {
crop = "{{0, 0}, {227.52, 198.48}}";
imagePath = "../../Atelier typographique liège/000DOCATELIERFIG/01-CROQUIS/3/M.jpg";
locked = "1";
transform = "{3.782, 0, 0, 3.782, -57, -51}";
};
paths = (
{
closed = 1;
nodes = (
"363 97 OFFCURVE",
"262 234 OFFCURVE",
"262 425 CURVE SMOOTH",
"262 507 OFFCURVE",
"280 598 OFFCURVE",
"328 700 CURVE",
"172 700 LINE",
"125 593 OFFCURVE",
"103 507 OFFCURVE",
"103 430 CURVE SMOOTH",
"103 285 OFFCURVE",
"171 170 OFFCURVE",
"317 0 CURVE",
"430 -1 LINE"
);
},
{
closed = 1;
nodes = (
"507 700 LINE",
"489 641 OFFCURVE",
"482 592 OFFCURVE",
"482 549 CURVE SMOOTH",
"482 351 OFFCURVE",
"637 291 OFFCURVE",
"637 125 CURVE SMOOTH",
"637 87 OFFCURVE",
"617 38 OFFCURVE",
"571 -1 CURVE",
"752 4 LINE",
"787 54 OFFCURVE",
"801 97 OFFCURVE",
"801 136 CURVE SMOOTH",
"801 292 OFFCURVE",
"572 381 OFFCURVE",
"572 600 CURVE SMOOTH",
"572 631 OFFCURVE",
"577 664 OFFCURVE",
"587 700 CURVE"
);
},
{
closed = 1;
nodes = (
"173 654 OFFCURVE",
"173 624 OFFCURVE",
"173 600 CURVE SMOOTH",
"173 381 OFFCURVE",
"-52 292 OFFCURVE",
"-52 136 CURVE SMOOTH",
"-52 97 OFFCURVE",
"-38 54 OFFCURVE",
"-3 4 CURVE",
"178 -1 LINE",
"132 38 OFFCURVE",
"112 87 OFFCURVE",
"112 125 CURVE SMOOTH",
"112 291 OFFCURVE",
"267 351 OFFCURVE",
"267 549 CURVE SMOOTH",
"267 592 OFFCURVE",
"262 631 OFFCURVE",
"262 700 CURVE SMOOTH",
"173 700 LINE"
);
}
);
};
layerId = "C1DC39FD-0EFF-444D-BAE4-3EBAE4EE8C00";
name = "Feb 15 19, 21:33";
width = 600;
},
{
associatedMasterId = "A956090A-BD7D-40E0-8141-33D8BAD0406F";
background = {
backgroundImage = {
crop = "{{0, 0}, {227.52, 198.48}}";
imagePath = "../../Atelier typographique liège/000DOCATELIERFIG/01-CROQUIS/3/M.jpg";
locked = "1";
transform = "{3.782, 0, 0, 3.782, -57, -51}";
};
};
layerId = "8B7FA945-EE06-4426-849F-63B5B38E674F";
name = "Feb 15 19, 23:19";
paths = (
{
closed = 1;
nodes = (
"445 95 OFFCURVE",
"344 234 OFFCURVE",
"344 425 CURVE SMOOTH",
"344 507 OFFCURVE",
"362 598 OFFCURVE",
"410 700 CURVE",
"254 700 LINE",
"207 593 OFFCURVE",
"185 507 OFFCURVE",
"185 430 CURVE SMOOTH",
"185 285 OFFCURVE",
"253 168 OFFCURVE",
"399 0 CURVE",
"512 0 LINE"
);
},
{
closed = 1;
nodes = (
"255 654 OFFCURVE",
"255 624 OFFCURVE",
"255 600 CURVE SMOOTH",
"255 381 OFFCURVE",
"30 292 OFFCURVE",
"30 136 CURVE SMOOTH",
"30 97 OFFCURVE",
"44 52 OFFCURVE",
"79 0 CURVE",
"260 0 LINE",
"214 36 OFFCURVE",
"194 87 OFFCURVE",
"194 125 CURVE SMOOTH",
"194 291 OFFCURVE",
"339 351 OFFCURVE",
"337 549 CURVE SMOOTH",
"339 592 OFFCURVE",
"337 638 OFFCURVE",
"337 700 CURVE",
"255 700 LINE"
);
},
{
closed = 1;
nodes = (
"512 0 LINE",
"658 168 OFFCURVE",
"726 285 OFFCURVE",
"726 430 CURVE SMOOTH",
"726 507 OFFCURVE",
"704 593 OFFCURVE",
"657 700 CURVE",
"501 700 LINE",
"549 598 OFFCURVE",
"567 507 OFFCURVE",
"567 425 CURVE SMOOTH",
"567 234 OFFCURVE",
"466 95 OFFCURVE",
"399 0 CURVE"
);
},
{
closed = 1;
nodes = (
"574 700 LINE",
"574 638 OFFCURVE",
"574 592 OFFCURVE",
"574 549 CURVE SMOOTH",
"574 351 OFFCURVE",
"717 291 OFFCURVE",
"717 125 CURVE SMOOTH",
"717 87 OFFCURVE",
"697 36 OFFCURVE",
"651 0 CURVE",
"832 0 LINE",
"867 52 OFFCURVE",
"881 97 OFFCURVE",
"881 136 CURVE SMOOTH",
"881 292 OFFCURVE",
"656 381 OFFCURVE",
"656 600 CURVE SMOOTH",
"656 624 OFFCURVE",
"656 654 OFFCURVE",
"656 700 CURVE"
);
}
);
width = 911;
},
{
associatedMasterId = "A956090A-BD7D-40E0-8141-33D8BAD0406F";
background = {
backgroundImage = {
crop = "{{0, 0}, {227.52, 198.48}}";
imagePath = "../../Atelier typographique liège/000DOCATELIERFIG/01-CROQUIS/3/M.jpg";
locked = "1";
transform = "{3.782, 0, 0, 3.782, -57, -51}";
};
};
layerId = "E6E83CD8-A6CB-42D0-B41B-A48D105E6266";
name = "Feb 17 19, 11:14";
paths = (
{
closed = 1;
nodes = (
"512 113 OFFCURVE",
"344 234 OFFCURVE",
"344 425 CURVE SMOOTH",
"344 507 OFFCURVE",
"362 598 OFFCURVE",
"410 700 CURVE",
"254 700 LINE",
"207 593 OFFCURVE",
"185 507 OFFCURVE",
"185 430 CURVE SMOOTH",
"185 285 OFFCURVE",
"389 113 OFFCURVE",
"389 0 CURVE",
"512 0 LINE"
);
},
{
closed = 1;
nodes = (
"255 654 OFFCURVE",
"185 454 OFFCURVE",
"185 430 CURVE SMOOTH",
"185 381 OFFCURVE",
"30 242 OFFCURVE",
"30 136 CURVE SMOOTH",
"30 97 OFFCURVE",
"44 52 OFFCURVE",
"79 0 CURVE",
"260 0 LINE",
"214 36 OFFCURVE",
"194 87 OFFCURVE",
"194 125 CURVE SMOOTH",
"194 291 OFFCURVE",
"339 351 OFFCURVE",
"337 549 CURVE SMOOTH",
"339 592 OFFCURVE",
"337 638 OFFCURVE",
"337 700 CURVE",
"255 700 LINE"
);
},
{
closed = 1;
nodes = (
"564 700 LINE",
"564 638 OFFCURVE",
"564 592 OFFCURVE",
"564 549 CURVE SMOOTH",
"564 351 OFFCURVE",
"707 291 OFFCURVE",
"707 125 CURVE SMOOTH",
"707 87 OFFCURVE",
"687 36 OFFCURVE",
"641 0 CURVE",
"822 0 LINE",
"857 52 OFFCURVE",
"871 97 OFFCURVE",
"871 136 CURVE SMOOTH",
"871 242 OFFCURVE",
"716 381 OFFCURVE",
"716 430 CURVE SMOOTH",
"716 454 OFFCURVE",
"646 654 OFFCURVE",
"646 700 CURVE"
);
},
{
closed = 1;
nodes = (
"512 0 LINE",
"512 113 OFFCURVE",
"716 285 OFFCURVE",
"716 430 CURVE SMOOTH",
"716 507 OFFCURVE",
"694 593 OFFCURVE",
"647 700 CURVE",
"491 700 LINE",
"539 598 OFFCURVE",
"557 507 OFFCURVE",
"557 425 CURVE SMOOTH",
"557 234 OFFCURVE",
"389 113 OFFCURVE",
"389 0 CURVE"
);
}
);
width = 901;
},
{
anchors = (
{
name = bottom;
position = "{458, 0}";
},
{
name = top;
position = "{458, 700}";
}
);
background = {
backgroundImage = {
crop = "{{0, 0}, {227.52, 198.48}}";
imagePath = "../../Atelier typographique liège/000DOCATELIERFIG/01-CROQUIS/3/M.jpg";
locked = "1";
transform = "{3.782, 0, 0, 3.782, -67, -51}";
};
};
layerId = "A956090A-BD7D-40E0-8141-33D8BAD0406F";
paths = (
{
closed = 1;
nodes = (
"35 97 OFFCURVE",
"49 52 OFFCURVE",
"84 0 CURVE",
"265 0 LINE",
"219 36 OFFCURVE",
"199 87 OFFCURVE",
"199 125 CURVE SMOOTH",
"199 186 OFFCURVE",
"229 203 OFFCURVE",
"244 278 CURVE",
"248 278 LINE",
"298 176 OFFCURVE",
"394 74 OFFCURVE",
"394 0 CURVE",
"522 0 LINE",
"522 74 OFFCURVE",
"618 176 OFFCURVE",
"668 278 CURVE",
"672 278 LINE",
"687 203 OFFCURVE",
"717 186 OFFCURVE",
"717 125 CURVE SMOOTH",
"717 87 OFFCURVE",
"697 36 OFFCURVE",
"651 0 CURVE",
"832 0 LINE",
"867 52 OFFCURVE",
"881 97 OFFCURVE",
"881 136 CURVE SMOOTH",
"881 242 OFFCURVE",
"720 345 OFFCURVE",
"724 394 CURVE SMOOTH",
"725 407 OFFCURVE",
"725 419 OFFCURVE",
"725 431 CURVE SMOOTH",
"725 503 OFFCURVE",
"711 578 OFFCURVE",
"657 700 CURVE",
"501 700 LINE",
"549 598 OFFCURVE",
"567 507 OFFCURVE",
"567 425 CURVE SMOOTH",
"567 301 OFFCURVE",
"493 207 OFFCURVE",
"463 124 CURVE",
"457 124 LINE",
"428 207 OFFCURVE",
"354 301 OFFCURVE",
"354 425 CURVE SMOOTH",
"354 507 OFFCURVE",
"372 598 OFFCURVE",
"420 700 CURVE",
"259 700 LINE",
"205 578 OFFCURVE",
"191 503 OFFCURVE",
"191 431 CURVE SMOOTH",
"191 419 OFFCURVE",
"191 407 OFFCURVE",
"192 394 CURVE SMOOTH",
"195 345 OFFCURVE",
"35 242 OFFCURVE",
"35 136 CURVE SMOOTH"
);
}
);
width = 916;
}
);
leftKerningGroup = M;
rightKerningGroup = M;
unicode = 004D;
},
{
glyphname = N;
lastChange = "2020-01-02 12:14:39 +0000";
layers = (
{
anchors = (
{
name = bottom;
position = "{329, 0}";
},
{
name = top;
position = "{359, 700}";
}
);
background = {
backgroundImage = {
crop = "{{0, 0}, {170.88, 211.92}}";
imagePath = "../../Atelier typographique liège/000DOCATELIERFIG/01-CROQUIS/3/N.jpg";
locked = "1";
transform = "{3.80939, 0, 0, 3.80939, -47.553, -54.646}";
};
};
layerId = "A956090A-BD7D-40E0-8141-33D8BAD0406F";
paths = (
{
closed = 1;
nodes = (
"45 142 OFFCURVE",
"53 69 OFFCURVE",
"70 0 CURVE",
"232 0 LINE",
"221 28 OFFCURVE",
"219 41 OFFCURVE",
"219 68 CURVE SMOOTH",
"219 145 OFFCURVE",
"302 213 OFFCURVE",
"366 280 CURVE SMOOTH",
"435 352 OFFCURVE",
"510 438 OFFCURVE",
"510 534 CURVE",
"514 534 LINE",
"523 511 OFFCURVE",
"526 487 OFFCURVE",
"526 462 CURVE SMOOTH",
"526 389 OFFCURVE",
"493 309 OFFCURVE",
"458 224 CURVE SMOOTH",
"440 180 OFFCURVE",
"429 138 OFFCURVE",
"429 98 CURVE SMOOTH",
"429 64 OFFCURVE",
"437 31 OFFCURVE",
"456 -1 CURVE",
"623 -1 LINE",
"597 32 OFFCURVE",
"574 54 OFFCURVE",
"574 127 CURVE SMOOTH",
"574 220 OFFCURVE",
"637 291 OFFCURVE",
"637 441 CURVE SMOOTH",
"637 539 OFFCURVE",
"606 632 OFFCURVE",
"555 700 CURVE",
"419 700 LINE",
"427 677 OFFCURVE",
"429 655 OFFCURVE",
"429 640 CURVE SMOOTH",
"429 574 OFFCURVE",
"410 500 OFFCURVE",
"269 361 CURVE SMOOTH",
"230 322 OFFCURVE",
"197 287 OFFCURVE",
"192 258 CURVE",
"188 258 LINE",
"188 294 LINE",
"188 441 OFFCURVE",
"207 597 OFFCURVE",
"243 700 CURVE",
"135 700 LINE",
"80 540 OFFCURVE",
"45 384 OFFCURVE",
"45 216 CURVE SMOOTH"
);
}
);
width = 682;
},
{
associatedMasterId = "A956090A-BD7D-40E0-8141-33D8BAD0406F";
background = {
backgroundImage = {
crop = "{{0, 0}, {170.88, 211.92}}";
imagePath = "../../Atelier typographique liège/000DOCATELIERFIG/01-CROQUIS/3/N.jpg";
locked = "1";
transform = "{3.80939, 0, 0, 3.80939, -47.553, -54.646}";
};
};
layerId = "D516BFA6-CAD6-4E84-99C5-D1A607DB7923";
name = "Feb 16 19, 19:25";
paths = (
{
closed = 1;
nodes = (
"193 91 OFFCURVE",
"178 198 OFFCURVE",
"178 304 CURVE SMOOTH",
"178 451 OFFCURVE",
"197 597 OFFCURVE",
"233 700 CURVE",
"174 700 OFFCURVE",
"158 700 OFFCURVE",
"130 700 CURVE",
"75 540 OFFCURVE",
"40 384 OFFCURVE",
"40 216 CURVE SMOOTH",
"40 142 OFFCURVE",
"48 69 OFFCURVE",
"65 0 CURVE",
"232 0 LINE"
);
},
{
closed = 1;
nodes = (
"463 654 OFFCURVE",
"445 540 OFFCURVE",
"264 361 CURVE SMOOTH",
"95 194 OFFCURVE",
"65 114 OFFCURVE",
"65 0 CURVE",
"232 0 LINE",
"225 14 OFFCURVE",
"221 30 OFFCURVE",
"221 47 CURVE SMOOTH",
"221 113 OFFCURVE",
"275 200 OFFCURVE",
"351 290 CURVE SMOOTH",
"454 413 OFFCURVE",
"555 555 OFFCURVE",
"555 701 CURVE",
"445 701 LINE"
);
},
{
closed = 1;
nodes = (
"593 -1 LINE",
"567 32 OFFCURVE",
"544 54 OFFCURVE",
"544 127 CURVE SMOOTH",
"544 220 OFFCURVE",
"602 301 OFFCURVE",
"602 451 CURVE SMOOTH",
"602 549 OFFCURVE",
"586 630 OFFCURVE",
"555 701 CURVE",
"445 701 LINE",
"469 611 OFFCURVE",
"506 577 OFFCURVE",
"506 451 CURVE SMOOTH",
"506 327 OFFCURVE",
"408 180 OFFCURVE",
"408 104 CURVE SMOOTH",
"408 58 OFFCURVE",
"428 17 OFFCURVE",
"441 -1 CURVE"
);
}
);
width = 642;
},
{
anchors = (
{
name = bottom;
position = "{329, 0}";
},
{
name = top;
position = "{359, 700}";
}
);
associatedMasterId = "A956090A-BD7D-40E0-8141-33D8BAD0406F";
background = {
backgroundImage = {
crop = "{{0, 0}, {170.88, 211.92}}";
imagePath = "../../Atelier typographique liège/000DOCATELIERFIG/01-CROQUIS/3/N.jpg";
locked = "1";
transform = "{3.80939, 0, 0, 3.80939, -47.553, -54.646}";
};
};
layerId = "6023DE89-3A00-4C47-A731-E3E40B3B7F8F";
name = "Feb 21 19, 10:19";
paths = (
{
closed = 1;
nodes = (
"203 91 OFFCURVE",
"188 198 OFFCURVE",
"188 304 CURVE SMOOTH",
"188 451 OFFCURVE",
"207 597 OFFCURVE",
"243 700 CURVE",
"135 700 LINE",
"80 540 OFFCURVE",
"45 384 OFFCURVE",
"45 216 CURVE SMOOTH",
"45 142 OFFCURVE",
"53 69 OFFCURVE",
"70 0 CURVE",
"242 0 LINE"
);
},
{
closed = 1;
nodes = (
"468 654 OFFCURVE",
"450 540 OFFCURVE",
"269 361 CURVE SMOOTH",
"100 194 OFFCURVE",
"70 114 OFFCURVE",
"70 0 CURVE",
"242 0 LINE",
"235 14 OFFCURVE",
"231 30 OFFCURVE",
"231 47 CURVE SMOOTH",
"231 113 OFFCURVE",
"280 200 OFFCURVE",
"356 290 CURVE SMOOTH",
"459 413 OFFCURVE",
"560 555 OFFCURVE",
"560 701 CURVE",
"450 701 LINE"
);
},
{
closed = 1;
nodes = (
"598 -1 LINE",
"572 32 OFFCURVE",
"549 54 OFFCURVE",
"549 127 CURVE SMOOTH",
"549 220 OFFCURVE",
"617 301 OFFCURVE",
"617 451 CURVE SMOOTH",
"617 549 OFFCURVE",
"591 630 OFFCURVE",
"560 701 CURVE",
"450 701 LINE",
"474 611 OFFCURVE",
"511 577 OFFCURVE",
"511 451 CURVE SMOOTH",
"511 327 OFFCURVE",
"413 180 OFFCURVE",
"413 104 CURVE SMOOTH",
"413 58 OFFCURVE",
"433 17 OFFCURVE",
"446 -1 CURVE"
);
}
);
width = 657;
},
{
anchors = (
{
name = bottom;
position = "{329, 0}";
},
{
name = top;
position = "{359, 700}";
}
);
associatedMasterId = "A956090A-BD7D-40E0-8141-33D8BAD0406F";
background = {
backgroundImage = {
crop = "{{0, 0}, {170.88, 211.92}}";
imagePath = "../../Atelier typographique liège/000DOCATELIERFIG/01-CROQUIS/3/N.jpg";
locked = "1";
transform = "{3.80939, 0, 0, 3.80939, -47.553, -54.646}";
};
};
layerId = "0C6E5788-F6D2-4524-BF71-9C97204C2BB5";
name = "Feb 21 19, 10:26";
paths = (
{
closed = 1;
nodes = (
"45 142 OFFCURVE",
"53 69 OFFCURVE",
"70 0 CURVE",
"232 0 LINE",
"221 28 OFFCURVE",
"219 41 OFFCURVE",
"219 68 CURVE SMOOTH",
"219 145 OFFCURVE",
"292 213 OFFCURVE",
"356 280 CURVE SMOOTH",
"425 352 OFFCURVE",
"500 438 OFFCURVE",
"500 534 CURVE",
"504 534 LINE",
"509 509 OFFCURVE",
"511 485 OFFCURVE",
"511 451 CURVE SMOOTH",
"511 377 OFFCURVE",
"476 294 OFFCURVE",
"448 224 CURVE SMOOTH",
"430 180 OFFCURVE",
"419 138 OFFCURVE",
"419 98 CURVE SMOOTH",
"419 64 OFFCURVE",
"427 31 OFFCURVE",
"446 -1 CURVE",
"598 -1 LINE",
"572 32 OFFCURVE",
"549 54 OFFCURVE",
"549 127 CURVE SMOOTH",
"549 220 OFFCURVE",
"617 301 OFFCURVE",
"617 451 CURVE SMOOTH",
"617 549 OFFCURVE",
"591 632 OFFCURVE",
"560 700 CURVE",
"440 700 LINE",
"443 688 OFFCURVE",
"444 675 OFFCURVE",
"444 660 CURVE SMOOTH",
"444 594 OFFCURVE",
"410 500 OFFCURVE",
"269 361 CURVE SMOOTH",
"230 322 OFFCURVE",
"192 287 OFFCURVE",
"192 258 CURVE",
"188 258 LINE",
"188 304 LINE",
"188 451 OFFCURVE",
"207 597 OFFCURVE",
"243 700 CURVE",
"135 700 LINE",
"80 540 OFFCURVE",
"45 384 OFFCURVE",
"45 216 CURVE SMOOTH"
);
}
);
width = 657;
},
{
anchors = (
{
name = bottom;
position = "{329, 0}";
},
{
name = top;
position = "{359, 700}";
}
);
associatedMasterId = "A956090A-BD7D-40E0-8141-33D8BAD0406F";
background = {
backgroundImage = {
crop = "{{0, 0}, {170.88, 211.92}}";
imagePath = "../../Atelier typographique liège/000DOCATELIERFIG/01-CROQUIS/3/N.jpg";
locked = "1";
transform = "{3.80939, 0, 0, 3.80939, -47.553, -54.646}";
};
};
layerId = "50173F4E-E1C5-4FB2-B194-F6394CEC2891";
name = "Feb 21 19, 11:53";
paths = (
{
closed = 1;
nodes = (
"45 142 OFFCURVE",
"53 69 OFFCURVE",
"70 0 CURVE",
"232 0 LINE",
"221 28 OFFCURVE",
"219 41 OFFCURVE",
"219 68 CURVE SMOOTH",
"219 145 OFFCURVE",
"292 213 OFFCURVE",
"356 280 CURVE SMOOTH",
"425 352 OFFCURVE",
"500 438 OFFCURVE",
"500 534 CURVE",
"504 534 LINE",
"509 509 OFFCURVE",
"516 485 OFFCURVE",
"516 451 CURVE SMOOTH",
"516 377 OFFCURVE",
"476 294 OFFCURVE",
"448 224 CURVE SMOOTH",
"430 180 OFFCURVE",
"419 138 OFFCURVE",
"419 98 CURVE SMOOTH",
"419 64 OFFCURVE",
"427 31 OFFCURVE",
"446 -1 CURVE",
"598 -1 LINE",
"572 32 OFFCURVE",
"549 54 OFFCURVE",
"549 127 CURVE SMOOTH",
"549 220 OFFCURVE",
"617 301 OFFCURVE",
"617 451 CURVE SMOOTH",
"617 549 OFFCURVE",
"591 632 OFFCURVE",
"550 700 CURVE",
"440 700 LINE",
"443 688 OFFCURVE",
"444 675 OFFCURVE",
"444 660 CURVE SMOOTH",
"444 594 OFFCURVE",
"410 500 OFFCURVE",
"269 361 CURVE SMOOTH",
"230 322 OFFCURVE",
"192 287 OFFCURVE",
"192 258 CURVE",
"188 258 LINE",
"188 294 LINE",
"188 441 OFFCURVE",
"207 597 OFFCURVE",
"243 700 CURVE",
"135 700 LINE",
"80 540 OFFCURVE",
"45 384 OFFCURVE",
"45 216 CURVE SMOOTH"
);
}
);
width = 657;
}
);
leftKerningGroup = H;
unicode = 004E;
},
{
glyphname = Nacute;
lastChange = "2020-01-05 21:36:18 +0000";
layers = (
{
components = (
{
name = N;
}
);
layerId = "A956090A-BD7D-40E0-8141-33D8BAD0406F";
paths = (
{
closed = 1;
nodes = (
"482 827 OFFCURVE",
"425 760 OFFCURVE",
"388 740 CURVE",
"274 740 LINE",
"310 767 OFFCURVE",
"327 810 OFFCURVE",
"327 834 CURVE SMOOTH",
"327 845 OFFCURVE",
"323 860 OFFCURVE",
"316 870 CURVE",
"482 899 LINE"
);
}
);
width = 682;
}
);
unicode = 0143;
},
{
glyphname = O;
lastChange = "2020-05-03 19:47:17 +0000";
layers = (
{
anchors = (
{
name = bottom;
position = "{407, 0}";
},
{
name = center;
position = "{407, 350}";
},
{
name = ogonek;
position = "{454, 10}";
},
{
name = top;
position = "{407, 700}";
},
{
name = topleft;
position = "{0, 700}";
},
{
name = topright;
position = "{813, 700}";
}
);
components = (
{
name = _part.pupil;
transform = "{1, 0, 0, 1, 34, 50}";
}
);
layerId = "A956090A-BD7D-40E0-8141-33D8BAD0406F";
paths = (
{
closed = 1;
nodes = (
"25 148 OFFCURVE",
"322 77 OFFCURVE",
"322 0 CURVE",
"491 0 LINE",
"491 77 OFFCURVE",
"788 148 OFFCURVE",
"788 335 CURVE SMOOTH",
"788 557 OFFCURVE",
"460 609 OFFCURVE",
"460 700 CURVE",
"353 700 LINE",
"353 609 OFFCURVE",
"25 557 OFFCURVE",
"25 335 CURVE SMOOTH"
);
},
{
closed = 1;
nodes = (
"202 480 OFFCURVE",
"366 513 OFFCURVE",
"404 609 CURVE",
"409 609 LINE",
"448 513 OFFCURVE",
"611 482 OFFCURVE",
"611 335 CURVE SMOOTH",
"611 222 OFFCURVE",
"444 148 OFFCURVE",
"410 79 CURVE",
"405 79 LINE",
"369 148 OFFCURVE",
"202 222 OFFCURVE",
"202 335 CURVE SMOOTH"
);
}
);
width = 813;
}
);
leftKerningGroup = O;
rightKerningGroup = O;
unicode = 004F;
},
{
glyphname = Oslash;
lastChange = "2019-02-22 21:45:29 +0000";
layers = (
{
anchors = (
{
name = bottom;
position = "{436, 0}";
},
{
name = center;
position = "{436, 350}";
},
{
name = ogonek;
position = "{483, 10}";
},
{
name = top;
position = "{436, 700}";
},
{
name = topleft;
position = "{35, 700}";
},
{
name = topright;
position = "{838, 700}";
}
);
layerId = "A956090A-BD7D-40E0-8141-33D8BAD0406F";
paths = (
{
closed = 1;
nodes = (
"209 2 LINE",
"208 10 OFFCURVE",
"207 19 OFFCURVE",
"207 29 CURVE SMOOTH",
"207 215 OFFCURVE",
"354 288 OFFCURVE",
"510 345 CURVE SMOOTH",
"671 404 OFFCURVE",
"838 484 OFFCURVE",
"838 700 CURVE",
"663 700 LINE",
"664 692 OFFCURVE",
"665 684 OFFCURVE",
"665 675 CURVE SMOOTH",
"665 491 OFFCURVE",
"518 417 OFFCURVE",
"361 357 CURVE SMOOTH",
"200 296 OFFCURVE",
"35 213 OFFCURVE",
"35 2 CURVE"
);
},
{
closed = 1;
nodes = (
"35 148 OFFCURVE",
"351 77 OFFCURVE",
"351 0 CURVE",
"520 0 LINE",
"520 77 OFFCURVE",
"838 148 OFFCURVE",
"838 335 CURVE SMOOTH",
"838 557 OFFCURVE",
"489 609 OFFCURVE",
"489 700 CURVE",
"382 700 LINE",
"382 609 OFFCURVE",
"35 557 OFFCURVE",
"35 335 CURVE SMOOTH"
);
},
{
closed = 1;
nodes = (
"211 480 OFFCURVE",
"395 513 OFFCURVE",
"433 609 CURVE",
"438 609 LINE",
"477 513 OFFCURVE",
"660 482 OFFCURVE",
"660 335 CURVE SMOOTH",
"660 222 OFFCURVE",
"473 148 OFFCURVE",
"439 79 CURVE",
"434 79 LINE",
"398 148 OFFCURVE",
"211 222 OFFCURVE",
"211 335 CURVE SMOOTH"
);
}
);
width = 873;
},
{
associatedMasterId = "A956090A-BD7D-40E0-8141-33D8BAD0406F";
backgroundImage = {
crop = "{{0, 0}, {233.28, 183.84}}";
imagePath = "../../Atelier typographique liège/000DOCATELIERFIG/01-CROQUIS/6/oslash.jpg";
locked = "1";
transform = "{3.81893, 0, 0, 3.81893, 0, 0}";
};
layerId = "0B7A94D0-B09A-4757-A853-18AB53CEAF1E";
name = "Feb 22 19, 20:55";
paths = (
{
closed = 1;
nodes = (
"25 148 OFFCURVE",
"362 77 OFFCURVE",
"362 0 CURVE",
"531 0 LINE",
"531 77 OFFCURVE",
"868 148 OFFCURVE",
"868 335 CURVE SMOOTH",
"868 557 OFFCURVE",
"500 609 OFFCURVE",
"500 700 CURVE",
"393 700 LINE",
"393 609 OFFCURVE",
"25 557 OFFCURVE",
"25 335 CURVE SMOOTH"
);
},
{
closed = 1;
nodes = (
"202 480 OFFCURVE",
"406 513 OFFCURVE",
"444 609 CURVE",
"449 609 LINE",
"488 513 OFFCURVE",
"691 482 OFFCURVE",
"691 335 CURVE SMOOTH",
"691 222 OFFCURVE",
"484 148 OFFCURVE",
"450 79 CURVE",
"445 79 LINE",
"409 148 OFFCURVE",
"202 222 OFFCURVE",
"202 335 CURVE SMOOTH"
);
},
{
closed = 1;
nodes = (
"220 2 LINE",
"223 105 OFFCURVE",
"298 256 OFFCURVE",
"449 320 CURVE",
"448 382 LINE",
"298 353 OFFCURVE",
"46 213 OFFCURVE",
"45 2 CURVE"
);
},
{
closed = 1;
nodes = (
"674 700 LINE",
"671 597 OFFCURVE",
"596 446 OFFCURVE",
"445 382 CURVE",
"446 320 LINE",
"596 349 OFFCURVE",
"848 489 OFFCURVE",
"849 700 CURVE"
);
}
);
width = 893;
}
);
unicode = 00D8;
},
{
glyphname = OE;
lastChange = "2020-01-01 21:29:47 +0000";
layers = (
{
components = (
{
name = _part.pupil;
transform = "{1, 0, 0, 1, -78, 50}";
}
);
layerId = "A956090A-BD7D-40E0-8141-33D8BAD0406F";
paths = (
{
closed = 1;
nodes = (
"910 0 LINE",
"861 153 LINE",
"726 114 OFFCURVE",
"618 102 OFFCURVE",
"461 101 CURVE",
"461 0 LINE"
);
},
{
closed = 1;
nodes = (
"511 442 OFFCURVE",
"532 449 OFFCURVE",
"550 449 CURVE SMOOTH",
"624 449 OFFCURVE",
"662 334 OFFCURVE",
"805 334 CURVE",
"805 483 LINE",
"790 480 OFFCURVE",
"775 478 OFFCURVE",
"760 478 CURVE SMOOTH",
"668 478 OFFCURVE",
"628 575 OFFCURVE",
"546 575 CURVE SMOOTH",
"536 575 OFFCURVE",
"526 572 OFFCURVE",
"516 567 CURVE",
"486 424 LINE"
);
},
{
closed = 1;
nodes = (
"574 599 OFFCURVE",
"647 609 OFFCURVE",
"698 609 CURVE SMOOTH",
"751 609 OFFCURVE",
"767 598 OFFCURVE",
"804 582 CURVE",
"804 700 LINE",
"466 700 LINE",
"516 571 LINE"
);
},
{
closed = 1;
nodes = (
"469 700 LINE",
"413 700 LINE",
"413 609 OFFCURVE",
"25 557 OFFCURVE",
"25 335 CURVE SMOOTH",
"25 148 OFFCURVE",
"302 77 OFFCURVE",
"302 0 CURVE",
"449 0 LINE",
"399 79 LINE",
"375 79 LINE",
"339 148 OFFCURVE",
"202 222 OFFCURVE",
"202 335 CURVE SMOOTH",
"202 480 OFFCURVE",
"380 487 OFFCURVE",
"418 583 CURVE",
"423 583 LINE"
);
},
{
closed = 1;
nodes = (
"552 35 OFFCURVE",
"540 73 OFFCURVE",
"532 112 CURVE SMOOTH",
"519 174 OFFCURVE",
"513 239 OFFCURVE",
"513 304 CURVE SMOOTH",
"513 381 OFFCURVE",
"518 458 OFFCURVE",
"528 529 CURVE",
"526 549 LINE",
"515 598 LINE",
"543 611 LINE",
"550 643 OFFCURVE",
"559 673 OFFCURVE",
"568 700 CURVE",
"460 700 LINE",
"447 661 OFFCURVE",
"433 622 OFFCURVE",
"423 583 CURVE SMOOTH",
"392 462 OFFCURVE",
"370 343 OFFCURVE",
"370 216 CURVE SMOOTH",
"370 142 OFFCURVE",
"378 69 OFFCURVE",
"395 0 CURVE",
"567 0 LINE"
);
}
);
width = 940;
},
{
associatedMasterId = "A956090A-BD7D-40E0-8141-33D8BAD0406F";
backgroundImage = {
crop = "{{0, 0}, {213.84, 198.72}}";
imagePath = "../../Atelier typographique liège/000DOCATELIERFIG/01-CROQUIS/6/OE.jpg";
locked = "1";
transform = "{3.77975, 0, 0, 3.77975, 45, -53}";
};
layerId = "35805E27-BC1E-456C-9CD3-8BDE5A7EFD29";
name = "Feb 22 19, 16:08";
paths = (
{
closed = 1;
nodes = (
"529 0 LINE",
"521 21 OFFCURVE",
"517 35 OFFCURVE",
"517 63 CURVE SMOOTH",
"517 100 OFFCURVE",
"566 328 OFFCURVE",
"566 419 CURVE SMOOTH",
"566 510 OFFCURVE",
"526 639 OFFCURVE",
"489 700 CURVE",
"372 700 LINE",
"423 584 OFFCURVE",
"441 497 OFFCURVE",
"441 424 CURVE SMOOTH",
"441 274 OFFCURVE",
"368 180 OFFCURVE",
"368 0 CURVE"
);
},
{
closed = 1;
nodes = (
"851 0 LINE",
"802 153 LINE",
"658 111 OFFCURVE",
"545 101 OFFCURVE",
"370 101 CURVE",
"370 0 LINE"
);
},
{
closed = 1;
nodes = (
"502 442 OFFCURVE",
"523 449 OFFCURVE",
"541 449 CURVE SMOOTH",
"615 449 OFFCURVE",
"653 334 OFFCURVE",
"796 334 CURVE",
"796 483 LINE",
"781 480 OFFCURVE",
"766 478 OFFCURVE",
"751 478 CURVE SMOOTH",
"629 478 OFFCURVE",
"589 575 OFFCURVE",
"507 575 CURVE SMOOTH",
"497 575 OFFCURVE",
"487 572 OFFCURVE",
"477 567 CURVE",
"477 424 LINE"
);
},
{
closed = 1;
nodes = (
"535 599 OFFCURVE",
"608 609 OFFCURVE",
"659 609 CURVE SMOOTH",
"712 609 OFFCURVE",
"758 598 OFFCURVE",
"795 582 CURVE",
"795 700 LINE",
"477 700 LINE",
"477 571 LINE"
);
},
{
closed = 1;
nodes = (
"376 688 OFFCURVE",
"375 681 OFFCURVE",
"375 680 CURVE SMOOTH",
"375 586 OFFCURVE",
"45 548 OFFCURVE",
"45 335 CURVE SMOOTH",
"45 160 OFFCURVE",
"368 79 OFFCURVE",
"368 0 CURVE",
"397 0 OFFCURVE",
"461 0 OFFCURVE",
"536 0 CURVE",
"536 98 OFFCURVE",
"222 180 OFFCURVE",
"222 335 CURVE SMOOTH",
"222 518 OFFCURVE",
"480 522 OFFCURVE",
"480 700 CURVE",
"372 700 LINE"
);
}
);
width = 700;
},
{
associatedMasterId = "A956090A-BD7D-40E0-8141-33D8BAD0406F";
components = (
{
name = _part.pupil;
transform = "{1, 0, 0, 1, -26, 50}";
}
);
layerId = "F9E2B992-34EF-4E4B-8C95-D35FD0BD59CA";
name = "Jan 1 20, 21:26";
paths = (
{
closed = 1;
nodes = (
"125 960 OFFCURVE",
"448 879 OFFCURVE",
"448 800 CURVE",
"450 800 LINE",
"609 800 LINE",
"931 800 LINE",
"882 953 LINE",
"784 924 OFFCURVE",
"700 911 OFFCURVE",
"602 905 CURVE",
"614 985 OFFCURVE",
"646 1146 OFFCURVE",
"646 1219 CURVE SMOOTH",
"646 1227 OFFCURVE",
"646 1236 OFFCURVE",
"645 1245 CURVE",
"725 1224 OFFCURVE",
"769 1134 OFFCURVE",
"896 1134 CURVE",
"896 1283 LINE",
"881 1280 OFFCURVE",
"866 1278 OFFCURVE",
"851 1278 CURVE SMOOTH",
"729 1278 OFFCURVE",
"719 1375 OFFCURVE",
"617 1375 CURVE SMOOTH",
"612 1375 OFFCURVE",
"606 1374 OFFCURVE",
"601 1373 CURVE",
"601 1377 LINE",
"676 1401 OFFCURVE",
"712 1409 OFFCURVE",
"759 1409 CURVE SMOOTH",
"812 1409 OFFCURVE",
"858 1398 OFFCURVE",
"895 1382 CURVE",
"895 1500 LINE",
"442 1500 LINE",
"446 1488 OFFCURVE",
"445 1481 OFFCURVE",
"445 1480 CURVE SMOOTH",
"445 1386 OFFCURVE",
"125 1348 OFFCURVE",
"125 1135 CURVE SMOOTH"
);
},
{
closed = 1;
nodes = (
"292 1255 OFFCURVE",
"492 1340 OFFCURVE",
"492 1392 CURVE",
"495 1392 LINE",
"512 1321 OFFCURVE",
"517 1262 OFFCURVE",
"517 1214 CURVE SMOOTH",
"517 1139 OFFCURVE",
"506 1042 OFFCURVE",
"465 943 CURVE",
"385 996 OFFCURVE",
"292 1066 OFFCURVE",
"292 1145 CURVE SMOOTH"
);
},
{
closed = 1;
nodes = (
"434 1086 OFFCURVE",
"459 1109 OFFCURVE",
"459 1139 CURVE",
"459 1168 OFFCURVE",
"434 1191 OFFCURVE",
"406 1191 CURVE SMOOTH",
"377 1191 OFFCURVE",
"354 1168 OFFCURVE",
"354 1139 CURVE SMOOTH",
"354 1109 OFFCURVE",
"377 1086 OFFCURVE",
"406 1086 CURVE SMOOTH"
);
},
{
closed = 1;
nodes = (
"922 0 LINE",
"873 153 LINE",
"738 114 OFFCURVE",
"630 102 OFFCURVE",
"473 101 CURVE",
"473 0 LINE"
);
},
{
closed = 1;
nodes = (
"573 442 OFFCURVE",
"594 449 OFFCURVE",
"612 449 CURVE SMOOTH",
"686 449 OFFCURVE",
"724 334 OFFCURVE",
"867 334 CURVE",
"867 483 LINE",
"852 480 OFFCURVE",
"837 478 OFFCURVE",
"822 478 CURVE SMOOTH",
"730 478 OFFCURVE",
"690 575 OFFCURVE",
"608 575 CURVE SMOOTH",
"598 575 OFFCURVE",
"588 572 OFFCURVE",
"578 567 CURVE",
"548 424 LINE"
);
},
{
closed = 1;
nodes = (
"636 599 OFFCURVE",
"709 609 OFFCURVE",
"760 609 CURVE SMOOTH",
"813 609 OFFCURVE",
"829 598 OFFCURVE",
"866 582 CURVE",
"866 700 LINE",
"528 700 LINE",
"578 571 LINE"
);
},
{
closed = 1;
nodes = (
"614 35 OFFCURVE",
"602 73 OFFCURVE",
"594 112 CURVE SMOOTH",
"581 174 OFFCURVE",
"575 239 OFFCURVE",
"575 304 CURVE SMOOTH",
"575 381 OFFCURVE",
"580 458 OFFCURVE",
"590 529 CURVE",
"588 549 LINE",
"577 598 LINE",
"605 611 LINE",
"612 643 OFFCURVE",
"621 673 OFFCURVE",
"630 700 CURVE",
"522 700 LINE",
"509 661 OFFCURVE",
"495 622 OFFCURVE",
"485 583 CURVE SMOOTH",
"454 462 OFFCURVE",
"432 343 OFFCURVE",
"432 216 CURVE SMOOTH",
"432 142 OFFCURVE",
"440 69 OFFCURVE",
"457 0 CURVE",
"629 0 LINE"
);
},
{
closed = 1;
nodes = (
"441 700 LINE",
"385 700 LINE",
"385 609 OFFCURVE",
"57 557 OFFCURVE",
"57 335 CURVE SMOOTH",
"57 148 OFFCURVE",
"354 77 OFFCURVE",
"354 0 CURVE",
"461 0 LINE",
"461 79 LINE",
"437 79 LINE",
"401 148 OFFCURVE",
"234 222 OFFCURVE",
"234 335 CURVE SMOOTH",
"234 480 OFFCURVE",
"398 513 OFFCURVE",
"436 609 CURVE",
"441 609 LINE"
);
}
);
width = 1000;
},
{
associatedMasterId = "A956090A-BD7D-40E0-8141-33D8BAD0406F";
components = (
{
name = _part.pupil;
transform = "{1, 0, 0, 1, -66, 50}";
}
);
layerId = "A21281D6-931B-4AC0-9278-D8CA0CC4E0A2";
name = "Jan 1 20, 21:28";
paths = (
{
closed = 1;
nodes = (
"922 0 LINE",
"873 153 LINE",
"738 114 OFFCURVE",
"630 102 OFFCURVE",
"473 101 CURVE",
"473 0 LINE"
);
},
{
closed = 1;
nodes = (
"523 442 OFFCURVE",
"544 449 OFFCURVE",
"562 449 CURVE SMOOTH",
"636 449 OFFCURVE",
"674 334 OFFCURVE",
"817 334 CURVE",
"817 483 LINE",
"802 480 OFFCURVE",
"787 478 OFFCURVE",
"772 478 CURVE SMOOTH",
"680 478 OFFCURVE",
"640 575 OFFCURVE",
"558 575 CURVE SMOOTH",
"548 575 OFFCURVE",
"538 572 OFFCURVE",
"528 567 CURVE",
"498 424 LINE"
);
},
{
closed = 1;
nodes = (
"586 599 OFFCURVE",
"659 609 OFFCURVE",
"710 609 CURVE SMOOTH",
"763 609 OFFCURVE",
"779 598 OFFCURVE",
"816 582 CURVE",
"816 700 LINE",
"478 700 LINE",
"528 571 LINE"
);
},
{
closed = 1;
nodes = (
"481 700 LINE",
"425 700 LINE",
"425 609 OFFCURVE",
"37 557 OFFCURVE",
"37 335 CURVE SMOOTH",
"37 148 OFFCURVE",
"354 77 OFFCURVE",
"354 0 CURVE",
"461 0 LINE",
"461 79 LINE",
"437 79 LINE",
"401 148 OFFCURVE",
"214 222 OFFCURVE",
"214 335 CURVE SMOOTH",
"214 480 OFFCURVE",
"388 483 OFFCURVE",
"426 579 CURVE",
"431 579 LINE"
);
},
{
closed = 1;
nodes = (
"564 35 OFFCURVE",
"552 73 OFFCURVE",
"544 112 CURVE SMOOTH",
"531 174 OFFCURVE",
"525 239 OFFCURVE",
"525 304 CURVE SMOOTH",
"525 381 OFFCURVE",
"530 458 OFFCURVE",
"540 529 CURVE",
"538 549 LINE",
"527 598 LINE",
"555 611 LINE",
"562 643 OFFCURVE",
"571 673 OFFCURVE",
"580 700 CURVE",
"472 700 LINE",
"459 661 OFFCURVE",
"445 622 OFFCURVE",
"435 583 CURVE SMOOTH",
"404 462 OFFCURVE",
"382 343 OFFCURVE",
"382 216 CURVE SMOOTH",
"382 142 OFFCURVE",
"390 69 OFFCURVE",
"407 0 CURVE",
"579 0 LINE"
);
}
);
width = 1000;
}
);
leftKerningGroup = O;
rightKerningGroup = E;
unicode = 0152;
},
{
glyphname = P;
lastChange = "2020-01-05 19:57:15 +0000";
layers = (
{
anchors = (
{
name = bottom;
position = "{275, 0}";
},
{
name = top;
position = "{275, 700}";
}
);
layerId = "A956090A-BD7D-40E0-8141-33D8BAD0406F";
paths = (
{
closed = 1;
nodes = (
"227 35 OFFCURVE",
"215 73 OFFCURVE",
"207 112 CURVE SMOOTH",
"194 174 OFFCURVE",
"188 239 OFFCURVE",
"188 304 CURVE SMOOTH",
"188 451 OFFCURVE",
"207 597 OFFCURVE",
"243 700 CURVE",
"135 700 LINE",
"80 540 OFFCURVE",
"45 384 OFFCURVE",
"45 216 CURVE SMOOTH",
"45 142 OFFCURVE",
"53 69 OFFCURVE",
"70 0 CURVE",
"242 0 LINE"
);
},
{
closed = 1;
nodes = (
"207 120 OFFCURVE",
"202 151 OFFCURVE",
"243 177 CURVE SMOOTH",
"415 285 OFFCURVE",
"536 400 OFFCURVE",
"536 526 CURVE SMOOTH",
"536 622 OFFCURVE",
"481 700 OFFCURVE",
"273 700 CURVE",
"169 700 LINE",
"169 605 LINE",
"276 605 OFFCURVE",
"387 609 OFFCURVE",
"387 521 CURVE SMOOTH",
"387 455 OFFCURVE",
"318 389 OFFCURVE",
"234 323 CURVE SMOOTH",
"206 301 OFFCURVE",
"192 290 OFFCURVE",
"192 274 CURVE",
"138 274 LINE",
"140 112 LINE",
"207 112 LINE"
);
}
);
width = 561;
},
{
associatedMasterId = "A956090A-BD7D-40E0-8141-33D8BAD0406F";
layerId = "7E734397-1494-477E-A05D-116384179613";
name = "Feb 16 19, 19:32";
paths = (
{
closed = 1;
nodes = (
"148 700 LINE",
"123 559 LINE",
"169 580 OFFCURVE",
"220 608 OFFCURVE",
"287 608 CURVE SMOOTH",
"352 608 OFFCURVE",
"389 571 OFFCURVE",
"387 557 CURVE",
"387 487 OFFCURVE",
"138 453 OFFCURVE",
"78 435 CURVE",
"158 317 LINE",
"223 344 OFFCURVE",
"510 422 OFFCURVE",
"510 557 CURVE SMOOTH",
"510 680 OFFCURVE",
"372 700 OFFCURVE",
"317 700 CURVE"
);
},
{
closed = 1;
nodes = (
"193 91 OFFCURVE",
"178 198 OFFCURVE",
"178 304 CURVE SMOOTH",
"178 451 OFFCURVE",
"197 597 OFFCURVE",
"233 700 CURVE",
"174 700 OFFCURVE",
"158 700 OFFCURVE",
"130 700 CURVE",
"75 540 OFFCURVE",
"40 384 OFFCURVE",
"40 216 CURVE SMOOTH",
"40 142 OFFCURVE",
"48 69 OFFCURVE",
"65 0 CURVE",
"232 0 LINE"
);
}
);
width = 540;
},
{
anchors = (
{
name = bottom;
position = "{280, 0}";
},
{
name = top;
position = "{280, 700}";
}
);
associatedMasterId = "A956090A-BD7D-40E0-8141-33D8BAD0406F";
layerId = "257FA0FA-5AD6-48ED-8A31-7285DF184BDD";
name = "Oct 9 19, 21:41";
paths = (
{
closed = 1;
nodes = (
"140 700 LINE",
"133 559 LINE",
"179 580 OFFCURVE",
"230 608 OFFCURVE",
"297 608 CURVE SMOOTH",
"370 608 OFFCURVE",
"397 575 OFFCURVE",
"397 527 CURVE SMOOTH",
"397 434 OFFCURVE",
"292 250 OFFCURVE",
"186 201 CURVE",
"224 64 LINE",
"223 83 OFFCURVE",
"234 87 OFFCURVE",
"249 96 CURVE SMOOTH",
"395 184 OFFCURVE",
"524 371 OFFCURVE",
"524 542 CURVE SMOOTH",
"524 637 OFFCURVE",
"463 700 OFFCURVE",
"317 700 CURVE SMOOTH"
);
},
{
closed = 1;
nodes = (
"208 91 OFFCURVE",
"193 198 OFFCURVE",
"193 304 CURVE SMOOTH",
"193 451 OFFCURVE",
"212 597 OFFCURVE",
"248 700 CURVE",
"140 700 LINE",
"85 540 OFFCURVE",
"50 384 OFFCURVE",
"50 216 CURVE SMOOTH",
"50 142 OFFCURVE",
"58 69 OFFCURVE",
"75 0 CURVE",
"247 0 LINE"
);
}
);
width = 550;
},
{
anchors = (
{
name = bottom;
position = "{280, 0}";
},
{
name = top;
position = "{280, 700}";
}
);
associatedMasterId = "A956090A-BD7D-40E0-8141-33D8BAD0406F";
layerId = "A13099CE-52D1-41FA-B7E2-D846C982045F";
name = "Oct 9 19, 21:43";
paths = (
{
closed = 1;
nodes = (
"237 710 OFFCURVE",
"199 707 OFFCURVE",
"140 700 CURVE",
"133 559 LINE",
"179 580 OFFCURVE",
"230 608 OFFCURVE",
"297 608 CURVE SMOOTH",
"370 608 OFFCURVE",
"397 575 OFFCURVE",
"397 527 CURVE SMOOTH",
"397 434 OFFCURVE",
"279 300 OFFCURVE",
"173 251 CURVE",
"212 112 LINE",
"211 131 OFFCURVE",
"221 137 OFFCURVE",
"236 146 CURVE SMOOTH",
"382 234 OFFCURVE",
"524 371 OFFCURVE",
"524 542 CURVE SMOOTH",
"524 637 OFFCURVE",
"452 710 OFFCURVE",
"307 710 CURVE SMOOTH"
);
},
{
closed = 1;
nodes = (
"232 35 OFFCURVE",
"220 73 OFFCURVE",
"212 112 CURVE SMOOTH",
"199 174 OFFCURVE",
"193 239 OFFCURVE",
"193 304 CURVE SMOOTH",
"193 451 OFFCURVE",
"212 597 OFFCURVE",
"248 700 CURVE",
"140 700 LINE",
"85 540 OFFCURVE",
"50 384 OFFCURVE",
"50 216 CURVE SMOOTH",
"50 142 OFFCURVE",
"58 69 OFFCURVE",
"75 0 CURVE",
"247 0 LINE"
);
}
);
width = 550;
},
{
anchors = (
{
name = bottom;
position = "{275, 0}";
},
{
name = top;
position = "{275, 700}";
}
);
associatedMasterId = "A956090A-BD7D-40E0-8141-33D8BAD0406F";
layerId = "26EC352D-1623-44DA-A428-4A8FF65FB373";
name = "Jan 5 20, 20:56";
paths = (
{
closed = 1;
nodes = (
"227 35 OFFCURVE",
"215 73 OFFCURVE",
"207 112 CURVE SMOOTH",
"194 174 OFFCURVE",
"188 239 OFFCURVE",
"188 304 CURVE SMOOTH",
"188 451 OFFCURVE",
"207 597 OFFCURVE",
"243 700 CURVE",
"135 700 LINE",
"80 540 OFFCURVE",
"45 384 OFFCURVE",
"45 216 CURVE SMOOTH",
"45 142 OFFCURVE",
"53 69 OFFCURVE",
"70 0 CURVE",
"242 0 LINE"
);
},
{
closed = 1;
nodes = (
"207 120 OFFCURVE",
"202 151 OFFCURVE",
"243 177 CURVE SMOOTH",
"415 285 OFFCURVE",
"536 400 OFFCURVE",
"536 526 CURVE SMOOTH",
"536 622 OFFCURVE",
"481 700 OFFCURVE",
"273 700 CURVE",
"169 700 LINE",
"169 618 LINE",
"218 617 LINE",
"224 619 LINE",
"235 611 OFFCURVE",
"262 610 OFFCURVE",
"292 605 CURVE SMOOTH",
"349 596 OFFCURVE",
"387 564 OFFCURVE",
"387 521 CURVE SMOOTH",
"387 455 OFFCURVE",
"318 389 OFFCURVE",
"234 323 CURVE SMOOTH",
"206 301 OFFCURVE",
"192 290 OFFCURVE",
"192 274 CURVE",
"138 274 LINE",
"140 112 LINE",
"207 112 LINE"
);
}
);
width = 561;
}
);
rightKerningGroup = P;
unicode = 0050;
},
{
glyphname = Thorn;
lastChange = "2020-01-02 15:16:37 +0000";
layers = (
{
components = (
{
name = _part.pupil;
transform = "{1, 0, 0, 1, -56, 59}";
}
);
layerId = "A956090A-BD7D-40E0-8141-33D8BAD0406F";
paths = (
{
closed = 1;
nodes = (
"203 91 OFFCURVE",
"188 198 OFFCURVE",
"188 304 CURVE SMOOTH",
"188 451 OFFCURVE",
"207 597 OFFCURVE",
"243 700 CURVE",
"184 700 OFFCURVE",
"168 700 OFFCURVE",
"140 700 CURVE",
"85 540 OFFCURVE",
"50 384 OFFCURVE",
"50 216 CURVE SMOOTH",
"50 142 OFFCURVE",
"58 69 OFFCURVE",
"75 0 CURVE",
"242 0 LINE"
);
},
{
closed = 1;
nodes = (
"127 414 LINE",
"333 513 OFFCURVE",
"478 430 OFFCURVE",
"478 342 CURVE SMOOTH",
"478 241 OFFCURVE",
"390 222 OFFCURVE",
"333 222 CURVE SMOOTH",
"269 222 OFFCURVE",
"157 278 OFFCURVE",
"127 336 CURVE",
"127 172 LINE",
"191 128 OFFCURVE",
"279 91 OFFCURVE",
"365 91 CURVE SMOOTH",
"505 91 OFFCURVE",
"608 210 OFFCURVE",
"608 325 CURVE SMOOTH",
"608 487 OFFCURVE",
"484 569 OFFCURVE",
"306 565 CURVE SMOOTH",
"256 564 OFFCURVE",
"192 549 OFFCURVE",
"151 529 CURVE"
);
}
);
width = 643;
}
);
unicode = 00DE;
},
{
glyphname = Q;
lastChange = "2020-03-26 13:51:10 +0000";
layers = (
{
anchors = (
{
name = bottom;
position = "{427, 0}";
},
{
name = top;
position = "{427, 700}";
}
);
layerId = "A956090A-BD7D-40E0-8141-33D8BAD0406F";
paths = (
{
closed = 1;
nodes = (
"633 160 OFFCURVE",
"661 118 OFFCURVE",
"661 72 CURVE SMOOTH",
"661 47 OFFCURVE",
"653 21 OFFCURVE",
"635 0 CURVE",
"790 0 LINE",
"790 98 OFFCURVE",
"709 182 OFFCURVE",
"662 199 CURVE",
"635 186 OFFCURVE",
"612 174 OFFCURVE",
"587 162 CURVE"
);
},
{
closed = 1;
nodes = (
"454 286 OFFCURVE",
"479 309 OFFCURVE",
"479 339 CURVE SMOOTH",
"479 368 OFFCURVE",
"454 391 OFFCURVE",
"426 391 CURVE SMOOTH",
"397 391 OFFCURVE",
"374 368 OFFCURVE",
"374 339 CURVE SMOOTH",
"374 309 OFFCURVE",
"397 286 OFFCURVE",
"426 286 CURVE SMOOTH"
);
},
{
closed = 1;
nodes = (
"25 148 OFFCURVE",
"342 77 OFFCURVE",
"342 0 CURVE",
"511 0 LINE",
"511 77 OFFCURVE",
"828 148 OFFCURVE",
"828 335 CURVE SMOOTH",
"828 557 OFFCURVE",
"480 609 OFFCURVE",
"480 700 CURVE",
"373 700 LINE",
"373 609 OFFCURVE",
"25 557 OFFCURVE",
"25 335 CURVE SMOOTH"
);
},
{
closed = 1;
nodes = (
"202 480 OFFCURVE",
"386 513 OFFCURVE",
"424 609 CURVE",
"429 609 LINE",
"468 513 OFFCURVE",
"651 482 OFFCURVE",
"651 335 CURVE SMOOTH",
"651 222 OFFCURVE",
"464 148 OFFCURVE",
"430 79 CURVE",
"425 79 LINE",
"389 148 OFFCURVE",
"202 222 OFFCURVE",
"202 335 CURVE SMOOTH"
);
}
);
width = 853;
},
{
associatedMasterId = "A956090A-BD7D-40E0-8141-33D8BAD0406F";
background = {
backgroundImage = {
crop = "{{0, 0}, {227.28, 212.4}}";
imagePath = "../../Atelier typographique liège/000DOCATELIERFIG/01-CROQUIS/1/Q.jpg";
locked = "1";
transform = "{3.78923, 0, 0, 3.78923, -56.463, -52.766}";
};
paths = (
{
closed = 1;
nodes = (
"318 631 OFFCURVE",
"-50 557 OFFCURVE",
"-50 335 CURVE SMOOTH",
"-50 160 OFFCURVE",
"288 79 OFFCURVE",
"288 0 CURVE",
"317 0 OFFCURVE",
"361 0 OFFCURVE",
"436 0 CURVE",
"436 98 OFFCURVE",
"107 180 OFFCURVE",
"107 335 CURVE SMOOTH",
"107 400 OFFCURVE",
"143 468 OFFCURVE",
"234 517 CURVE SMOOTH",
"363 586 OFFCURVE",
"425 644 OFFCURVE",
"425 701 CURVE",
"318 701 LINE"
);
},
{
closed = 1;
nodes = (
"318 701 LINE",
"318 644 OFFCURVE",
"381 585 OFFCURVE",
"509 517 CURVE SMOOTH",
"601 468 OFFCURVE",
"636 400 OFFCURVE",
"636 335 CURVE SMOOTH",
"636 180 OFFCURVE",
"307 98 OFFCURVE",
"307 0 CURVE",
"382 0 OFFCURVE",
"426 0 OFFCURVE",
"455 0 CURVE",
"455 79 OFFCURVE",
"793 160 OFFCURVE",
"793 335 CURVE SMOOTH",
"793 557 OFFCURVE",
"425 631 OFFCURVE",
"425 701 CURVE"
);
},
{
closed = 1;
nodes = (
"394 311 OFFCURVE",
"416 332 OFFCURVE",
"416 359 CURVE SMOOTH",
"416 385 OFFCURVE",
"394 406 OFFCURVE",
"368 406 CURVE SMOOTH",
"342 406 OFFCURVE",
"321 385 OFFCURVE",
"321 359 CURVE SMOOTH",
"321 332 OFFCURVE",
"342 311 OFFCURVE",
"368 311 CURVE SMOOTH"
);
}
);
};
layerId = "8A5AE464-9ACF-4671-80CE-B13C56A30EE4";
name = "Feb 16 19, 18:46";
paths = (
{
closed = 1;
nodes = (
"464 311 OFFCURVE",
"486 332 OFFCURVE",
"486 359 CURVE SMOOTH",
"486 385 OFFCURVE",
"464 406 OFFCURVE",
"438 406 CURVE SMOOTH",
"412 406 OFFCURVE",
"391 385 OFFCURVE",
"391 359 CURVE SMOOTH",
"391 332 OFFCURVE",
"412 311 OFFCURVE",
"438 311 CURVE SMOOTH"
);
},
{
closed = 1;
nodes = (
"626 161 OFFCURVE",
"676 129 OFFCURVE",
"676 86 CURVE SMOOTH",
"676 43 OFFCURVE",
"672 26 OFFCURVE",
"650 0 CURVE",
"805 0 LINE",
"805 98 OFFCURVE",
"724 182 OFFCURVE",
"677 199 CURVE",
"650 186 OFFCURVE",
"627 174 OFFCURVE",
"602 162 CURVE"
);
},
{
closed = 1;
nodes = (
"388 631 OFFCURVE",
"20 557 OFFCURVE",
"20 335 CURVE SMOOTH",
"20 160 OFFCURVE",
"358 79 OFFCURVE",
"358 0 CURVE",
"387 0 OFFCURVE",
"451 0 OFFCURVE",
"526 0 CURVE",
"526 98 OFFCURVE",
"177 180 OFFCURVE",
"177 335 CURVE SMOOTH",
"177 400 OFFCURVE",
"213 468 OFFCURVE",
"304 517 CURVE SMOOTH",
"433 586 OFFCURVE",
"495 644 OFFCURVE",
"495 701 CURVE",
"388 701 LINE"
);
},
{
closed = 1;
nodes = (
"388 701 LINE",
"388 644 OFFCURVE",
"451 585 OFFCURVE",
"579 517 CURVE SMOOTH",
"671 468 OFFCURVE",
"706 400 OFFCURVE",
"706 335 CURVE SMOOTH",
"706 180 OFFCURVE",
"357 98 OFFCURVE",
"357 0 CURVE",
"432 0 OFFCURVE",
"496 0 OFFCURVE",
"525 0 CURVE",
"525 79 OFFCURVE",
"863 160 OFFCURVE",
"863 335 CURVE SMOOTH",
"863 557 OFFCURVE",
"495 631 OFFCURVE",
"495 701 CURVE"
);
}
);
width = 883;
}
);
leftKerningGroup = O;
rightKerningGroup = O;
unicode = 0051;
},
{
glyphname = R;
lastChange = "2020-01-06 09:19:48 +0000";
layers = (
{
anchors = (
{
name = bottom;
position = "{328, 0}";
},
{
name = top;
position = "{328, 700}";
}
);
associatedMasterId = "A956090A-BD7D-40E0-8141-33D8BAD0406F";
background = {
backgroundImage = {
crop = "{{0, 0}, {170.16, 211.44}}";
imagePath = "../../Atelier typographique liège/000DOCATELIERFIG/01-CROQUIS/2/R-minuscule.jpg";
locked = "1";
transform = "{3.79016, 0, 0, 3.79016, -41, -48}";
};
paths = (
{
closed = 1;
nodes = (
"143 700 LINE",
"118 559 LINE",
"164 580 OFFCURVE",
"215 608 OFFCURVE",
"282 608 CURVE SMOOTH",
"347 608 OFFCURVE",
"384 571 OFFCURVE",
"382 543 CURVE",
"382 487 OFFCURVE",
"292 447 OFFCURVE",
"232 429 CURVE",
"332 381 LINE",
"397 408 OFFCURVE",
"505 462 OFFCURVE",
"505 571 CURVE SMOOTH",
"505 680 OFFCURVE",
"367 700 OFFCURVE",
"312 700 CURVE"
);
},
{
closed = 1;
nodes = (
"76 312 OFFCURVE",
"471 373 OFFCURVE",
"471 162 CURVE SMOOTH",
"471 118 OFFCURVE",
"461 73 OFFCURVE",
"429 0 CURVE",
"583 0 LINE",
"597 57 OFFCURVE",
"606 91 OFFCURVE",
"606 200 CURVE SMOOTH",
"606 462 OFFCURVE",
"169 381 OFFCURVE",
"169 543 CURVE",
"138 543 OFFCURVE",
"107 540 OFFCURVE",
"76 538 CURVE"
);
},
{
closed = 1;
nodes = (
"188 91 OFFCURVE",
"173 198 OFFCURVE",
"173 304 CURVE SMOOTH",
"173 451 OFFCURVE",
"192 597 OFFCURVE",
"228 700 CURVE",
"169 700 OFFCURVE",
"153 700 OFFCURVE",
"125 700 CURVE",
"70 540 OFFCURVE",
"35 384 OFFCURVE",
"35 216 CURVE SMOOTH",
"35 142 OFFCURVE",
"43 69 OFFCURVE",
"60 0 CURVE",
"227 0 LINE"
);
}
);
};
layerId = "DA5D600F-C201-42BC-8C23-5AFC5BFA65EB";
name = "Oct 4 19, 23:05";
paths = (
{
closed = 1;
nodes = (
"153 700 LINE",
"128 559 LINE",
"174 580 OFFCURVE",
"225 608 OFFCURVE",
"292 608 CURVE SMOOTH",
"357 608 OFFCURVE",
"394 571 OFFCURVE",
"392 543 CURVE",
"392 487 OFFCURVE",
"302 447 OFFCURVE",
"242 429 CURVE",
"398 372 LINE",
"398 408 LINE",
"451 440 OFFCURVE",
"515 498 OFFCURVE",
"515 571 CURVE SMOOTH",
"515 680 OFFCURVE",
"357 700 OFFCURVE",
"292 700 CURVE"
);
},
{
closed = 1;
nodes = (
"89 474 OFFCURVE",
"108 354 OFFCURVE",
"140 325 CURVE",
"163 386 LINE",
"229 337 OFFCURVE",
"271 315 OFFCURVE",
"323 300 CURVE SMOOTH",
"411 275 OFFCURVE",
"481 235 OFFCURVE",
"481 162 CURVE SMOOTH",
"481 118 OFFCURVE",
"471 73 OFFCURVE",
"439 0 CURVE",
"578 0 LINE",
"605 67 OFFCURVE",
"616 127 OFFCURVE",
"616 200 CURVE SMOOTH",
"616 462 OFFCURVE",
"184 386 OFFCURVE",
"205 541 CURVE",
"89 541 LINE"
);
},
{
closed = 1;
nodes = (
"203 91 OFFCURVE",
"188 198 OFFCURVE",
"188 304 CURVE SMOOTH",
"188 451 OFFCURVE",
"207 597 OFFCURVE",
"243 700 CURVE",
"135 700 LINE",
"80 540 OFFCURVE",
"45 384 OFFCURVE",
"45 216 CURVE SMOOTH",
"45 142 OFFCURVE",
"53 69 OFFCURVE",
"70 0 CURVE",
"242 0 LINE"
);
}
);
width = 656;
},
{
anchors = (
{
name = bottom;
position = "{328, 0}";
},
{
name = top;
position = "{328, 700}";
}
);
associatedMasterId = "A956090A-BD7D-40E0-8141-33D8BAD0406F";
background = {
backgroundImage = {
crop = "{{0, 0}, {170.16, 211.44}}";
imagePath = "../../Atelier typographique liège/000DOCATELIERFIG/01-CROQUIS/2/R-minuscule.jpg";
locked = "1";
transform = "{3.79016, 0, 0, 3.79016, -41, -48}";
};
paths = (
{
closed = 1;
nodes = (
"143 700 LINE",
"118 559 LINE",
"164 580 OFFCURVE",
"215 608 OFFCURVE",
"282 608 CURVE SMOOTH",
"347 608 OFFCURVE",
"384 571 OFFCURVE",
"382 543 CURVE",
"382 487 OFFCURVE",
"292 447 OFFCURVE",
"232 429 CURVE",
"332 381 LINE",
"397 408 OFFCURVE",
"505 462 OFFCURVE",
"505 571 CURVE SMOOTH",
"505 680 OFFCURVE",
"367 700 OFFCURVE",
"312 700 CURVE"
);
},
{
closed = 1;
nodes = (
"76 312 OFFCURVE",
"471 373 OFFCURVE",
"471 162 CURVE SMOOTH",
"471 118 OFFCURVE",
"461 73 OFFCURVE",
"429 0 CURVE",
"583 0 LINE",
"597 57 OFFCURVE",
"606 91 OFFCURVE",
"606 200 CURVE SMOOTH",
"606 462 OFFCURVE",
"169 381 OFFCURVE",
"169 543 CURVE",
"138 543 OFFCURVE",
"107 540 OFFCURVE",
"76 538 CURVE"
);
},
{
closed = 1;
nodes = (
"188 91 OFFCURVE",
"173 198 OFFCURVE",
"173 304 CURVE SMOOTH",
"173 451 OFFCURVE",
"192 597 OFFCURVE",
"228 700 CURVE",
"169 700 OFFCURVE",
"153 700 OFFCURVE",
"125 700 CURVE",
"70 540 OFFCURVE",
"35 384 OFFCURVE",
"35 216 CURVE SMOOTH",
"35 142 OFFCURVE",
"43 69 OFFCURVE",
"60 0 CURVE",
"227 0 LINE"
);
}
);
};
layerId = "A4137A88-E766-43F4-BDB8-67F9676D443D";
name = "Oct 4 19, 23:42";
paths = (
{
closed = 1;
nodes = (
"153 700 LINE",
"128 559 LINE",
"174 580 OFFCURVE",
"225 608 OFFCURVE",
"292 608 CURVE SMOOTH",
"357 608 OFFCURVE",
"394 571 OFFCURVE",
"392 543 CURVE",
"392 487 OFFCURVE",
"302 447 OFFCURVE",
"242 429 CURVE",
"398 372 LINE",
"389 401 LINE",
"476 449 OFFCURVE",
"511 509 OFFCURVE",
"511 563 CURVE SMOOTH",
"511 638 OFFCURVE",
"439 700 OFFCURVE",
"292 700 CURVE"
);
},
{
closed = 1;
nodes = (
"89 474 OFFCURVE",
"108 433 OFFCURVE",
"140 402 CURVE",
"194 402 LINE",
"194 343 OFFCURVE",
"271 310 OFFCURVE",
"323 295 CURVE SMOOTH",
"411 270 OFFCURVE",
"481 235 OFFCURVE",
"481 162 CURVE SMOOTH",
"481 118 OFFCURVE",
"471 73 OFFCURVE",
"439 0 CURVE",
"578 0 LINE",
"605 67 OFFCURVE",
"616 127 OFFCURVE",
"616 200 CURVE SMOOTH",
"616 327 OFFCURVE",
"498 362 OFFCURVE",
"389 401 CURVE SMOOTH",
"274 441 OFFCURVE",
"168 484 OFFCURVE",
"222 599 CURVE",
"89 541 LINE"
);
},
{
closed = 1;
nodes = (
"203 91 OFFCURVE",
"188 198 OFFCURVE",
"188 304 CURVE SMOOTH",
"188 451 OFFCURVE",
"207 597 OFFCURVE",
"243 700 CURVE",
"135 700 LINE",
"80 540 OFFCURVE",
"45 384 OFFCURVE",
"45 216 CURVE SMOOTH",
"45 142 OFFCURVE",
"53 69 OFFCURVE",
"70 0 CURVE",
"242 0 LINE"
);
}
);
width = 656;
},
{
anchors = (
{
name = bottom;
position = "{328, 0}";
},
{
name = top;
position = "{288, 700}";
}
);
associatedMasterId = "A956090A-BD7D-40E0-8141-33D8BAD0406F";
layerId = "1A44D753-4F5B-463B-A755-4981B696358F";
name = "Jan 2 20, 12:07";
paths = (
{
closed = 1;
nodes = (
"549 544 CURVE SMOOTH",
"549 629 OFFCURVE",
"454 710 OFFCURVE",
"292 710 CURVE SMOOTH",
"216 710 OFFCURVE",
"177 707 OFFCURVE",
"135 700 CURVE",
"128 559 LINE",
"174 580 OFFCURVE",
"225 608 OFFCURVE",
"292 608 CURVE SMOOTH",
"357 608 OFFCURVE",
"422 581 OFFCURVE",
"422 544 CURVE SMOOTH",
"422 487 OFFCURVE",
"332 447 OFFCURVE",
"272 429 CURVE",
"408 352 LINE",
"399 381 LINE",
"502 426 OFFCURVE",
"549 485 OFFCURVE"
);
},
{
closed = 1;
nodes = (
"89 474 OFFCURVE",
"108 433 OFFCURVE",
"140 402 CURVE",
"194 402 LINE",
"194 343 OFFCURVE",
"271 310 OFFCURVE",
"323 295 CURVE SMOOTH",
"411 270 OFFCURVE",
"481 235 OFFCURVE",
"481 162 CURVE SMOOTH",
"481 118 OFFCURVE",
"471 73 OFFCURVE",
"439 0 CURVE",
"578 0 LINE",
"605 67 OFFCURVE",
"616 127 OFFCURVE",
"616 200 CURVE SMOOTH",
"616 327 OFFCURVE",
"498 362 OFFCURVE",
"389 401 CURVE SMOOTH",
"274 441 OFFCURVE",
"168 484 OFFCURVE",
"222 599 CURVE",
"89 541 LINE"
);
},
{
closed = 1;
nodes = (
"203 91 OFFCURVE",
"188 198 OFFCURVE",
"188 304 CURVE SMOOTH",
"188 451 OFFCURVE",
"207 597 OFFCURVE",
"243 700 CURVE",
"135 700 LINE",
"80 540 OFFCURVE",
"45 384 OFFCURVE",
"45 216 CURVE SMOOTH",
"45 142 OFFCURVE",
"53 69 OFFCURVE",
"70 0 CURVE",
"242 0 LINE"
);
}
);
width = 656;
},
{
anchors = (
{
name = bottom;
position = "{328, 0}";
},
{
name = top;
position = "{288, 700}";
}
);
associatedMasterId = "A956090A-BD7D-40E0-8141-33D8BAD0406F";
layerId = "4D3DF7C7-58CB-4D59-8C30-B96E689361F5";
name = "Jan 2 20, 12:32";
paths = (
{
closed = 1;
nodes = (
"559 544 CURVE SMOOTH",
"559 629 OFFCURVE",
"454 710 OFFCURVE",
"292 710 CURVE SMOOTH",
"216 710 OFFCURVE",
"177 707 OFFCURVE",
"135 700 CURVE",
"135 541 LINE",
"207 542 LINE",
"207 570 OFFCURVE",
"225 608 OFFCURVE",
"292 608 CURVE SMOOTH",
"357 608 OFFCURVE",
"422 581 OFFCURVE",
"422 544 CURVE SMOOTH",
"422 487 OFFCURVE",
"337 454 OFFCURVE",
"258 454 CURVE",
"404 371 LINE",
"404 400 LINE",
"486 400 OFFCURVE",
"559 455 OFFCURVE"
);
},
{
closed = 1;
nodes = (
"89 474 OFFCURVE",
"108 433 OFFCURVE",
"140 402 CURVE",
"194 402 LINE",
"194 343 OFFCURVE",
"271 310 OFFCURVE",
"323 295 CURVE SMOOTH",
"411 270 OFFCURVE",
"481 235 OFFCURVE",
"481 162 CURVE SMOOTH",
"481 118 OFFCURVE",
"471 73 OFFCURVE",
"439 0 CURVE",
"578 0 LINE",
"605 67 OFFCURVE",
"616 127 OFFCURVE",
"616 200 CURVE SMOOTH",
"616 327 OFFCURVE",
"498 362 OFFCURVE",
"389 401 CURVE SMOOTH",
"295 434 OFFCURVE",
"207 468 OFFCURVE",
"207 542 CURVE",
"89 541 LINE"
);
},
{
closed = 1;
nodes = (
"203 91 OFFCURVE",
"188 198 OFFCURVE",
"188 304 CURVE SMOOTH",
"188 451 OFFCURVE",
"207 597 OFFCURVE",
"243 700 CURVE",
"135 700 LINE",
"80 540 OFFCURVE",
"45 384 OFFCURVE",
"45 216 CURVE SMOOTH",
"45 142 OFFCURVE",
"53 69 OFFCURVE",
"70 0 CURVE",
"242 0 LINE"
);
}
);
width = 656;
},
{
anchors = (
{
name = bottom;
position = "{328, 0}";
},
{
name = top;
position = "{288, 700}";
}
);
associatedMasterId = "A956090A-BD7D-40E0-8141-33D8BAD0406F";
layerId = "98F591AD-DD89-4ADB-80CA-FCA0F2091731";
name = "Jan 4 20, 19:59";
paths = (
{
closed = 1;
nodes = (
"89 474 OFFCURVE",
"108 433 OFFCURVE",
"140 402 CURVE",
"194 402 LINE",
"194 343 OFFCURVE",
"271 310 OFFCURVE",
"323 295 CURVE SMOOTH",
"411 270 OFFCURVE",
"481 235 OFFCURVE",
"481 162 CURVE SMOOTH",
"481 118 OFFCURVE",
"471 73 OFFCURVE",
"439 0 CURVE",
"578 0 LINE",
"605 67 OFFCURVE",
"616 127 OFFCURVE",
"616 200 CURVE SMOOTH",
"616 327 OFFCURVE",
"498 352 OFFCURVE",
"389 391 CURVE SMOOTH",
"341 408 OFFCURVE",
"294 435 OFFCURVE",
"260 458 CURVE SMOOTH",
"228 480 OFFCURVE",
"207 506 OFFCURVE",
"207 542 CURVE",
"89 541 LINE"
);
},
{
closed = 1;
nodes = (
"203 91 OFFCURVE",
"188 198 OFFCURVE",
"188 304 CURVE SMOOTH",
"188 451 OFFCURVE",
"207 597 OFFCURVE",
"243 700 CURVE",
"135 700 LINE",
"80 540 OFFCURVE",
"45 384 OFFCURVE",
"45 216 CURVE SMOOTH",
"45 142 OFFCURVE",
"53 69 OFFCURVE",
"70 0 CURVE",
"242 0 LINE"
);
},
{
closed = 1;
nodes = (
"486 390 OFFCURVE",
"559 465 OFFCURVE",
"559 553 CURVE SMOOTH",
"559 635 OFFCURVE",
"440 700 OFFCURVE",
"243 700 CURVE",
"135 700 LINE",
"135 542 LINE",
"207 542 LINE",
"207 560 OFFCURVE",
"217 599 OFFCURVE",
"233 618 CURVE",
"237 619 LINE",
"248 611 OFFCURVE",
"275 608 OFFCURVE",
"305 605 CURVE SMOOTH",
"383 598 OFFCURVE",
"417 574 OFFCURVE",
"417 534 CURVE SMOOTH",
"417 480 OFFCURVE",
"357 411 OFFCURVE",
"260 458 CURVE",
"260 371 LINE",
"404 361 LINE",
"404 390 LINE"
);
}
);
width = 656;
},
{
anchors = (
{
name = bottom;
position = "{328, 0}";
},
{
name = top;
position = "{288, 700}";
}
);
associatedMasterId = "A956090A-BD7D-40E0-8141-33D8BAD0406F";
layerId = "E112BB00-9E1A-4C45-BEED-80FAB13FD857";
name = "Jan 5 20, 23:00";
paths = (
{
closed = 1;
nodes = (
"203 91 OFFCURVE",
"188 198 OFFCURVE",
"188 304 CURVE SMOOTH",
"188 451 OFFCURVE",
"207 597 OFFCURVE",
"243 700 CURVE",
"135 700 LINE",
"80 540 OFFCURVE",
"45 384 OFFCURVE",
"45 216 CURVE SMOOTH",
"45 142 OFFCURVE",
"53 69 OFFCURVE",
"70 0 CURVE",
"242 0 LINE"
);
},
{
closed = 1;
nodes = (
"486 344 OFFCURVE",
"539 391 OFFCURVE",
"539 529 CURVE SMOOTH",
"539 611 OFFCURVE",
"440 700 OFFCURVE",
"243 700 CURVE",
"135 700 LINE",
"135 491 LINE",
"207 491 LINE",
"207 516 OFFCURVE",
"220 612 OFFCURVE",
"253 629 CURVE",
"179 581 LINE",
"210 595 OFFCURVE",
"234 604 OFFCURVE",
"297 604 CURVE SMOOTH",
"370 604 OFFCURVE",
"410 557 OFFCURVE",
"410 500 CURVE SMOOTH",
"410 451 OFFCURVE",
"380 391 OFFCURVE",
"317 391 CURVE SMOOTH",
"297 391 OFFCURVE",
"285 396 OFFCURVE",
"260 408 CURVE",
"260 318 LINE",
"404 318 LINE",
"404 344 LINE"
);
},
{
closed = 1;
nodes = (
"596 0 LINE",
"610 48 OFFCURVE",
"616 96 OFFCURVE",
"616 150 CURVE SMOOTH",
"616 277 OFFCURVE",
"498 302 OFFCURVE",
"389 341 CURVE SMOOTH",
"341 358 OFFCURVE",
"294 385 OFFCURVE",
"260 408 CURVE SMOOTH",
"228 430 OFFCURVE",
"207 456 OFFCURVE",
"207 492 CURVE",
"89 491 LINE",
"89 424 OFFCURVE",
"107 337 OFFCURVE",
"139 306 CURVE",
"193 320 LINE",
"240 245 OFFCURVE",
"481 238 OFFCURVE",
"481 112 CURVE SMOOTH",
"481 79 OFFCURVE",
"475 45 OFFCURVE",
"459 0 CURVE"
);
}
);
width = 656;
},
{
anchors = (
{
name = bottom;
position = "{328, 0}";
},
{
name = top;
position = "{288, 700}";
}
);
associatedMasterId = "A956090A-BD7D-40E0-8141-33D8BAD0406F";
layerId = "B6401B8F-0168-4CF6-9B5F-672B69ADAEA1";
name = "Jan 5 20, 23:00";
paths = (
{
closed = 1;
nodes = (
"203 91 OFFCURVE",
"188 198 OFFCURVE",
"188 304 CURVE SMOOTH",
"188 451 OFFCURVE",
"207 597 OFFCURVE",
"243 700 CURVE",
"135 700 LINE",
"80 540 OFFCURVE",
"45 384 OFFCURVE",
"45 216 CURVE SMOOTH",
"45 142 OFFCURVE",
"53 69 OFFCURVE",
"70 0 CURVE",
"242 0 LINE"
);
},
{
closed = 1;
nodes = (
"486 344 OFFCURVE",
"539 391 OFFCURVE",
"539 529 CURVE SMOOTH",
"539 611 OFFCURVE",
"440 700 OFFCURVE",
"243 700 CURVE",
"135 700 LINE",
"135 491 LINE",
"207 491 LINE",
"207 516 OFFCURVE",
"220 612 OFFCURVE",
"253 629 CURVE",
"179 581 LINE",
"210 595 OFFCURVE",
"234 604 OFFCURVE",
"297 604 CURVE SMOOTH",
"370 604 OFFCURVE",
"410 557 OFFCURVE",
"410 500 CURVE SMOOTH",
"410 451 OFFCURVE",
"380 391 OFFCURVE",
"317 391 CURVE SMOOTH",
"297 391 OFFCURVE",
"285 396 OFFCURVE",
"260 408 CURVE",
"260 318 LINE",
"404 318 LINE",
"404 344 LINE"
);
},
{
closed = 1;
nodes = (
"596 0 LINE",
"610 48 OFFCURVE",
"616 96 OFFCURVE",
"616 150 CURVE SMOOTH",
"616 277 OFFCURVE",
"498 302 OFFCURVE",
"389 341 CURVE SMOOTH",
"341 358 OFFCURVE",
"294 385 OFFCURVE",
"260 408 CURVE SMOOTH",
"228 430 OFFCURVE",
"207 456 OFFCURVE",
"207 492 CURVE",
"89 491 LINE",
"89 424 OFFCURVE",
"107 337 OFFCURVE",
"139 306 CURVE",
"193 320 LINE",
"240 245 OFFCURVE",
"481 238 OFFCURVE",
"481 112 CURVE SMOOTH",
"481 79 OFFCURVE",
"475 45 OFFCURVE",
"459 0 CURVE"
);
}
);
width = 656;
},
{
anchors = (
{
name = bottom;
position = "{328, 0}";
},
{
name = top;
position = "{288, 700}";
}
);
layerId = "A956090A-BD7D-40E0-8141-33D8BAD0406F";
paths = (
{
closed = 1;
nodes = (
"89 474 OFFCURVE",
"107 367 OFFCURVE",
"139 336 CURVE",
"193 350 LINE",
"260 243 OFFCURVE",
"472 278 OFFCURVE",
"472 134 CURVE SMOOTH",
"472 96 OFFCURVE",
"456 52 OFFCURVE",
"429 0 CURVE",
"569 0 LINE",
"600 74 OFFCURVE",
"612 131 OFFCURVE",
"612 177 CURVE SMOOTH",
"612 270 OFFCURVE",
"549 319 OFFCURVE",
"399 371 CURVE SMOOTH",
"351 388 OFFCURVE",
"294 415 OFFCURVE",
"260 438 CURVE SMOOTH",
"228 460 OFFCURVE",
"207 486 OFFCURVE",
"207 542 CURVE",
"89 541 LINE"
);
},
{
closed = 1;
nodes = (
"203 91 OFFCURVE",
"188 198 OFFCURVE",
"188 304 CURVE SMOOTH",
"188 451 OFFCURVE",
"207 597 OFFCURVE",
"243 700 CURVE",
"135 700 LINE",
"80 540 OFFCURVE",
"45 384 OFFCURVE",
"45 216 CURVE SMOOTH",
"45 142 OFFCURVE",
"53 69 OFFCURVE",
"70 0 CURVE",
"242 0 LINE"
);
},
{
closed = 1;
nodes = (
"496 370 OFFCURVE",
"559 455 OFFCURVE",
"559 543 CURVE SMOOTH",
"559 625 OFFCURVE",
"490 700 OFFCURVE",
"243 700 CURVE",
"135 700 LINE",
"135 542 LINE",
"207 542 LINE",
"207 567 OFFCURVE",
"230 612 OFFCURVE",
"253 629 CURVE",
"179 581 LINE",
"210 595 OFFCURVE",
"244 604 OFFCURVE",
"307 604 CURVE SMOOTH",
"391 604 OFFCURVE",
"427 562 OFFCURVE",
"427 514 CURVE SMOOTH",
"427 460 OFFCURVE",
"357 391 OFFCURVE",
"260 438 CURVE",
"260 351 LINE",
"414 341 LINE",
"414 370 LINE"
);
}
);
width = 637;
},
{
anchors = (
{
name = bottom;
position = "{328, 0}";
},
{
name = top;
position = "{288, 700}";
}
);
associatedMasterId = "A956090A-BD7D-40E0-8141-33D8BAD0406F";
layerId = "01F628C0-9272-42CA-891E-E8FE4C6E5200";
name = "Jan 5 20, 23:02";
paths = (
{
closed = 1;
nodes = (
"89 474 OFFCURVE",
"107 367 OFFCURVE",
"139 336 CURVE",
"193 350 LINE",
"240 275 OFFCURVE",
"481 268 OFFCURVE",
"481 142 CURVE SMOOTH",
"481 98 OFFCURVE",
"471 73 OFFCURVE",
"439 0 CURVE",
"578 0 LINE",
"605 67 OFFCURVE",
"616 107 OFFCURVE",
"616 180 CURVE SMOOTH",
"616 307 OFFCURVE",
"498 332 OFFCURVE",
"389 371 CURVE SMOOTH",
"341 388 OFFCURVE",
"294 415 OFFCURVE",
"260 438 CURVE SMOOTH",
"228 460 OFFCURVE",
"207 486 OFFCURVE",
"207 542 CURVE",
"89 541 LINE"
);
},
{
closed = 1;
nodes = (
"203 91 OFFCURVE",
"188 198 OFFCURVE",
"188 304 CURVE SMOOTH",
"188 451 OFFCURVE",
"207 597 OFFCURVE",
"243 700 CURVE",
"135 700 LINE",
"80 540 OFFCURVE",
"45 384 OFFCURVE",
"45 216 CURVE SMOOTH",
"45 142 OFFCURVE",
"53 69 OFFCURVE",
"70 0 CURVE",
"242 0 LINE"
);
},
{
closed = 1;
nodes = (
"486 370 OFFCURVE",
"549 445 OFFCURVE",
"549 533 CURVE SMOOTH",
"549 615 OFFCURVE",
"480 700 OFFCURVE",
"243 700 CURVE",
"135 700 LINE",
"135 542 LINE",
"207 542 LINE",
"207 567 OFFCURVE",
"230 612 OFFCURVE",
"253 629 CURVE",
"179 581 LINE",
"210 595 OFFCURVE",
"244 604 OFFCURVE",
"307 604 CURVE SMOOTH",
"381 604 OFFCURVE",
"417 552 OFFCURVE",
"417 504 CURVE SMOOTH",
"417 450 OFFCURVE",
"357 391 OFFCURVE",
"260 438 CURVE",
"260 351 LINE",
"404 341 LINE",
"404 370 LINE"
);
}
);
width = 656;
}
);
leftKerningGroup = H;
unicode = 0052;
},
{
glyphname = S;
lastChange = "2020-05-03 19:39:34 +0000";
layers = (
{
anchors = (
{
name = bottom;
position = "{271, 0}";
},
{
name = top;
position = "{288, 700}";
}
);
background = {
backgroundImage = {
crop = "{{0, 0}, {174.48, 227.28}}";
imagePath = "../../Atelier typographique liège/000DOCATELIERFIG/01-CROQUIS/2/S.jpg";
locked = "1";
transform = "{3.80366, 0, 0, 3.80366, -82.906, -107.995}";
};
};
layerId = "A956090A-BD7D-40E0-8141-33D8BAD0406F";
paths = (
{
closed = 1;
nodes = (
"464 688 LINE",
"425 716 OFFCURVE",
"356 730 OFFCURVE",
"293 730 CURVE SMOOTH",
"175 730 OFFCURVE",
"71 687 OFFCURVE",
"71 576 CURVE SMOOTH",
"71 481 OFFCURVE",
"144 410 OFFCURVE",
"258 338 CURVE SMOOTH",
"332 291 OFFCURVE",
"392 230 OFFCURVE",
"392 184 CURVE SMOOTH",
"392 147 OFFCURVE",
"366 117 OFFCURVE",
"318 117 CURVE SMOOTH",
"243 117 OFFCURVE",
"163 142 OFFCURVE",
"90 172 CURVE",
"30 29 LINE",
"91 0 OFFCURVE",
"188 -20 OFFCURVE",
"271 -20 CURVE SMOOTH",
"415 -20 OFFCURVE",
"545 33 OFFCURVE",
"545 174 CURVE SMOOTH",
"545 285 OFFCURVE",
"421 378 OFFCURVE",
"332 440 CURVE SMOOTH",
"258 492 OFFCURVE",
"220 525 OFFCURVE",
"220 567 CURVE SMOOTH",
"220 596 OFFCURVE",
"250 621 OFFCURVE",
"297 621 CURVE SMOOTH",
"334 621 OFFCURVE",
"378 609 OFFCURVE",
"413 583 CURVE"
);
}
);
width = 575;
},
{
associatedMasterId = "A956090A-BD7D-40E0-8141-33D8BAD0406F";
background = {
backgroundImage = {
crop = "{{0, 0}, {174.48, 227.28}}";
imagePath = "../../Atelier typographique liège/000DOCATELIERFIG/01-CROQUIS/2/S.jpg";
locked = "1";
transform = "{3.80366, 0, 0, 3.80366, -82.906, -107.995}";
};
};
layerId = "7BCB8695-83A2-4566-BA24-FFC6DD722313";
name = "Feb 16 19, 18:58";
paths = (
{
closed = 1;
nodes = (
"454 698 LINE",
"414 726 OFFCURVE",
"354 741 OFFCURVE",
"294 741 CURVE SMOOTH",
"180 741 OFFCURVE",
"62 690 OFFCURVE",
"62 590 CURVE SMOOTH",
"62 486 OFFCURVE",
"163 414 OFFCURVE",
"248 338 CURVE SMOOTH",
"322 272 OFFCURVE",
"392 221 OFFCURVE",
"392 155 CURVE SMOOTH",
"392 111 OFFCURVE",
"343 88 OFFCURVE",
"308 88 CURVE SMOOTH",
"273 88 OFFCURVE",
"223 86 OFFCURVE",
"80 158 CURVE",
"20 5 LINE",
"78 -22 OFFCURVE",
"210 -43 OFFCURVE",
"299 -43 CURVE SMOOTH",
"430 -43 OFFCURVE",
"535 23 OFFCURVE",
"535 145 CURVE SMOOTH",
"535 256 OFFCURVE",
"411 358 OFFCURVE",
"322 440 CURVE SMOOTH",
"257 500 OFFCURVE",
"200 535 OFFCURVE",
"200 577 CURVE SMOOTH",
"200 606 OFFCURVE",
"240 631 OFFCURVE",
"287 631 CURVE SMOOTH",
"324 631 OFFCURVE",
"364 625 OFFCURVE",
"403 593 CURVE"
);
}
);
width = 535;
},
{
associatedMasterId = "A956090A-BD7D-40E0-8141-33D8BAD0406F";
background = {
backgroundImage = {
crop = "{{0, 0}, {174.48, 227.28}}";
imagePath = "../../Atelier typographique liège/000DOCATELIERFIG/01-CROQUIS/2/S.jpg";
locked = "1";
transform = "{3.80366, 0, 0, 3.80366, -82.906, -107.995}";
};
};
layerId = "DE852042-FB38-4AFD-A886-C0D464C28834";
name = "Feb 16 19, 19:03";
paths = (
{
closed = 1;
nodes = (
"454 698 LINE",
"414 726 OFFCURVE",
"354 741 OFFCURVE",
"294 741 CURVE SMOOTH",
"180 741 OFFCURVE",
"62 690 OFFCURVE",
"62 590 CURVE SMOOTH",
"62 486 OFFCURVE",
"163 414 OFFCURVE",
"248 338 CURVE SMOOTH",
"322 272 OFFCURVE",
"392 221 OFFCURVE",
"392 155 CURVE SMOOTH",
"392 111 OFFCURVE",
"343 88 OFFCURVE",
"308 88 CURVE SMOOTH",
"273 88 OFFCURVE",
"223 86 OFFCURVE",
"80 158 CURVE",
"20 5 LINE",
"78 -22 OFFCURVE",
"210 -43 OFFCURVE",
"299 -43 CURVE SMOOTH",
"430 -43 OFFCURVE",
"535 23 OFFCURVE",
"535 145 CURVE SMOOTH",
"535 256 OFFCURVE",
"411 358 OFFCURVE",
"322 440 CURVE SMOOTH",
"257 500 OFFCURVE",
"200 535 OFFCURVE",
"200 577 CURVE SMOOTH",
"200 606 OFFCURVE",
"240 631 OFFCURVE",
"287 631 CURVE SMOOTH",
"324 631 OFFCURVE",
"364 625 OFFCURVE",
"403 593 CURVE"
);
}
);
width = 555;
},
{
associatedMasterId = "A956090A-BD7D-40E0-8141-33D8BAD0406F";
background = {
backgroundImage = {
crop = "{{0, 0}, {174.48, 227.28}}";
imagePath = "../../Atelier typographique liège/000DOCATELIERFIG/01-CROQUIS/2/S.jpg";
locked = "1";
transform = "{3.80366, 0, 0, 3.80366, -82.906, -107.995}";
};
};
layerId = "8A04882F-8AED-4E18-8603-848E2BACD54F";
name = "Feb 16 19, 19:17";
paths = (
{
closed = 1;
nodes = (
"454 698 LINE",
"414 726 OFFCURVE",
"354 741 OFFCURVE",
"294 741 CURVE SMOOTH",
"180 741 OFFCURVE",
"62 690 OFFCURVE",
"62 590 CURVE SMOOTH",
"62 486 OFFCURVE",
"163 414 OFFCURVE",
"248 338 CURVE SMOOTH",
"322 272 OFFCURVE",
"392 221 OFFCURVE",
"392 155 CURVE SMOOTH",
"392 111 OFFCURVE",
"343 88 OFFCURVE",
"308 88 CURVE SMOOTH",
"273 88 OFFCURVE",
"223 86 OFFCURVE",
"80 158 CURVE",
"20 5 LINE",
"78 -22 OFFCURVE",
"180 -43 OFFCURVE",
"269 -43 CURVE SMOOTH",
"440 -43 OFFCURVE",
"535 23 OFFCURVE",
"535 145 CURVE SMOOTH",
"535 256 OFFCURVE",
"411 358 OFFCURVE",
"322 440 CURVE SMOOTH",
"257 500 OFFCURVE",
"200 535 OFFCURVE",
"200 577 CURVE SMOOTH",
"200 606 OFFCURVE",
"240 631 OFFCURVE",
"287 631 CURVE SMOOTH",
"324 631 OFFCURVE",
"364 625 OFFCURVE",
"403 593 CURVE"
);
}
);
width = 555;
},
{
associatedMasterId = "A956090A-BD7D-40E0-8141-33D8BAD0406F";
background = {
backgroundImage = {
crop = "{{0, 0}, {174.48, 227.28}}";
imagePath = "../../Atelier typographique liège/000DOCATELIERFIG/01-CROQUIS/2/S.jpg";
locked = "1";
transform = "{3.80366, 0, 0, 3.80366, -82.906, -107.995}";
};
};
layerId = "DB64CD4D-F3D5-4C20-A6A0-15347A3E7FBF";
name = "Feb 16 19, 19:19";
paths = (
{
closed = 1;
nodes = (
"454 698 LINE",
"415 726 OFFCURVE",
"333 740 OFFCURVE",
"270 740 CURVE SMOOTH",
"158 740 OFFCURVE",
"62 683 OFFCURVE",
"62 590 CURVE SMOOTH",
"62 486 OFFCURVE",
"163 414 OFFCURVE",
"248 338 CURVE SMOOTH",
"322 272 OFFCURVE",
"392 211 OFFCURVE",
"392 165 CURVE SMOOTH",
"392 121 OFFCURVE",
"353 98 OFFCURVE",
"308 98 CURVE SMOOTH",
"273 98 OFFCURVE",
"223 91 OFFCURVE",
"80 153 CURVE",
"20 0 LINE",
"87 -25 OFFCURVE",
"166 -39 OFFCURVE",
"241 -39 CURVE SMOOTH",
"395 -39 OFFCURVE",
"535 20 OFFCURVE",
"535 165 CURVE SMOOTH",
"535 276 OFFCURVE",
"411 358 OFFCURVE",
"322 440 CURVE SMOOTH",
"257 500 OFFCURVE",
"200 535 OFFCURVE",
"200 577 CURVE SMOOTH",
"200 606 OFFCURVE",
"240 631 OFFCURVE",
"287 631 CURVE SMOOTH",
"324 631 OFFCURVE",
"364 625 OFFCURVE",
"403 593 CURVE"
);
}
);
width = 555;
},
{
associatedMasterId = "A956090A-BD7D-40E0-8141-33D8BAD0406F";
background = {
backgroundImage = {
crop = "{{0, 0}, {174.48, 227.28}}";
imagePath = "../../Atelier typographique liège/000DOCATELIERFIG/01-CROQUIS/2/S.jpg";
locked = "1";
transform = "{3.80366, 0, 0, 3.80366, -82.906, -107.995}";
};
};
layerId = "82373262-F3E2-4644-8DF6-0A8157FB570C";
name = "Feb 17 19, 10:41";
paths = (
{
closed = 1;
nodes = (
"454 688 LINE",
"415 716 OFFCURVE",
"333 730 OFFCURVE",
"270 730 CURVE SMOOTH",
"158 730 OFFCURVE",
"62 673 OFFCURVE",
"62 580 CURVE SMOOTH",
"62 476 OFFCURVE",
"152 399 OFFCURVE",
"248 338 CURVE SMOOTH",
"322 291 OFFCURVE",
"392 240 OFFCURVE",
"392 194 CURVE SMOOTH",
"392 150 OFFCURVE",
"353 127 OFFCURVE",
"308 127 CURVE SMOOTH",
"273 127 OFFCURVE",
"223 120 OFFCURVE",
"80 182 CURVE",
"20 29 LINE",
"87 4 OFFCURVE",
"166 -10 OFFCURVE",
"241 -10 CURVE SMOOTH",
"395 -10 OFFCURVE",
"535 49 OFFCURVE",
"535 194 CURVE SMOOTH",
"535 305 OFFCURVE",
"411 378 OFFCURVE",
"322 440 CURVE SMOOTH",
"248 492 OFFCURVE",
"200 525 OFFCURVE",
"200 567 CURVE SMOOTH",
"200 596 OFFCURVE",
"240 621 OFFCURVE",
"287 621 CURVE SMOOTH",
"324 621 OFFCURVE",
"364 615 OFFCURVE",
"403 583 CURVE"
);
}
);
width = 555;
},
{
anchors = (
{
name = bottom;
position = "{288, 0}";
},
{
name = top;
position = "{288, 700}";
}
);
associatedMasterId = "A956090A-BD7D-40E0-8141-33D8BAD0406F";
background = {
backgroundImage = {
crop = "{{0, 0}, {174.48, 227.28}}";
imagePath = "../../Atelier typographique liège/000DOCATELIERFIG/01-CROQUIS/2/S.jpg";
locked = "1";
transform = "{3.80366, 0, 0, 3.80366, -82.906, -107.995}";
};
};
layerId = "8474610A-D274-4529-94FD-977B3573DC5A";
name = "Feb 21 19, 12:09";
paths = (
{
closed = 1;
nodes = (
"464 688 LINE",
"425 716 OFFCURVE",
"346 730 OFFCURVE",
"283 730 CURVE SMOOTH",
"171 730 OFFCURVE",
"72 673 OFFCURVE",
"72 580 CURVE SMOOTH",
"72 476 OFFCURVE",
"162 399 OFFCURVE",
"258 338 CURVE SMOOTH",
"332 291 OFFCURVE",
"392 240 OFFCURVE",
"392 194 CURVE SMOOTH",
"392 150 OFFCURVE",
"363 127 OFFCURVE",
"318 127 CURVE SMOOTH",
"283 127 OFFCURVE",
"233 120 OFFCURVE",
"90 182 CURVE",
"30 29 LINE",
"101 2 OFFCURVE",
"191 -16 OFFCURVE",
"277 -16 CURVE SMOOTH",
"418 -16 OFFCURVE",
"545 35 OFFCURVE",
"545 184 CURVE SMOOTH",
"545 295 OFFCURVE",
"421 378 OFFCURVE",
"332 440 CURVE SMOOTH",
"258 492 OFFCURVE",
"220 525 OFFCURVE",
"220 567 CURVE SMOOTH",
"220 596 OFFCURVE",
"250 621 OFFCURVE",
"297 621 CURVE SMOOTH",
"334 621 OFFCURVE",
"374 615 OFFCURVE",
"413 583 CURVE"
);
}
);
width = 575;
}
);
leftKerningGroup = S;
rightKerningGroup = S;
unicode = 0053;
},
{
glyphname = Germandbls;
lastChange = "2020-01-01 21:42:57 +0000";
layers = (
{
layerId = "A956090A-BD7D-40E0-8141-33D8BAD0406F";
paths = (
{
closed = 1;
nodes = (
"225 0 LINE",
"247 49 OFFCURVE",
"258 111 OFFCURVE",
"258 179 CURVE SMOOTH",
"258 307 OFFCURVE",
"202 385 OFFCURVE",
"202 472 CURVE SMOOTH",
"202 539 OFFCURVE",
"256 610 OFFCURVE",
"330 610 CURVE SMOOTH",
"362 610 OFFCURVE",
"390 586 OFFCURVE",
"390 545 CURVE SMOOTH",
"390 504 OFFCURVE",
"362 446 OFFCURVE",
"278 379 CURVE",
"313 293 LINE",
"404 344 OFFCURVE",
"509 436 OFFCURVE",
"509 558 CURVE SMOOTH",
"509 665 OFFCURVE",
"414 720 OFFCURVE",
"330 720 CURVE SMOOTH",
"228 720 OFFCURVE",
"60 664 OFFCURVE",
"60 446 CURVE SMOOTH",
"60 344 OFFCURVE",
"112 285 OFFCURVE",
"112 197 CURVE SMOOTH",
"112 109 OFFCURVE",
"102 57 OFFCURVE",
"50 0 CURVE"
);
},
{
closed = 1;
nodes = (
"325 0 LINE",
"345 -13 OFFCURVE",
"371 -19 OFFCURVE",
"400 -19 CURVE SMOOTH",
"490 -19 OFFCURVE",
"603 47 OFFCURVE",
"603 213 CURVE SMOOTH",
"603 344 OFFCURVE",
"508 414 OFFCURVE",
"400 414 CURVE SMOOTH",
"372 414 OFFCURVE",
"343 408 OFFCURVE",
"315 395 CURVE",
"313 293 LINE",
"333 305 OFFCURVE",
"354 310 OFFCURVE",
"375 310 CURVE SMOOTH",
"440 310 OFFCURVE",
"481 264 OFFCURVE",
"481 213 CURVE SMOOTH",
"481 157 OFFCURVE",
"448 126 OFFCURVE",
"407 126 CURVE SMOOTH",
"381 126 OFFCURVE",
"351 139 OFFCURVE",
"325 165 CURVE"
);
}
);
width = 638;
},
{
associatedMasterId = "A956090A-BD7D-40E0-8141-33D8BAD0406F";
backgroundImage = {
crop = "{{0, 0}, {170.88, 213.84}}";
imagePath = "../../Atelier typographique liège/000DOCATELIERFIG/01-CROQUIS/6/ß.jpg";
locked = "1";
transform = "{3.791, 0, 0, 3.791, 1, -55.359}";
};
layerId = "FD080E4B-FA0B-4DE7-8AB0-E421A5CF6910";
name = "Feb 21 19, 13:55";
paths = (
{
closed = 1;
nodes = (
"214 0 LINE",
"236 49 OFFCURVE",
"247 111 OFFCURVE",
"247 179 CURVE SMOOTH",
"247 247 OFFCURVE",
"191 385 OFFCURVE",
"191 472 CURVE SMOOTH",
"191 539 OFFCURVE",
"255 610 OFFCURVE",
"329 610 CURVE SMOOTH",
"361 610 OFFCURVE",
"389 586 OFFCURVE",
"389 545 CURVE SMOOTH",
"389 504 OFFCURVE",
"361 446 OFFCURVE",
"277 379 CURVE",
"312 293 LINE",
"403 344 OFFCURVE",
"508 436 OFFCURVE",
"508 558 CURVE SMOOTH",
"508 665 OFFCURVE",
"413 720 OFFCURVE",
"329 720 CURVE SMOOTH",
"227 720 OFFCURVE",
"59 664 OFFCURVE",
"59 446 CURVE SMOOTH",
"59 344 OFFCURVE",
"111 285 OFFCURVE",
"111 197 CURVE SMOOTH",
"111 109 OFFCURVE",
"101 57 OFFCURVE",
"49 0 CURVE"
);
},
{
closed = 1;
nodes = (
"324 0 LINE",
"344 -13 OFFCURVE",
"370 -19 OFFCURVE",
"399 -19 CURVE SMOOTH",
"489 -19 OFFCURVE",
"602 47 OFFCURVE",
"602 213 CURVE SMOOTH",
"602 344 OFFCURVE",
"507 414 OFFCURVE",
"399 414 CURVE SMOOTH",
"371 414 OFFCURVE",
"342 408 OFFCURVE",
"314 395 CURVE",
"312 293 LINE",
"332 305 OFFCURVE",
"353 310 OFFCURVE",
"374 310 CURVE SMOOTH",
"439 310 OFFCURVE",
"480 264 OFFCURVE",
"480 213 CURVE SMOOTH",
"480 157 OFFCURVE",
"447 126 OFFCURVE",
"406 126 CURVE SMOOTH",
"380 126 OFFCURVE",
"350 139 OFFCURVE",
"324 165 CURVE"
);
}
);
width = 600;
}
);
unicode = 1E9E;
},
{
glyphname = T;
lastChange = "2020-05-03 19:42:04 +0000";
layers = (
{
anchors = (
{
name = bottom;
position = "{386, 0}";
},
{
name = center;
position = "{386, 350}";
},
{
name = top;
position = "{386, 700}";
}
);
associatedMasterId = "A956090A-BD7D-40E0-8141-33D8BAD0406F";
background = {
backgroundImage = {
crop = "{{0, 0}, {170.16, 199}}";
imagePath = "../../Atelier typographique liège/000DOCATELIERFIG/01-CROQUIS/2/T.jpg";
locked = "1";
transform = "{3.79274, 0, 0, 3.79274, -47, -55}";
};
};
layerId = "99BE5F8C-99DA-441D-8325-38E5CD8E6B03";
name = "Feb 21 19, 18:46";
paths = (
{
closed = 1;
nodes = (
"347 700 LINE",
"347 613 OFFCURVE",
"309 553 OFFCURVE",
"309 483 CURVE SMOOTH",
"309 385 OFFCURVE",
"333 279 OFFCURVE",
"333 189 CURVE SMOOTH",
"333 123 OFFCURVE",
"317 78 OFFCURVE",
"282 0 CURVE",
"454 0 LINE",
"474 38 OFFCURVE",
"484 83 OFFCURVE",
"484 135 CURVE SMOOTH",
"484 278 OFFCURVE",
"434 327 OFFCURVE",
"434 483 CURVE SMOOTH",
"434 553 OFFCURVE",
"437 595 OFFCURVE",
"458 700 CURVE"
);
},
{
closed = 1;
nodes = (
"440 542 LINE",
"499 486 OFFCURVE",
"566 457 OFFCURVE",
"625 457 CURVE SMOOTH",
"662 457 OFFCURVE",
"690 464 OFFCURVE",
"721 479 CURVE",
"681 610 LINE",
"658 599 OFFCURVE",
"619 592 OFFCURVE",
"590 592 CURVE SMOOTH",
"520 592 OFFCURVE",
"458 625 OFFCURVE",
"458 700 CURVE",
"387 700 LINE",
"387 529 LINE",
"422 529 LINE"
);
},
{
closed = 1;
nodes = (
"346 592 LINE",
"387 700 LINE",
"347 700 LINE",
"347 629 OFFCURVE",
"257 592 OFFCURVE",
"180 592 CURVE SMOOTH",
"149 592 OFFCURVE",
"119 598 OFFCURVE",
"94 610 CURVE",
"54 489 LINE",
"85 474 OFFCURVE",
"131 467 OFFCURVE",
"158 467 CURVE SMOOTH",
"224 467 OFFCURVE",
"303 493 OFFCURVE",
"363 563 CURVE"
);
},
{
closed = 1;
nodes = (
"416 322 LINE",
"475 266 OFFCURVE",
"542 237 OFFCURVE",
"601 237 CURVE SMOOTH",
"638 237 OFFCURVE",
"666 244 OFFCURVE",
"697 259 CURVE",
"657 390 LINE",
"634 379 OFFCURVE",
"595 372 OFFCURVE",
"566 372 CURVE SMOOTH",
"496 372 OFFCURVE",
"434 405 OFFCURVE",
"434 480 CURVE",
"363 480 LINE",
"363 309 LINE",
"398 309 LINE"
);
},
{
closed = 1;
nodes = (
"322 372 LINE",
"363 480 LINE",
"323 480 LINE",
"323 409 OFFCURVE",
"233 372 OFFCURVE",
"156 372 CURVE SMOOTH",
"125 372 OFFCURVE",
"95 378 OFFCURVE",
"70 390 CURVE",
"30 269 LINE",
"61 254 OFFCURVE",
"107 247 OFFCURVE",
"134 247 CURVE SMOOTH",
"200 247 OFFCURVE",
"279 273 OFFCURVE",
"339 343 CURVE"
);
}
);
width = 751;
},
{
anchors = (
{
name = bottom;
position = "{253, 0}";
},
{
name = center;
position = "{333, 250}";
},
{
name = top;
position = "{298, 700}";
},
{
name = topright;
position = "{623, 500}";
}
);
associatedMasterId = "A956090A-BD7D-40E0-8141-33D8BAD0406F";
background = {
backgroundImage = {
crop = "{{0, 0}, {170.16, 199}}";
imagePath = "../../Atelier typographique liège/000DOCATELIERFIG/01-CROQUIS/2/T.jpg";
locked = "1";
transform = "{3.79274, 0, 0, 3.79274, -47, -55}";
};
};
layerId = "306198E2-95C1-4B5F-86D4-3E222BE3F909";
name = "Feb 23 19, 09:38";
paths = (
{
closed = 1;
nodes = (
"25 533 LINE",
"54 516 OFFCURVE",
"99 510 OFFCURVE",
"130 510 CURVE SMOOTH",
"195 510 OFFCURVE",
"253 539 OFFCURVE",
"343 569 CURVE SMOOTH",
"382 582 OFFCURVE",
"417 588 OFFCURVE",
"449 588 CURVE SMOOTH",
"526 588 OFFCURVE",
"584 556 OFFCURVE",
"621 538 CURVE",
"621 688 LINE",
"597 706 OFFCURVE",
"542 713 OFFCURVE",
"495 713 CURVE SMOOTH",
"402 713 OFFCURVE",
"266 652 OFFCURVE",
"174 652 CURVE SMOOTH",
"112 652 OFFCURVE",
"72 665 OFFCURVE",
"25 700 CURVE"
);
},
{
closed = 1;
nodes = (
"342 1 LINE",
"382 54 OFFCURVE",
"406 109 OFFCURVE",
"406 183 CURVE SMOOTH",
"406 287 OFFCURVE",
"339 377 OFFCURVE",
"339 451 CURVE SMOOTH",
"339 510 OFFCURVE",
"375 585 OFFCURVE",
"468 585 CURVE SMOOTH",
"508 585 OFFCURVE",
"559 571 OFFCURVE",
"621 538 CURVE",
"610 670 LINE",
"579 675 OFFCURVE",
"551 709 OFFCURVE",
"508 709 CURVE SMOOTH",
"501 709 OFFCURVE",
"416 687 OFFCURVE",
"340 640 CURVE",
"198 571 LINE",
"227 524 LINE",
"215 497 OFFCURVE",
"210 464 OFFCURVE",
"210 441 CURVE SMOOTH",
"210 369 OFFCURVE",
"258 331 OFFCURVE",
"258 227 CURVE SMOOTH",
"258 132 OFFCURVE",
"219 69 OFFCURVE",
"163 1 CURVE"
);
}
);
width = 646;
},
{
anchors = (
{
name = bottom;
position = "{253, 0}";
},
{
name = center;
position = "{333, 250}";
},
{
name = top;
position = "{298, 700}";
},
{
name = topright;
position = "{623, 500}";
}
);
associatedMasterId = "A956090A-BD7D-40E0-8141-33D8BAD0406F";
background = {
backgroundImage = {
crop = "{{0, 0}, {170.16, 199}}";
imagePath = "../../Atelier typographique liège/000DOCATELIERFIG/01-CROQUIS/2/T.jpg";
locked = "1";
transform = "{3.79274, 0, 0, 3.79274, -47, -55}";
};
};
layerId = "499A66D6-E129-425C-BC5C-2323C2E80329";
name = "Feb 23 19, 09:39";
paths = (
{
closed = 1;
nodes = (
"342 1 LINE",
"382 54 OFFCURVE",
"406 109 OFFCURVE",
"406 183 CURVE SMOOTH",
"406 287 OFFCURVE",
"339 377 OFFCURVE",
"339 451 CURVE SMOOTH",
"339 510 OFFCURVE",
"375 585 OFFCURVE",
"468 585 CURVE SMOOTH",
"508 585 OFFCURVE",
"559 571 OFFCURVE",
"621 538 CURVE",
"610 670 LINE",
"579 691 OFFCURVE",
"549 700 OFFCURVE",
"506 700 CURVE SMOOTH",
"499 700 OFFCURVE",
"416 687 OFFCURVE",
"340 640 CURVE",
"198 602 LINE",
"254 591 LINE",
"242 564 OFFCURVE",
"210 464 OFFCURVE",
"210 441 CURVE SMOOTH",
"210 369 OFFCURVE",
"258 331 OFFCURVE",
"258 227 CURVE SMOOTH",
"258 132 OFFCURVE",
"219 69 OFFCURVE",
"163 1 CURVE"
);
},
{
closed = 1;
nodes = (
"218 589 OFFCURVE",
"331 599 OFFCURVE",
"506 599 CURVE",
"506 700 LINE",
"25 700 LINE",
"74 547 LINE"
);
}
);
width = 646;
},
{
anchors = (
{
name = bottom;
position = "{233, 0}";
},
{
name = center;
position = "{313, 250}";
},
{
name = top;
position = "{278, 700}";
},
{
name = topright;
position = "{603, 500}";
}
);
background = {
backgroundImage = {
crop = "{{0, 0}, {170.16, 199}}";
imagePath = "../../Atelier typographique liège/000DOCATELIERFIG/01-CROQUIS/2/T.jpg";
locked = "1";
transform = "{3.79274, 0, 0, 3.79274, -67, -55}";
};
};
layerId = "A956090A-BD7D-40E0-8141-33D8BAD0406F";
paths = (
{
closed = 1;
nodes = (
"25 556 LINE",
"43 545 OFFCURVE",
"87 538 OFFCURVE",
"127 538 CURVE SMOOTH",
"190 538 OFFCURVE",
"263 549 OFFCURVE",
"323 569 CURVE SMOOTH",
"362 582 OFFCURVE",
"397 598 OFFCURVE",
"429 598 CURVE SMOOTH",
"506 598 OFFCURVE",
"560 556 OFFCURVE",
"581 538 CURVE",
"581 688 LINE",
"557 703 OFFCURVE",
"495 710 OFFCURVE",
"448 710 CURVE SMOOTH",
"337 710 OFFCURVE",
"221 680 OFFCURVE",
"130 680 CURVE SMOOTH",
"88 680 OFFCURVE",
"57 687 OFFCURVE",
"25 706 CURVE"
);
},
{
closed = 1;
nodes = (
"322 1 LINE",
"362 54 OFFCURVE",
"386 109 OFFCURVE",
"386 183 CURVE SMOOTH",
"386 287 OFFCURVE",
"319 377 OFFCURVE",
"319 451 CURVE SMOOTH",
"319 510 OFFCURVE",
"355 585 OFFCURVE",
"448 585 CURVE SMOOTH",
"488 585 OFFCURVE",
"529 571 OFFCURVE",
"581 538 CURVE",
"570 670 LINE",
"320 640 LINE",
"178 571 LINE",
"207 539 LINE",
"194 509 OFFCURVE",
"189 484 OFFCURVE",
"189 462 CURVE SMOOTH",
"189 371 OFFCURVE",
"238 321 OFFCURVE",
"238 227 CURVE SMOOTH",
"238 132 OFFCURVE",
"199 69 OFFCURVE",
"143 1 CURVE"
);
}
);
width = 606;
},
{
anchors = (
{
name = bottom;
position = "{253, 0}";
},
{
name = center;
position = "{333, 250}";
},
{
name = top;
position = "{298, 700}";
},
{
name = topright;
position = "{623, 500}";
}
);
associatedMasterId = "A956090A-BD7D-40E0-8141-33D8BAD0406F";
background = {
backgroundImage = {
crop = "{{0, 0}, {170.16, 199}}";
imagePath = "../../Atelier typographique liège/000DOCATELIERFIG/01-CROQUIS/2/T.jpg";
locked = "1";
transform = "{3.79274, 0, 0, 3.79274, -47, -55}";
};
};
layerId = "CF8A3A02-0C3B-4AD1-84EB-4C69205261E2";
name = "Jan 1 20, 21:51";
paths = (
{
closed = 1;
nodes = (
"25 533 LINE",
"54 516 OFFCURVE",
"99 510 OFFCURVE",
"130 510 CURVE SMOOTH",
"195 510 OFFCURVE",
"253 539 OFFCURVE",
"343 569 CURVE SMOOTH",
"382 582 OFFCURVE",
"417 588 OFFCURVE",
"449 588 CURVE SMOOTH",
"526 588 OFFCURVE",
"584 556 OFFCURVE",
"621 538 CURVE",
"621 688 LINE",
"597 706 OFFCURVE",
"542 713 OFFCURVE",
"495 713 CURVE SMOOTH",
"402 713 OFFCURVE",
"266 652 OFFCURVE",
"174 652 CURVE SMOOTH",
"112 652 OFFCURVE",
"72 665 OFFCURVE",
"25 700 CURVE"
);
},
{
closed = 1;
nodes = (
"342 1 LINE",
"382 54 OFFCURVE",
"406 109 OFFCURVE",
"406 183 CURVE SMOOTH",
"406 287 OFFCURVE",
"339 377 OFFCURVE",
"339 451 CURVE SMOOTH",
"339 510 OFFCURVE",
"375 585 OFFCURVE",
"468 585 CURVE SMOOTH",
"508 585 OFFCURVE",
"559 571 OFFCURVE",
"621 538 CURVE",
"610 670 LINE",
"579 675 OFFCURVE",
"551 709 OFFCURVE",
"508 709 CURVE SMOOTH",
"501 709 OFFCURVE",
"416 687 OFFCURVE",
"340 640 CURVE",
"198 571 LINE",
"227 524 LINE",
"215 497 OFFCURVE",
"210 464 OFFCURVE",
"210 441 CURVE SMOOTH",
"210 369 OFFCURVE",
"258 331 OFFCURVE",
"258 227 CURVE SMOOTH",
"258 132 OFFCURVE",
"219 69 OFFCURVE",
"163 1 CURVE"
);
}
);
width = 646;
},
{
anchors = (
{
name = bottom;
position = "{253, 0}";
},
{
name = center;
position = "{333, 250}";
},
{
name = top;
position = "{298, 700}";
},
{
name = topright;
position = "{623, 500}";
}
);
associatedMasterId = "A956090A-BD7D-40E0-8141-33D8BAD0406F";
background = {
backgroundImage = {
crop = "{{0, 0}, {170.16, 199}}";
imagePath = "../../Atelier typographique liège/000DOCATELIERFIG/01-CROQUIS/2/T.jpg";
locked = "1";
transform = "{3.79274, 0, 0, 3.79274, -47, -55}";
};
};
layerId = "0E513F9A-FDDC-4694-A0C8-DED8EC62389A";
name = "Jan 1 20, 21:52";
paths = (
{
closed = 1;
nodes = (
"25 561 LINE",
"54 544 OFFCURVE",
"99 538 OFFCURVE",
"130 538 CURVE SMOOTH",
"195 538 OFFCURVE",
"253 539 OFFCURVE",
"343 569 CURVE SMOOTH",
"382 582 OFFCURVE",
"417 588 OFFCURVE",
"449 588 CURVE SMOOTH",
"526 588 OFFCURVE",
"584 556 OFFCURVE",
"621 538 CURVE",
"621 688 LINE",
"597 703 OFFCURVE",
"542 710 OFFCURVE",
"495 710 CURVE SMOOTH",
"402 710 OFFCURVE",
"266 680 OFFCURVE",
"174 680 CURVE SMOOTH",
"112 680 OFFCURVE",
"72 693 OFFCURVE",
"25 728 CURVE"
);
},
{
closed = 1;
nodes = (
"342 1 LINE",
"382 54 OFFCURVE",
"406 109 OFFCURVE",
"406 183 CURVE SMOOTH",
"406 287 OFFCURVE",
"339 377 OFFCURVE",
"339 451 CURVE SMOOTH",
"339 510 OFFCURVE",
"375 585 OFFCURVE",
"468 585 CURVE SMOOTH",
"508 585 OFFCURVE",
"559 571 OFFCURVE",
"621 538 CURVE",
"610 670 LINE",
"579 675 OFFCURVE",
"551 706 OFFCURVE",
"508 706 CURVE SMOOTH",
"501 706 OFFCURVE",
"416 687 OFFCURVE",
"340 640 CURVE",
"198 571 LINE",
"227 524 LINE",
"215 497 OFFCURVE",
"210 464 OFFCURVE",
"210 441 CURVE SMOOTH",
"210 369 OFFCURVE",
"258 331 OFFCURVE",
"258 227 CURVE SMOOTH",
"258 132 OFFCURVE",
"219 69 OFFCURVE",
"163 1 CURVE"
);
}
);
width = 646;
}
);
leftKerningGroup = T;
rightKerningGroup = T;
unicode = 0054;
},
{
glyphname = U;
lastChange = "2020-01-06 09:19:19 +0000";
layers = (
{
anchors = (
{
name = bottom;
position = "{312, 0}";
},
{
name = ogonek;
position = "{562, 10}";
},
{
name = top;
position = "{312, 700}";
},
{
name = topright;
position = "{604, 700}";
}
);
background = {
backgroundImage = {
crop = "{{0, 0}, {184.8, 198.72}}";
imagePath = "../../Atelier typographique liège/000DOCATELIERFIG/01-CROQUIS/3/U.jpg";
locked = "1";
transform = "{3.79593, 0, 0, 3.79593, -50.475, -51.586}";
};
};
layerId = "A956090A-BD7D-40E0-8141-33D8BAD0406F";
paths = (
{
closed = 1;
nodes = (
"35 352 OFFCURVE",
"140 407 OFFCURVE",
"140 539 CURVE SMOOTH",
"140 618 OFFCURVE",
"85 693 OFFCURVE",
"73 701 CURVE",
"238 700 LINE",
"253 669 OFFCURVE",
"267 603 OFFCURVE",
"267 539 CURVE SMOOTH",
"267 381 OFFCURVE",
"177 352 OFFCURVE",
"177 229 CURVE SMOOTH",
"177 175 OFFCURVE",
"226 109 OFFCURVE",
"312 109 CURVE SMOOTH",
"398 109 OFFCURVE",
"447 175 OFFCURVE",
"447 229 CURVE SMOOTH",
"447 352 OFFCURVE",
"357 381 OFFCURVE",
"357 539 CURVE SMOOTH",
"357 603 OFFCURVE",
"371 669 OFFCURVE",
"386 700 CURVE",
"551 701 LINE",
"539 693 OFFCURVE",
"484 618 OFFCURVE",
"484 539 CURVE SMOOTH",
"484 407 OFFCURVE",
"589 352 OFFCURVE",
"589 209 CURVE SMOOTH",
"589 20 OFFCURVE",
"407 -10 OFFCURVE",
"312 -10 CURVE SMOOTH",
"217 -10 OFFCURVE",
"35 20 OFFCURVE",
"35 209 CURVE SMOOTH"
);
}
);
width = 624;
},
{
associatedMasterId = "A956090A-BD7D-40E0-8141-33D8BAD0406F";
background = {
backgroundImage = {
crop = "{{0, 0}, {184.8, 198.72}}";
imagePath = "../../Atelier typographique liège/000DOCATELIERFIG/01-CROQUIS/3/U.jpg";
locked = "1";
transform = "{3.79593, 0, 0, 3.79593, -50.475, -51.586}";
};
};
layerId = "C4C4F8D6-E24B-4053-9D35-6C5C00D1C881";
name = "Feb 16 19, 12:03";
paths = (
{
closed = 1;
nodes = (
"248 669 OFFCURVE",
"262 603 OFFCURVE",
"262 539 CURVE SMOOTH",
"262 381 OFFCURVE",
"152 327 OFFCURVE",
"152 184 CURVE SMOOTH",
"152 110 OFFCURVE",
"221 74 OFFCURVE",
"307 74 CURVE",
"307 -35 LINE",
"212 -35 OFFCURVE",
"40 -15 OFFCURVE",
"40 184 CURVE SMOOTH",
"40 347 OFFCURVE",
"145 407 OFFCURVE",
"145 539 CURVE SMOOTH",
"145 618 OFFCURVE",
"90 693 OFFCURVE",
"78 701 CURVE",
"233 700 LINE"
);
},
{
closed = 1;
nodes = (
"536 701 LINE",
"524 693 OFFCURVE",
"469 618 OFFCURVE",
"469 539 CURVE SMOOTH",
"469 407 OFFCURVE",
"574 347 OFFCURVE",
"574 184 CURVE SMOOTH",
"574 -15 OFFCURVE",
"402 -35 OFFCURVE",
"307 -35 CURVE",
"307 74 LINE",
"393 74 OFFCURVE",
"462 110 OFFCURVE",
"462 184 CURVE SMOOTH",
"462 327 OFFCURVE",
"352 381 OFFCURVE",
"352 539 CURVE SMOOTH",
"352 603 OFFCURVE",
"366 669 OFFCURVE",
"381 700 CURVE"
);
}
);
width = 614;
}
);
leftKerningGroup = U;
rightKerningGroup = U;
unicode = 0055;
},
{
glyphname = V;
lastChange = "2020-01-06 09:12:20 +0000";
layers = (
{
anchors = (
{
name = bottom;
position = "{306, 0}";
},
{
name = top;
position = "{306, 700}";
}
);
layerId = "A956090A-BD7D-40E0-8141-33D8BAD0406F";
paths = (
{
closed = 1;
nodes = (
"40 285 OFFCURVE",
"103 168 OFFCURVE",
"249 0 CURVE",
"362 0 LINE",
"412 143 OFFCURVE",
"571 285 OFFCURVE",
"571 430 CURVE SMOOTH",
"571 507 OFFCURVE",
"554 593 OFFCURVE",
"507 700 CURVE",
"351 700 LINE",
"399 598 OFFCURVE",
"417 507 OFFCURVE",
"417 425 CURVE SMOOTH",
"417 293 OFFCURVE",
"338 194 OFFCURVE",
"289 108 CURVE",
"283 108 LINE",
"232 192 OFFCURVE",
"194 293 OFFCURVE",
"194 428 CURVE SMOOTH",
"194 507 OFFCURVE",
"212 598 OFFCURVE",
"260 700 CURVE",
"104 700 LINE",
"57 593 OFFCURVE",
"40 507 OFFCURVE",
"40 428 CURVE SMOOTH"
);
}
);
width = 611;
},
{
associatedMasterId = "A956090A-BD7D-40E0-8141-33D8BAD0406F";
layerId = "0AF9C2B2-B162-44B3-B7AF-8FF4DEE12755";
name = "Feb 16 19, 19:43";
paths = (
{
closed = 1;
nodes = (
"290 95 OFFCURVE",
"199 234 OFFCURVE",
"199 425 CURVE SMOOTH",
"199 507 OFFCURVE",
"217 598 OFFCURVE",
"265 700 CURVE",
"109 700 LINE",
"62 593 OFFCURVE",
"40 507 OFFCURVE",
"40 430 CURVE SMOOTH",
"40 285 OFFCURVE",
"108 168 OFFCURVE",
"254 0 CURVE",
"367 0 LINE"
);
},
{
closed = 1;
nodes = (
"367 0 LINE",
"513 168 OFFCURVE",
"581 285 OFFCURVE",
"581 430 CURVE SMOOTH",
"581 507 OFFCURVE",
"559 593 OFFCURVE",
"512 700 CURVE",
"356 700 LINE",
"404 598 OFFCURVE",
"422 507 OFFCURVE",
"422 425 CURVE SMOOTH",
"422 234 OFFCURVE",
"331 95 OFFCURVE",
"254 0 CURVE"
);
}
);
width = 621;
},
{
anchors = (
{
name = bottom;
position = "{306, 0}";
},
{
name = top;
position = "{306, 700}";
}
);
associatedMasterId = "A956090A-BD7D-40E0-8141-33D8BAD0406F";
layerId = "B9A08F44-3074-48FD-A8D3-18B5334FDCE6";
name = "Feb 21 19, 13:37";
paths = (
{
closed = 1;
nodes = (
"362 0 LINE",
"362 113 OFFCURVE",
"571 285 OFFCURVE",
"571 430 CURVE SMOOTH",
"571 507 OFFCURVE",
"554 593 OFFCURVE",
"507 700 CURVE",
"351 700 LINE",
"399 598 OFFCURVE",
"417 507 OFFCURVE",
"417 425 CURVE SMOOTH",
"417 234 OFFCURVE",
"249 113 OFFCURVE",
"249 0 CURVE"
);
},
{
closed = 1;
nodes = (
"285 95 OFFCURVE",
"194 234 OFFCURVE",
"194 428 CURVE SMOOTH",
"194 507 OFFCURVE",
"212 598 OFFCURVE",
"260 700 CURVE",
"104 700 LINE",
"57 593 OFFCURVE",
"40 507 OFFCURVE",
"40 428 CURVE SMOOTH",
"40 285 OFFCURVE",
"103 168 OFFCURVE",
"249 0 CURVE",
"362 0 LINE"
);
}
);
width = 611;
},
{
anchors = (
{
name = bottom;
position = "{306, 0}";
},
{
name = top;
position = "{306, 700}";
}
);
associatedMasterId = "A956090A-BD7D-40E0-8141-33D8BAD0406F";
layerId = "0844F674-63B6-49A9-B3D4-A5381316F429";
name = "Feb 21 19, 13:39";
paths = (
{
closed = 1;
nodes = (
"362 0 LINE",
"362 113 OFFCURVE",
"571 285 OFFCURVE",
"571 430 CURVE SMOOTH",
"571 507 OFFCURVE",
"554 593 OFFCURVE",
"507 700 CURVE",
"351 700 LINE",
"399 598 OFFCURVE",
"417 507 OFFCURVE",
"417 425 CURVE SMOOTH",
"417 293 OFFCURVE",
"338 194 OFFCURVE",
"289 108 CURVE",
"249 108 LINE",
"249 0 LINE"
);
},
{
closed = 1;
nodes = (
"279 95 OFFCURVE",
"194 234 OFFCURVE",
"194 428 CURVE SMOOTH",
"194 507 OFFCURVE",
"212 598 OFFCURVE",
"260 700 CURVE",
"104 700 LINE",
"57 593 OFFCURVE",
"40 507 OFFCURVE",
"40 428 CURVE SMOOTH",
"40 285 OFFCURVE",
"103 168 OFFCURVE",
"249 0 CURVE",
"362 0 LINE"
);
}
);
width = 611;
}
);
leftKerningGroup = V;
rightKerningGroup = V;
unicode = 0056;
},
{
glyphname = W;
lastChange = "2020-04-01 12:15:58 +0000";
layers = (
{
anchors = (
{
name = bottom;
position = "{435, 0}";
},
{
name = top;
position = "{435, 700}";
}
);
layerId = "A956090A-BD7D-40E0-8141-33D8BAD0406F";
paths = (
{
closed = 1;
nodes = (
"393 172 LINE",
"426 119 OFFCURVE",
"455 63 OFFCURVE",
"510 0 CURVE",
"623 0 LINE",
"653 113 OFFCURVE",
"832 285 OFFCURVE",
"832 430 CURVE SMOOTH",
"832 507 OFFCURVE",
"815 593 OFFCURVE",
"768 700 CURVE",
"612 700 LINE",
"660 598 OFFCURVE",
"678 507 OFFCURVE",
"678 425 CURVE SMOOTH",
"678 293 OFFCURVE",
"599 194 OFFCURVE",
"550 108 CURVE",
"544 108 LINE",
"513 160 OFFCURVE",
"500 220 OFFCURVE",
"484 288 CURVE"
);
},
{
closed = 1;
nodes = (
"35 285 OFFCURVE",
"98 168 OFFCURVE",
"244 0 CURVE",
"357 0 LINE",
"407 143 OFFCURVE",
"566 285 OFFCURVE",
"566 430 CURVE SMOOTH",
"566 507 OFFCURVE",
"549 593 OFFCURVE",
"502 700 CURVE",
"346 700 LINE",
"394 598 OFFCURVE",
"412 507 OFFCURVE",
"412 425 CURVE SMOOTH",
"412 293 OFFCURVE",
"333 194 OFFCURVE",
"284 108 CURVE",
"278 108 LINE",
"227 192 OFFCURVE",
"189 298 OFFCURVE",
"189 428 CURVE SMOOTH",
"189 507 OFFCURVE",
"207 598 OFFCURVE",
"255 700 CURVE",
"99 700 LINE",
"52 593 OFFCURVE",
"35 507 OFFCURVE",
"35 428 CURVE SMOOTH"
);
}
);
width = 867;
}
);
leftKerningGroup = V;
rightKerningGroup = V;
unicode = 0057;
},
{
glyphname = X;
lastChange = "2020-01-06 09:17:50 +0000";
layers = (
{
anchors = (
{
name = bottom;
position = "{347, 0}";
},
{
name = top;
position = "{347, 700}";
}
);
background = {
backgroundImage = {
crop = "{{0, 0}, {170.88, 199.2}}";
imagePath = "../../Atelier typographique liège/000DOCATELIERFIG/01-CROQUIS/5/X.jpg";
locked = "1";
transform = "{3.79765, 0, 0, 3.79765, 1, -52}";
};
};
layerId = "A956090A-BD7D-40E0-8141-33D8BAD0406F";
paths = (
{
closed = 1;
nodes = (
"140 667 OFFCURVE",
"111 619 OFFCURVE",
"111 564 CURVE SMOOTH",
"111 497 OFFCURVE",
"153 421 OFFCURVE",
"287 350 CURVE SMOOTH",
"439 270 OFFCURVE",
"488 217 OFFCURVE",
"488 149 CURVE SMOOTH",
"488 109 OFFCURVE",
"476 65 OFFCURVE",
"441 0 CURVE",
"624 0 LINE",
"646 42 OFFCURVE",
"658 84 OFFCURVE",
"658 127 CURVE SMOOTH",
"658 265 OFFCURVE",
"582 331 OFFCURVE",
"398 423 CURVE SMOOTH",
"272 486 OFFCURVE",
"247 544 OFFCURVE",
"247 591 CURVE SMOOTH",
"247 644 OFFCURVE",
"281 684 OFFCURVE",
"293 700 CURVE",
"171 700 LINE"
);
},
{
closed = 1;
nodes = (
"128 338 OFFCURVE",
"35 262 OFFCURVE",
"35 127 CURVE SMOOTH",
"35 84 OFFCURVE",
"57 42 OFFCURVE",
"79 0 CURVE",
"252 0 LINE",
"217 65 OFFCURVE",
"205 109 OFFCURVE",
"205 149 CURVE SMOOTH",
"205 210 OFFCURVE",
"253 279 OFFCURVE",
"374 347 CURVE",
"303 427 LINE"
);
},
{
closed = 1;
nodes = (
"396 350 LINE",
"530 421 OFFCURVE",
"572 497 OFFCURVE",
"572 564 CURVE SMOOTH",
"572 619 OFFCURVE",
"543 667 OFFCURVE",
"512 700 CURVE",
"400 700 LINE",
"412 684 OFFCURVE",
"446 634 OFFCURVE",
"446 581 CURVE SMOOTH",
"446 534 OFFCURVE",
"431 476 OFFCURVE",
"305 413 CURVE"
);
}
);
width = 693;
},
{
associatedMasterId = "A956090A-BD7D-40E0-8141-33D8BAD0406F";
background = {
backgroundImage = {
crop = "{{0, 0}, {170.88, 199.2}}";
imagePath = "../../Atelier typographique liège/000DOCATELIERFIG/01-CROQUIS/5/X.jpg";
locked = "1";
transform = "{3.79765, 0, 0, 3.79765, 6, -52}";
};
};
layerId = "5AF1C956-547D-4ECB-924B-4D77A22126DA";
name = "Feb 16 19, 19:51";
paths = (
{
closed = 1;
nodes = (
"145 667 OFFCURVE",
"116 619 OFFCURVE",
"116 564 CURVE SMOOTH",
"116 497 OFFCURVE",
"158 421 OFFCURVE",
"292 350 CURVE SMOOTH",
"444 270 OFFCURVE",
"503 217 OFFCURVE",
"503 149 CURVE SMOOTH",
"503 109 OFFCURVE",
"481 65 OFFCURVE",
"446 0 CURVE",
"619 0 LINE",
"641 42 OFFCURVE",
"663 84 OFFCURVE",
"663 127 CURVE SMOOTH",
"663 265 OFFCURVE",
"577 331 OFFCURVE",
"393 423 CURVE SMOOTH",
"267 486 OFFCURVE",
"232 544 OFFCURVE",
"232 591 CURVE SMOOTH",
"232 644 OFFCURVE",
"276 684 OFFCURVE",
"288 700 CURVE",
"176 700 LINE"
);
},
{
closed = 1;
nodes = (
"123 328 OFFCURVE",
"30 262 OFFCURVE",
"30 127 CURVE SMOOTH",
"30 84 OFFCURVE",
"52 42 OFFCURVE",
"74 0 CURVE",
"247 0 LINE",
"212 65 OFFCURVE",
"190 109 OFFCURVE",
"190 149 CURVE SMOOTH",
"190 210 OFFCURVE",
"248 269 OFFCURVE",
"369 337 CURVE",
"298 417 LINE"
);
},
{
closed = 1;
nodes = (
"401 360 LINE",
"535 431 OFFCURVE",
"577 497 OFFCURVE",
"577 564 CURVE SMOOTH",
"577 619 OFFCURVE",
"548 667 OFFCURVE",
"517 700 CURVE",
"405 700 LINE",
"417 684 OFFCURVE",
"461 644 OFFCURVE",
"461 591 CURVE SMOOTH",
"461 544 OFFCURVE",
"436 486 OFFCURVE",
"310 423 CURVE"
);
}
);
width = 693;
},
{
associatedMasterId = "A956090A-BD7D-40E0-8141-33D8BAD0406F";
background = {
backgroundImage = {
crop = "{{0, 0}, {170.88, 199.2}}";
imagePath = "../../Atelier typographique liège/000DOCATELIERFIG/01-CROQUIS/5/X.jpg";
locked = "1";
transform = "{3.79765, 0, 0, 3.79765, 6, -52}";
};
};
layerId = "D6C029D8-E0C1-4DFF-98F4-8CCEA46BD49F";
name = "Feb 16 19, 19:57";
paths = (
{
closed = 1;
nodes = (
"145 667 OFFCURVE",
"116 619 OFFCURVE",
"116 564 CURVE SMOOTH",
"116 497 OFFCURVE",
"158 421 OFFCURVE",
"292 350 CURVE SMOOTH",
"444 270 OFFCURVE",
"503 217 OFFCURVE",
"503 149 CURVE SMOOTH",
"503 109 OFFCURVE",
"481 65 OFFCURVE",
"446 0 CURVE",
"619 0 LINE",
"641 42 OFFCURVE",
"663 84 OFFCURVE",
"663 127 CURVE SMOOTH",
"663 265 OFFCURVE",
"577 331 OFFCURVE",
"393 423 CURVE SMOOTH",
"267 486 OFFCURVE",
"232 544 OFFCURVE",
"232 591 CURVE SMOOTH",
"232 644 OFFCURVE",
"276 684 OFFCURVE",
"288 700 CURVE",
"176 700 LINE"
);
},
{
closed = 1;
nodes = (
"123 338 OFFCURVE",
"30 262 OFFCURVE",
"30 127 CURVE SMOOTH",
"30 84 OFFCURVE",
"52 42 OFFCURVE",
"74 0 CURVE",
"247 0 LINE",
"212 65 OFFCURVE",
"190 109 OFFCURVE",
"190 149 CURVE SMOOTH",
"190 210 OFFCURVE",
"248 279 OFFCURVE",
"369 347 CURVE",
"298 427 LINE"
);
},
{
closed = 1;
nodes = (
"401 350 LINE",
"535 421 OFFCURVE",
"577 497 OFFCURVE",
"577 564 CURVE SMOOTH",
"577 619 OFFCURVE",
"548 667 OFFCURVE",
"517 700 CURVE",
"405 700 LINE",
"417 684 OFFCURVE",
"461 634 OFFCURVE",
"461 581 CURVE SMOOTH",
"461 534 OFFCURVE",
"436 476 OFFCURVE",
"310 413 CURVE"
);
}
);
width = 693;
}
);
leftKerningGroup = X;
rightKerningGroup = X;
unicode = 0058;
},
{
glyphname = Y;
lastChange = "2020-05-03 19:36:52 +0000";
layers = (
{
anchors = (
{
name = bottom;
position = "{347, 0}";
},
{
name = top;
position = "{355, 700}";
},
{
name = topleft;
position = "{28, 700}";
}
);
background = {
backgroundImage = {
crop = "{{0, 0}, {171.12, 212.16}}";
imagePath = "../../Atelier typographique liège/000DOCATELIERFIG/01-CROQUIS/5/Y.jpg";
locked = "1";
transform = "{3.78489, 0, 0, 3.78489, -34, -52}";
};
};
layerId = "A956090A-BD7D-40E0-8141-33D8BAD0406F";
paths = (
{
closed = 1;
nodes = (
"35 418 OFFCURVE",
"145 381 OFFCURVE",
"226 321 CURVE SMOOTH",
"293 271 OFFCURVE",
"303 221 OFFCURVE",
"303 159 CURVE SMOOTH",
"303 95 OFFCURVE",
"286 41 OFFCURVE",
"253 0 CURVE",
"413 0 LINE",
"450 40 OFFCURVE",
"460 96 OFFCURVE",
"460 143 CURVE SMOOTH",
"460 205 OFFCURVE",
"439 237 OFFCURVE",
"439 265 CURVE SMOOTH",
"439 296 OFFCURVE",
"468 323 OFFCURVE",
"511 342 CURVE SMOOTH",
"577 371 OFFCURVE",
"675 415 OFFCURVE",
"675 519 CURVE SMOOTH",
"675 571 OFFCURVE",
"656 648 OFFCURVE",
"605 700 CURVE",
"440 700 LINE",
"473 663 OFFCURVE",
"505 606 OFFCURVE",
"505 558 CURVE SMOOTH",
"505 454 OFFCURVE",
"366 423 OFFCURVE",
"366 359 CURVE",
"361 356 LINE",
"344 375 OFFCURVE",
"319 394 OFFCURVE",
"305 403 CURVE SMOOTH",
"217 463 OFFCURVE",
"206 517 OFFCURVE",
"206 566 CURVE SMOOTH",
"206 615 OFFCURVE",
"236 659 OFFCURVE",
"273 701 CURVE",
"124 701 LINE",
"62 648 OFFCURVE",
"35 561 OFFCURVE",
"35 519 CURVE SMOOTH"
);
}
);
width = 698;
},
{
associatedMasterId = "A956090A-BD7D-40E0-8141-33D8BAD0406F";
background = {
backgroundImage = {
crop = "{{0, 0}, {171.12, 212.16}}";
imagePath = "../../Atelier typographique liège/000DOCATELIERFIG/01-CROQUIS/5/Y.jpg";
locked = "1";
transform = "{3.78489, 0, 0, 3.78489, -42.259, -52.393}";
};
paths = (
{
closed = 1;
nodes = (
"155 659 OFFCURVE",
"125 615 OFFCURVE",
"125 566 CURVE SMOOTH",
"125 517 OFFCURVE",
"156 463 OFFCURVE",
"244 403 CURVE SMOOTH",
"365 321 OFFCURVE",
"438 269 OFFCURVE",
"438 174 CURVE SMOOTH",
"438 131 OFFCURVE",
"423 40 OFFCURVE",
"392 2 CURVE",
"222 0 LINE",
"255 63 OFFCURVE",
"272 115 OFFCURVE",
"272 161 CURVE SMOOTH",
"272 221 OFFCURVE",
"242 271 OFFCURVE",
"175 321 CURVE SMOOTH",
"94 381 OFFCURVE",
"-13 418 OFFCURVE",
"-13 515 CURVE SMOOTH",
"-13 561 OFFCURVE",
"1 620 OFFCURVE",
"73 701 CURVE",
"192 701 LINE"
);
},
{
closed = 1;
nodes = (
"465 615 OFFCURVE",
"533 482 OFFCURVE",
"232 369 CURVE",
"291 272 LINE",
"554 369 OFFCURVE",
"661 500 OFFCURVE",
"554 700 CURVE",
"389 700 LINE"
);
}
);
};
layerId = "F4632F77-091F-4C11-B660-24207DFF9B57";
name = "Feb 16 19, 19:07";
width = 600;
},
{
anchors = (
{
name = bottom;
position = "{339, 0}";
},
{
name = top;
position = "{339, 700}";
},
{
name = topleft;
position = "{20, 700}";
}
);
associatedMasterId = "A956090A-BD7D-40E0-8141-33D8BAD0406F";
background = {
backgroundImage = {
crop = "{{0, 0}, {171.12, 212.16}}";
imagePath = "../../Atelier typographique liège/000DOCATELIERFIG/01-CROQUIS/5/Y.jpg";
locked = "1";
transform = "{3.78489, 0, 0, 3.78489, -42.259, -52.393}";
};
};
layerId = "4713855F-493A-4225-9504-77EECECB9D10";
name = "Feb 22 19, 15:37";
paths = (
{
closed = 1;
nodes = (
"116 701 LINE",
"44 620 OFFCURVE",
"30 561 OFFCURVE",
"30 515 CURVE SMOOTH",
"30 418 OFFCURVE",
"137 381 OFFCURVE",
"218 321 CURVE SMOOTH",
"285 271 OFFCURVE",
"315 221 OFFCURVE",
"315 161 CURVE SMOOTH",
"315 115 OFFCURVE",
"298 61 OFFCURVE",
"265 0 CURVE",
"445 0 LINE",
"476 61 OFFCURVE",
"491 131 OFFCURVE",
"491 174 CURVE SMOOTH",
"491 269 OFFCURVE",
"418 321 OFFCURVE",
"297 403 CURVE SMOOTH",
"209 463 OFFCURVE",
"178 517 OFFCURVE",
"178 566 CURVE SMOOTH",
"178 615 OFFCURVE",
"208 659 OFFCURVE",
"245 701 CURVE"
);
},
{
closed = 1;
nodes = (
"465 663 OFFCURVE",
"497 606 OFFCURVE",
"497 557 CURVE SMOOTH",
"497 493 OFFCURVE",
"444 433 OFFCURVE",
"275 369 CURVE",
"334 272 LINE",
"529 344 OFFCURVE",
"648 454 OFFCURVE",
"648 558 CURVE SMOOTH",
"648 601 OFFCURVE",
"625 648 OFFCURVE",
"597 700 CURVE",
"432 700 LINE"
);
}
);
width = 678;
},
{
anchors = (
{
name = bottom;
position = "{339, 0}";
},
{
name = top;
position = "{339, 700}";
},
{
name = topleft;
position = "{20, 700}";
}
);
associatedMasterId = "A956090A-BD7D-40E0-8141-33D8BAD0406F";
background = {
backgroundImage = {
crop = "{{0, 0}, {171.12, 212.16}}";
imagePath = "../../Atelier typographique liège/000DOCATELIERFIG/01-CROQUIS/5/Y.jpg";
locked = "1";
transform = "{3.78489, 0, 0, 3.78489, -42.259, -52.393}";
};
};
layerId = "4D4B85DE-F5CF-47AC-B37D-B62D655C854A";
name = "Jan 1 20, 23:25";
paths = (
{
closed = 1;
nodes = (
"116 701 LINE",
"44 620 OFFCURVE",
"30 561 OFFCURVE",
"30 515 CURVE SMOOTH",
"30 418 OFFCURVE",
"137 381 OFFCURVE",
"218 321 CURVE SMOOTH",
"285 271 OFFCURVE",
"315 221 OFFCURVE",
"315 161 CURVE SMOOTH",
"315 115 OFFCURVE",
"298 61 OFFCURVE",
"265 0 CURVE",
"445 0 LINE",
"476 61 OFFCURVE",
"491 131 OFFCURVE",
"491 174 CURVE SMOOTH",
"491 197 OFFCURVE",
"487 218 OFFCURVE",
"478 237 CURVE SMOOTH",
"455 296 OFFCURVE",
"374 351 OFFCURVE",
"297 403 CURVE SMOOTH",
"209 463 OFFCURVE",
"178 517 OFFCURVE",
"178 566 CURVE SMOOTH",
"178 615 OFFCURVE",
"208 659 OFFCURVE",
"245 701 CURVE"
);
},
{
closed = 1;
nodes = (
"465 663 OFFCURVE",
"497 606 OFFCURVE",
"497 558 CURVE SMOOTH",
"497 454 OFFCURVE",
"341 442 OFFCURVE",
"341 378 CURVE",
"315 362 LINE",
"335 274 LINE",
"478 237 LINE",
"468 263 OFFCURVE",
"455 276 OFFCURVE",
"455 290 CURVE SMOOTH",
"455 321 OFFCURVE",
"489 341 OFFCURVE",
"550 390 CURVE SMOOTH",
"613 443 OFFCURVE",
"648 502 OFFCURVE",
"648 558 CURVE SMOOTH",
"648 601 OFFCURVE",
"625 648 OFFCURVE",
"597 700 CURVE",
"432 700 LINE"
);
}
);
width = 678;
},
{
anchors = (
{
name = bottom;
position = "{339, 0}";
},
{
name = top;
position = "{339, 700}";
},
{
name = topleft;
position = "{20, 700}";
}
);
associatedMasterId = "A956090A-BD7D-40E0-8141-33D8BAD0406F";
background = {
backgroundImage = {
crop = "{{0, 0}, {171.12, 212.16}}";
imagePath = "../../Atelier typographique liège/000DOCATELIERFIG/01-CROQUIS/5/Y.jpg";
locked = "1";
transform = "{3.78489, 0, 0, 3.78489, -42.259, -52.393}";
};
};
layerId = "A8E2789F-8BAE-42D5-980F-F8C59153D700";
name = "Jan 1 20, 23:25";
paths = (
{
closed = 1;
nodes = (
"116 701 LINE",
"44 620 OFFCURVE",
"30 561 OFFCURVE",
"30 515 CURVE SMOOTH",
"30 418 OFFCURVE",
"137 381 OFFCURVE",
"218 321 CURVE SMOOTH",
"285 271 OFFCURVE",
"305 221 OFFCURVE",
"305 161 CURVE SMOOTH",
"305 115 OFFCURVE",
"288 61 OFFCURVE",
"255 0 CURVE",
"435 0 LINE",
"466 61 OFFCURVE",
"481 131 OFFCURVE",
"481 174 CURVE SMOOTH",
"481 197 OFFCURVE",
"477 218 OFFCURVE",
"468 237 CURVE SMOOTH",
"441 294 OFFCURVE",
"374 351 OFFCURVE",
"297 403 CURVE SMOOTH",
"209 463 OFFCURVE",
"178 517 OFFCURVE",
"178 566 CURVE SMOOTH",
"178 615 OFFCURVE",
"208 659 OFFCURVE",
"245 701 CURVE"
);
},
{
closed = 1;
nodes = (
"465 663 OFFCURVE",
"497 606 OFFCURVE",
"497 558 CURVE SMOOTH",
"497 454 OFFCURVE",
"341 442 OFFCURVE",
"341 378 CURVE",
"315 362 LINE",
"335 274 LINE",
"468 237 LINE",
"437 317 OFFCURVE",
"462 319 OFFCURVE",
"550 390 CURVE SMOOTH",
"613 443 OFFCURVE",
"648 502 OFFCURVE",
"648 558 CURVE SMOOTH",
"648 601 OFFCURVE",
"625 648 OFFCURVE",
"597 700 CURVE",
"432 700 LINE"
);
}
);
width = 678;
}
);
leftKerningGroup = Y;
rightKerningGroup = Y;
unicode = 0059;
},
{
glyphname = Z;
lastChange = "2020-03-26 13:51:03 +0000";
layers = (
{
associatedMasterId = "A956090A-BD7D-40E0-8141-33D8BAD0406F";
background = {
backgroundImage = {
crop = "{{0, 0}, {171.36, 184.32}}";
imagePath = "../../Atelier typographique liège/000DOCATELIERFIG/01-CROQUIS/5/Z.jpg";
locked = "1";
transform = "{3.81875, 0, 0, 3.81875, 0, 0}";
};
};
layerId = "6A45D2B6-F492-4985-89FA-785F06CF8A51";
name = "Feb 16 19, 19:31";
paths = (
{
closed = 1;
nodes = (
"421 111 OFFCURVE",
"308 101 OFFCURVE",
"133 101 CURVE",
"133 0 LINE",
"614 0 LINE",
"565 153 LINE"
);
},
{
closed = 1;
nodes = (
"266 589 OFFCURVE",
"379 599 OFFCURVE",
"554 599 CURVE",
"554 700 LINE",
"73 700 LINE",
"122 547 LINE"
);
},
{
closed = 1;
nodes = (
"625 632 OFFCURVE",
"620 681 OFFCURVE",
"615 700 CURVE",
"475 700 LINE",
"486 664 OFFCURVE",
"491 632 OFFCURVE",
"491 604 CURVE SMOOTH",
"491 482 OFFCURVE",
"419 425 OFFCURVE",
"334 388 CURVE SMOOTH",
"177 320 OFFCURVE",
"20 223 OFFCURVE",
"20 0 CURVE",
"173 0 LINE",
"173 154 OFFCURVE",
"252 212 OFFCURVE",
"368 271 CURVE SMOOTH",
"512 344 OFFCURVE",
"625 420 OFFCURVE",
"625 614 CURVE SMOOTH"
);
},
{
closed = 1;
nodes = (
"125 332 OFFCURVE",
"135 332 OFFCURVE",
"155 332 CURVE SMOOTH",
"215 332 OFFCURVE",
"269 328 OFFCURVE",
"321 311 CURVE SMOOTH",
"403 284 OFFCURVE",
"479 240 OFFCURVE",
"559 240 CURVE",
"560 345 LINE",
"497 345 OFFCURVE",
"430 363 OFFCURVE",
"363 383 CURVE SMOOTH",
"287 406 OFFCURVE",
"211 431 OFFCURVE",
"140 431 CURVE SMOOTH",
"131 431 OFFCURVE",
"122 431 OFFCURVE",
"114 430 CURVE",
"114 331 LINE"
);
}
);
width = 645;
},
{
anchors = (
{
name = bottom;
position = "{343, 0}";
},
{
name = center;
position = "{343, 350}";
},
{
name = top;
position = "{343, 700}";
}
);
background = {
backgroundImage = {
crop = "{{0, 0}, {171.36, 184.32}}";
imagePath = "../../Atelier typographique liège/000DOCATELIERFIG/01-CROQUIS/5/Z.jpg";
locked = "1";
transform = "{3.81875, 0, 0, 3.81875, 0, 0}";
};
};
layerId = "A956090A-BD7D-40E0-8141-33D8BAD0406F";
paths = (
{
closed = 1;
nodes = (
"441 111 OFFCURVE",
"328 101 OFFCURVE",
"153 101 CURVE",
"153 0 LINE",
"634 0 LINE",
"585 153 LINE"
);
},
{
closed = 1;
nodes = (
"286 589 OFFCURVE",
"399 599 OFFCURVE",
"574 599 CURVE",
"574 700 LINE",
"93 700 LINE",
"142 547 LINE"
);
},
{
closed = 1;
nodes = (
"645 632 OFFCURVE",
"640 681 OFFCURVE",
"635 700 CURVE",
"495 700 LINE",
"506 664 OFFCURVE",
"511 637 OFFCURVE",
"511 609 CURVE SMOOTH",
"511 487 OFFCURVE",
"429 425 OFFCURVE",
"344 388 CURVE SMOOTH",
"187 320 OFFCURVE",
"40 223 OFFCURVE",
"40 0 CURVE",
"203 0 LINE",
"203 154 OFFCURVE",
"282 212 OFFCURVE",
"398 271 CURVE SMOOTH",
"542 344 OFFCURVE",
"645 420 OFFCURVE",
"645 614 CURVE SMOOTH"
);
},
{
closed = 1;
nodes = (
"145 332 OFFCURVE",
"155 332 OFFCURVE",
"175 332 CURVE SMOOTH",
"329 332 OFFCURVE",
"448 240 OFFCURVE",
"579 240 CURVE",
"580 345 LINE",
"446 345 OFFCURVE",
"294 431 OFFCURVE",
"160 431 CURVE SMOOTH",
"151 431 OFFCURVE",
"142 431 OFFCURVE",
"134 430 CURVE",
"134 331 LINE"
);
}
);
width = 685;
}
);
leftKerningGroup = Z;
rightKerningGroup = Z;
unicode = 005A;
},
{
glyphname = b;
lastChange = "2020-01-02 11:35:51 +0000";
layers = (
{
components = (
{
name = _part.pupil;
transform = "{1, 0, 0, 1, -56, 119}";
}
);
layerId = "A956090A-BD7D-40E0-8141-33D8BAD0406F";
paths = (
{
closed = 1;
nodes = (
"122 262 LINE",
"186 218 OFFCURVE",
"274 181 OFFCURVE",
"360 181 CURVE SMOOTH",
"519 181 OFFCURVE",
"603 282 OFFCURVE",
"603 387 CURVE SMOOTH",
"603 480 OFFCURVE",
"538 575 OFFCURVE",
"398 608 CURVE SMOOTH",
"318 627 OFFCURVE",
"240 629 OFFCURVE",
"240 680 CURVE SMOOTH",
"240 686 OFFCURVE",
"241 693 OFFCURVE",
"243 700 CURVE",
"135 700 LINE",
"135 650 OFFCURVE",
"155 600 OFFCURVE",
"211 558 CURVE SMOOTH",
"309 484 OFFCURVE",
"473 520 OFFCURVE",
"473 402 CURVE SMOOTH",
"473 331 OFFCURVE",
"415 302 OFFCURVE",
"338 302 CURVE SMOOTH",
"274 302 OFFCURVE",
"152 358 OFFCURVE",
"122 416 CURVE"
);
},
{
closed = 1;
nodes = (
"203 91 OFFCURVE",
"188 198 OFFCURVE",
"188 304 CURVE SMOOTH",
"188 451 OFFCURVE",
"207 597 OFFCURVE",
"243 700 CURVE",
"135 700 LINE",
"80 540 OFFCURVE",
"45 384 OFFCURVE",
"45 216 CURVE SMOOTH",
"45 142 OFFCURVE",
"53 69 OFFCURVE",
"70 0 CURVE",
"242 0 LINE"
);
},
{
closed = 1;
nodes = (
"441 276 LINE",
"471 242 OFFCURVE",
"484 210 OFFCURVE",
"484 184 CURVE SMOOTH",
"484 122 OFFCURVE",
"414 84 OFFCURVE",
"312 84 CURVE SMOOTH",
"247 84 OFFCURVE",
"175 102 OFFCURVE",
"122 136 CURVE",
"71 0 LINE",
"145 -19 OFFCURVE",
"230 -30 OFFCURVE",
"360 -30 CURVE SMOOTH",
"515 -30 OFFCURVE",
"608 64 OFFCURVE",
"608 166 CURVE SMOOTH",
"608 225 OFFCURVE",
"582 285 OFFCURVE",
"508 332 CURVE"
);
}
);
width = 633;
}
);
unicode = 0062;
},
{
glyphname = c;
lastChange = "2020-04-01 12:18:12 +0000";
layers = (
{
background = {
backgroundImage = {
crop = "{{0, 0}, {171.36, 212.16}}";
imagePath = "../../Atelier typographique liège/000DOCATELIERFIG/01-CROQUIS/3/C.jpg";
locked = "1";
transform = "{3.806, 0, 0, 3.806, -50.522, -53.043}";
};
};
components = (
{
name = C;
}
);
layerId = "A956090A-BD7D-40E0-8141-33D8BAD0406F";
width = 595;
},
{
associatedMasterId = "A956090A-BD7D-40E0-8141-33D8BAD0406F";
background = {
backgroundImage = {
crop = "{{0, 0}, {171.36, 212.16}}";
imagePath = "../../Atelier typographique liège/000DOCATELIERFIG/01-CROQUIS/3/C.jpg";
locked = "1";
transform = "{3.806, 0, 0, 3.806, -50.522, -53.043}";
};
};
layerId = "A0DF7B1B-A461-4A15-BEE3-FB85EB0D24EC";
name = "Feb 16 19, 18:32";
paths = (
{
closed = 1;
nodes = (
"251 618 LINE",
"251 489 OFFCURVE",
"167 372 OFFCURVE",
"167 277 CURVE SMOOTH",
"167 169 OFFCURVE",
"213 112 OFFCURVE",
"305 112 CURVE SMOOTH",
"369 112 OFFCURVE",
"408 172 OFFCURVE",
"408 214 CURVE",
"550 214 LINE",
"550 114 OFFCURVE",
"463 -29 OFFCURVE",
"305 -29 CURVE SMOOTH",
"153 -29 OFFCURVE",
"40 80 OFFCURVE",
"40 207 CURVE SMOOTH",
"40 334 OFFCURVE",
"149 496 OFFCURVE",
"149 700 CURVE",
"249 701 LINE"
);
},
{
closed = 1;
nodes = (
"572 499 LINE",
"533 470 OFFCURVE",
"477 462 OFFCURVE",
"440 462 CURVE SMOOTH",
"275 462 OFFCURVE",
"149 618 OFFCURVE",
"149 700 CURVE",
"249 701 LINE",
"249 630 OFFCURVE",
"328 595 OFFCURVE",
"406 595 CURVE SMOOTH",
"464 595 OFFCURVE",
"501 608 OFFCURVE",
"527 630 CURVE"
);
},
{
closed = 1;
nodes = (
"571 570 OFFCURVE",
"596 468 OFFCURVE",
"582 369 CURVE",
"451 389 LINE",
"483 426 OFFCURVE",
"479 489 OFFCURVE",
"453 528 CURVE",
"527 630 LINE"
);
}
);
width = 612;
},
{
associatedMasterId = "A956090A-BD7D-40E0-8141-33D8BAD0406F";
background = {
backgroundImage = {
crop = "{{0, 0}, {171.36, 212.16}}";
imagePath = "../../Atelier typographique liège/000DOCATELIERFIG/01-CROQUIS/3/C.jpg";
locked = "1";
transform = "{3.806, 0, 0, 3.806, -50.522, -53.043}";
};
};
layerId = "3E35CF94-3C26-49FA-B84E-41D3E6D151D1";
name = "Feb 16 19, 18:44";
paths = (
{
closed = 1;
nodes = (
"251 618 LINE",
"251 489 OFFCURVE",
"167 372 OFFCURVE",
"167 277 CURVE SMOOTH",
"167 169 OFFCURVE",
"213 112 OFFCURVE",
"305 112 CURVE SMOOTH",
"369 112 OFFCURVE",
"408 172 OFFCURVE",
"415 214 CURVE",
"551 214 LINE",
"550 114 OFFCURVE",
"463 -29 OFFCURVE",
"305 -29 CURVE SMOOTH",
"153 -29 OFFCURVE",
"40 80 OFFCURVE",
"40 207 CURVE SMOOTH",
"40 334 OFFCURVE",
"149 496 OFFCURVE",
"149 700 CURVE",
"249 701 LINE"
);
},
{
closed = 1;
nodes = (
"249 701 LINE",
"249 630 OFFCURVE",
"269 595 OFFCURVE",
"346 595 CURVE SMOOTH",
"441 595 OFFCURVE",
"552 583 OFFCURVE",
"551 379 CURVE",
"415 379 LINE",
"421 444 OFFCURVE",
"382 482 OFFCURVE",
"348 482 CURVE SMOOTH",
"184 482 OFFCURVE",
"149 618 OFFCURVE",
"149 700 CURVE"
);
}
);
width = 604;
},
{
associatedMasterId = "A956090A-BD7D-40E0-8141-33D8BAD0406F";
background = {
backgroundImage = {
crop = "{{0, 0}, {171.36, 212.16}}";
imagePath = "../../Atelier typographique liège/000DOCATELIERFIG/01-CROQUIS/3/C.jpg";
locked = "1";
transform = "{3.806, 0, 0, 3.806, -50.522, -53.043}";
};
};
layerId = "00E73EE2-62AF-4790-B946-655C53CCF48B";
name = "Feb 20 19, 11:52";
paths = (
{
closed = 1;
nodes = (
"251 618 LINE",
"251 489 OFFCURVE",
"167 391 OFFCURVE",
"167 261 CURVE SMOOTH",
"167 188 OFFCURVE",
"213 121 OFFCURVE",
"305 121 CURVE SMOOTH",
"369 121 OFFCURVE",
"408 191 OFFCURVE",
"408 233 CURVE",
"550 233 LINE",
"550 133 OFFCURVE",
"463 -10 OFFCURVE",
"305 -10 CURVE SMOOTH",
"153 -10 OFFCURVE",
"40 79 OFFCURVE",
"40 241 CURVE SMOOTH",
"40 333 OFFCURVE",
"149 496 OFFCURVE",
"149 700 CURVE",
"249 701 LINE"
);
},
{
closed = 1;
nodes = (
"572 499 LINE",
"533 470 OFFCURVE",
"477 462 OFFCURVE",
"440 462 CURVE SMOOTH",
"275 462 OFFCURVE",
"149 618 OFFCURVE",
"149 700 CURVE",
"249 701 LINE",
"249 630 OFFCURVE",
"328 595 OFFCURVE",
"406 595 CURVE SMOOTH",
"464 595 OFFCURVE",
"501 608 OFFCURVE",
"527 630 CURVE"
);
}
);
width = 592;
},
{
anchors = (
{
name = bottom;
position = "{286, 0}";
},
{
name = top;
position = "{286, 700}";
}
);
associatedMasterId = "A956090A-BD7D-40E0-8141-33D8BAD0406F";
background = {
backgroundImage = {
crop = "{{0, 0}, {171.36, 212.16}}";
imagePath = "../../Atelier typographique liège/000DOCATELIERFIG/01-CROQUIS/3/C.jpg";
locked = "1";
transform = "{3.806, 0, 0, 3.806, -50.522, -53.043}";
};
};
layerId = "A5E8D1BF-1BD8-43B4-83FB-4E4A21266297";
name = "Feb 21 19, 11:20";
paths = (
{
closed = 1;
nodes = (
"139 700 LINE",
"139 496 OFFCURVE",
"30 383 OFFCURVE",
"30 236 CURVE SMOOTH",
"30 69 OFFCURVE",
"153 -20 OFFCURVE",
"295 -20 CURVE SMOOTH",
"453 -20 OFFCURVE",
"540 133 OFFCURVE",
"540 233 CURVE",
"398 233 LINE",
"398 191 OFFCURVE",
"359 111 OFFCURVE",
"295 111 CURVE SMOOTH",
"203 111 OFFCURVE",
"177 198 OFFCURVE",
"177 256 CURVE SMOOTH",
"177 362 OFFCURVE",
"227 434 OFFCURVE",
"238 522 CURVE",
"239 700 LINE"
);
},
{
closed = 1;
nodes = (
"299 478 OFFCURVE",
"369 462 OFFCURVE",
"440 462 CURVE SMOOTH",
"466 462 OFFCURVE",
"500 466 OFFCURVE",
"532 479 CURVE",
"492 610 LINE",
"469 600 OFFCURVE",
"442 595 OFFCURVE",
"406 595 CURVE SMOOTH",
"330 595 OFFCURVE",
"249 636 OFFCURVE",
"249 700 CURVE",
"248 522 LINE"
);
}
);
width = 585;
},
{
anchors = (
{
name = bottom;
position = "{286, 0}";
},
{
name = top;
position = "{286, 700}";
}
);
associatedMasterId = "A956090A-BD7D-40E0-8141-33D8BAD0406F";
background = {
backgroundImage = {
crop = "{{0, 0}, {171.36, 212.16}}";
imagePath = "../../Atelier typographique liège/000DOCATELIERFIG/01-CROQUIS/3/C.jpg";
locked = "1";
transform = "{3.806, 0, 0, 3.806, -50.522, -53.043}";
};
};
layerId = "EB3F07D3-CFA8-461F-B9F5-CFB60614F3FF";
name = "Feb 21 19, 11:21";
paths = (
{
closed = 1;
nodes = (
"139 700 LINE",
"139 496 OFFCURVE",
"30 383 OFFCURVE",
"30 236 CURVE SMOOTH",
"30 69 OFFCURVE",
"153 -20 OFFCURVE",
"295 -20 CURVE SMOOTH",
"453 -20 OFFCURVE",
"540 133 OFFCURVE",
"540 233 CURVE",
"398 233 LINE",
"398 191 OFFCURVE",
"359 111 OFFCURVE",
"295 111 CURVE SMOOTH",
"203 111 OFFCURVE",
"177 198 OFFCURVE",
"177 256 CURVE SMOOTH",
"177 362 OFFCURVE",
"227 434 OFFCURVE",
"238 522 CURVE",
"239 700 LINE"
);
},
{
closed = 1;
nodes = (
"289 478 OFFCURVE",
"359 462 OFFCURVE",
"430 462 CURVE SMOOTH",
"456 462 OFFCURVE",
"490 466 OFFCURVE",
"522 479 CURVE",
"482 610 LINE",
"459 600 OFFCURVE",
"432 595 OFFCURVE",
"396 595 CURVE SMOOTH",
"320 595 OFFCURVE",
"239 636 OFFCURVE",
"239 700 CURVE",
"238 522 LINE"
);
}
);
width = 585;
},
{
anchors = (
{
name = bottom;
position = "{286, 0}";
},
{
name = top;
position = "{286, 700}";
}
);
associatedMasterId = "A956090A-BD7D-40E0-8141-33D8BAD0406F";
background = {
backgroundImage = {
crop = "{{0, 0}, {171.36, 212.16}}";
imagePath = "../../Atelier typographique liège/000DOCATELIERFIG/01-CROQUIS/3/C.jpg";
locked = "1";
transform = "{3.806, 0, 0, 3.806, -50.522, -53.043}";
};
};
layerId = "96E10781-A4B8-43B1-AB92-8B0E08C73E19";
name = "Feb 21 19, 11:25";
paths = (
{
closed = 1;
nodes = (
"286 483 OFFCURVE",
"359 462 OFFCURVE",
"430 462 CURVE SMOOTH",
"456 462 OFFCURVE",
"490 466 OFFCURVE",
"522 479 CURVE",
"482 610 LINE",
"459 600 OFFCURVE",
"432 595 OFFCURVE",
"396 595 CURVE SMOOTH",
"320 595 OFFCURVE",
"239 636 OFFCURVE",
"239 700 CURVE",
"179 700 LINE",
"179 531 LINE",
"232 531 LINE"
);
},
{
closed = 1;
nodes = (
"139 700 LINE",
"139 496 OFFCURVE",
"35 343 OFFCURVE",
"35 216 CURVE SMOOTH",
"35 99 OFFCURVE",
"138 -20 OFFCURVE",
"290 -20 CURVE SMOOTH",
"448 -20 OFFCURVE",
"541 133 OFFCURVE",
"542 233 CURVE",
"405 233 LINE",
"398 191 OFFCURVE",
"359 119 OFFCURVE",
"295 119 CURVE SMOOTH",
"213 119 OFFCURVE",
"172 188 OFFCURVE",
"172 256 CURVE SMOOTH",
"172 319 OFFCURVE",
"227 450 OFFCURVE",
"227 531 CURVE",
"239 700 LINE"
);
}
);
width = 585;
}
);
leftKerningGroup = C;
rightKerningGroup = C;
unicode = 0063;
},
{
glyphname = d;
lastChange = "2020-01-06 09:22:00 +0000";
layers = (
{
anchors = (
{
name = bottom;
position = "{324, 0}";
},
{
name = center;
position = "{324, 350}";
},
{
name = top;
position = "{174, 700}";
}
);
background = {
backgroundImage = {
crop = "{{0, 0}, {170.16, 199.2}}";
imagePath = "../../Atelier typographique liège/000DOCATELIERFIG/01-CROQUIS/4/D.jpg";
locked = "1";
transform = "{3.786, 0, 0, 3.786, 16, -55}";
};
};
layerId = "A956090A-BD7D-40E0-8141-33D8BAD0406F";
paths = (
{
closed = 1;
nodes = (
"198 91 OFFCURVE",
"183 198 OFFCURVE",
"183 304 CURVE SMOOTH",
"183 451 OFFCURVE",
"202 597 OFFCURVE",
"238 700 CURVE",
"179 700 OFFCURVE",
"163 700 OFFCURVE",
"135 700 CURVE",
"70 540 OFFCURVE",
"45 384 OFFCURVE",
"45 216 CURVE SMOOTH",
"45 142 OFFCURVE",
"53 69 OFFCURVE",
"70 0 CURVE",
"237 0 LINE"
);
},
{
closed = 1;
nodes = (
"127 0 LINE",
"199 0 OFFCURVE",
"281 0 OFFCURVE",
"344 0 CURVE SMOOTH",
"400 0 OFFCURVE",
"617 0 OFFCURVE",
"617 206 CURVE SMOOTH",
"617 352 OFFCURVE",
"489 442 OFFCURVE",
"380 502 CURVE SMOOTH",
"298 547 OFFCURVE",
"232 599 OFFCURVE",
"232 662 CURVE SMOOTH",
"232 674 OFFCURVE",
"234 686 OFFCURVE",
"238 700 CURVE",
"189 700 OFFCURVE",
"166 700 OFFCURVE",
"135 700 CURVE",
"124 650 OFFCURVE",
"134 514 OFFCURVE",
"155 472 CURVE",
"199 500 LINE",
"248 448 OFFCURVE",
"282 425 OFFCURVE",
"335 395 CURVE SMOOTH",
"450 330 OFFCURVE",
"479 269 OFFCURVE",
"479 218 CURVE SMOOTH",
"479 142 OFFCURVE",
"420 108 OFFCURVE",
"343 108 CURVE SMOOTH",
"226 108 OFFCURVE",
"141 152 OFFCURVE",
"127 173 CURVE"
);
},
{
closed = 1;
nodes = (
"338 216 OFFCURVE",
"360 237 OFFCURVE",
"360 263 CURVE SMOOTH",
"360 289 OFFCURVE",
"338 311 OFFCURVE",
"312 311 CURVE SMOOTH",
"286 311 OFFCURVE",
"265 289 OFFCURVE",
"265 263 CURVE SMOOTH",
"265 237 OFFCURVE",
"286 216 OFFCURVE",
"312 216 CURVE SMOOTH"
);
}
);
width = 647;
},
{
associatedMasterId = "A956090A-BD7D-40E0-8141-33D8BAD0406F";
background = {
backgroundImage = {
crop = "{{0, 0}, {170.16, 199.2}}";
imagePath = "../../Atelier typographique liège/000DOCATELIERFIG/01-CROQUIS/4/D.jpg";
locked = "1";
transform = "{3.786, 0, 0, 3.786, 16, -55}";
};
};
layerId = "4F23F5F4-DCDC-47DA-8BAA-1661F2E37C4B";
name = "Feb 16 19, 18:35";
paths = (
{
closed = 1;
nodes = (
"193 91 OFFCURVE",
"178 198 OFFCURVE",
"178 304 CURVE SMOOTH",
"178 451 OFFCURVE",
"197 597 OFFCURVE",
"233 700 CURVE",
"174 700 OFFCURVE",
"158 700 OFFCURVE",
"130 700 CURVE",
"75 540 OFFCURVE",
"40 384 OFFCURVE",
"40 216 CURVE SMOOTH",
"40 142 OFFCURVE",
"48 69 OFFCURVE",
"65 0 CURVE",
"232 0 LINE"
);
},
{
closed = 1;
nodes = (
"122 0 LINE",
"194 0 OFFCURVE",
"276 0 OFFCURVE",
"339 0 CURVE SMOOTH",
"395 0 OFFCURVE",
"612 0 OFFCURVE",
"612 206 CURVE SMOOTH",
"612 331 OFFCURVE",
"515 432 OFFCURVE",
"399 496 CURVE SMOOTH",
"303 549 OFFCURVE",
"222 592 OFFCURVE",
"233 700 CURVE",
"184 700 OFFCURVE",
"161 700 OFFCURVE",
"130 700 CURVE",
"100 563 OFFCURVE",
"234 472 OFFCURVE",
"340 405 CURVE SMOOTH",
"426 351 OFFCURVE",
"494 299 OFFCURVE",
"494 208 CURVE SMOOTH",
"494 152 OFFCURVE",
"455 108 OFFCURVE",
"338 108 CURVE SMOOTH",
"221 108 OFFCURVE",
"136 142 OFFCURVE",
"122 163 CURVE"
);
},
{
closed = 1;
nodes = (
"313 216 OFFCURVE",
"335 237 OFFCURVE",
"335 263 CURVE SMOOTH",
"335 289 OFFCURVE",
"313 311 OFFCURVE",
"287 311 CURVE SMOOTH",
"261 311 OFFCURVE",
"240 289 OFFCURVE",
"240 263 CURVE SMOOTH",
"240 237 OFFCURVE",
"261 216 OFFCURVE",
"287 216 CURVE SMOOTH"
);
}
);
width = 632;
},
{
associatedMasterId = "A956090A-BD7D-40E0-8141-33D8BAD0406F";
background = {
backgroundImage = {
crop = "{{0, 0}, {170.16, 199.2}}";
imagePath = "../../Atelier typographique liège/000DOCATELIERFIG/01-CROQUIS/4/D.jpg";
locked = "1";
transform = "{3.786, 0, 0, 3.786, 16, -55}";
};
};
layerId = "F9FCFE14-9422-464B-8F1E-FEFF440E03D6";
name = "Feb 20 19, 18:53";
paths = (
{
closed = 1;
nodes = (
"198 91 OFFCURVE",
"183 198 OFFCURVE",
"183 304 CURVE SMOOTH",
"183 451 OFFCURVE",
"202 597 OFFCURVE",
"238 700 CURVE",
"179 700 OFFCURVE",
"163 700 OFFCURVE",
"135 700 CURVE",
"70 540 OFFCURVE",
"45 384 OFFCURVE",
"45 216 CURVE SMOOTH",
"45 142 OFFCURVE",
"53 69 OFFCURVE",
"70 0 CURVE",
"237 0 LINE"
);
},
{
closed = 1;
nodes = (
"127 0 LINE",
"199 0 OFFCURVE",
"281 0 OFFCURVE",
"344 0 CURVE SMOOTH",
"400 0 OFFCURVE",
"617 0 OFFCURVE",
"617 206 CURVE SMOOTH",
"617 331 OFFCURVE",
"520 432 OFFCURVE",
"404 496 CURVE SMOOTH",
"308 549 OFFCURVE",
"227 592 OFFCURVE",
"238 700 CURVE",
"189 700 OFFCURVE",
"166 700 OFFCURVE",
"135 700 CURVE",
"105 563 OFFCURVE",
"229 472 OFFCURVE",
"335 405 CURVE SMOOTH",
"421 351 OFFCURVE",
"489 299 OFFCURVE",
"489 208 CURVE SMOOTH",
"489 152 OFFCURVE",
"460 108 OFFCURVE",
"343 108 CURVE SMOOTH",
"226 108 OFFCURVE",
"141 142 OFFCURVE",
"127 163 CURVE"
);
},
{
closed = 1;
nodes = (
"338 216 OFFCURVE",
"360 237 OFFCURVE",
"360 263 CURVE SMOOTH",
"360 289 OFFCURVE",
"338 311 OFFCURVE",
"312 311 CURVE SMOOTH",
"286 311 OFFCURVE",
"265 289 OFFCURVE",
"265 263 CURVE SMOOTH",
"265 237 OFFCURVE",
"286 216 OFFCURVE",
"312 216 CURVE SMOOTH"
);
}
);
width = 647;
},
{
anchors = (
{
name = bottom;
position = "{324, 0}";
},
{
name = center;
position = "{324, 350}";
},
{
name = top;
position = "{174, 700}";
}
);
associatedMasterId = "A956090A-BD7D-40E0-8141-33D8BAD0406F";
background = {
backgroundImage = {
crop = "{{0, 0}, {170.16, 199.2}}";
imagePath = "../../Atelier typographique liège/000DOCATELIERFIG/01-CROQUIS/4/D.jpg";
locked = "1";
transform = "{3.786, 0, 0, 3.786, 16, -55}";
};
};
layerId = "2D19BB10-35F4-49AA-A2B4-9C60941559CF";
name = "Feb 22 19, 12:05";
paths = (
{
closed = 1;
nodes = (
"198 91 OFFCURVE",
"183 198 OFFCURVE",
"183 304 CURVE SMOOTH",
"183 451 OFFCURVE",
"202 597 OFFCURVE",
"238 700 CURVE",
"179 700 OFFCURVE",
"163 700 OFFCURVE",
"135 700 CURVE",
"70 540 OFFCURVE",
"45 384 OFFCURVE",
"45 216 CURVE SMOOTH",
"45 142 OFFCURVE",
"53 69 OFFCURVE",
"70 0 CURVE",
"237 0 LINE"
);
},
{
closed = 1;
nodes = (
"127 0 LINE",
"199 0 OFFCURVE",
"281 0 OFFCURVE",
"344 0 CURVE SMOOTH",
"400 0 OFFCURVE",
"617 0 OFFCURVE",
"617 206 CURVE SMOOTH",
"617 331 OFFCURVE",
"520 432 OFFCURVE",
"404 496 CURVE SMOOTH",
"308 549 OFFCURVE",
"227 592 OFFCURVE",
"238 700 CURVE",
"189 700 OFFCURVE",
"166 700 OFFCURVE",
"135 700 CURVE",
"105 563 OFFCURVE",
"229 452 OFFCURVE",
"335 395 CURVE SMOOTH",
"424 347 OFFCURVE",
"479 289 OFFCURVE",
"479 208 CURVE SMOOTH",
"479 142 OFFCURVE",
"440 108 OFFCURVE",
"343 108 CURVE SMOOTH",
"226 108 OFFCURVE",
"141 142 OFFCURVE",
"127 163 CURVE"
);
},
{
closed = 1;
nodes = (
"338 216 OFFCURVE",
"360 237 OFFCURVE",
"360 263 CURVE SMOOTH",
"360 289 OFFCURVE",
"338 311 OFFCURVE",
"312 311 CURVE SMOOTH",
"286 311 OFFCURVE",
"265 289 OFFCURVE",
"265 263 CURVE SMOOTH",
"265 237 OFFCURVE",
"286 216 OFFCURVE",
"312 216 CURVE SMOOTH"
);
}
);
width = 647;
}
);
leftKerningGroup = H;
unicode = 0064;
},
{
glyphname = eth;
lastChange = "2020-01-01 21:15:20 +0000";
layers = (
{
layerId = "A956090A-BD7D-40E0-8141-33D8BAD0406F";
paths = (
{
closed = 1;
nodes = (
"213 91 OFFCURVE",
"198 198 OFFCURVE",
"198 304 CURVE SMOOTH",
"198 451 OFFCURVE",
"217 597 OFFCURVE",
"253 700 CURVE",
"194 700 OFFCURVE",
"178 700 OFFCURVE",
"150 700 CURVE",
"85 540 OFFCURVE",
"60 384 OFFCURVE",
"60 216 CURVE SMOOTH",
"60 142 OFFCURVE",
"68 69 OFFCURVE",
"85 0 CURVE",
"252 0 LINE"
);
},
{
closed = 1;
nodes = (
"142 0 LINE",
"214 0 OFFCURVE",
"296 0 OFFCURVE",
"359 0 CURVE SMOOTH",
"415 0 OFFCURVE",
"632 0 OFFCURVE",
"632 206 CURVE SMOOTH",
"632 352 OFFCURVE",
"504 442 OFFCURVE",
"395 502 CURVE SMOOTH",
"313 547 OFFCURVE",
"247 599 OFFCURVE",
"247 662 CURVE SMOOTH",
"247 674 OFFCURVE",
"249 686 OFFCURVE",
"253 700 CURVE",
"204 700 OFFCURVE",
"181 700 OFFCURVE",
"150 700 CURVE",
"139 650 OFFCURVE",
"149 514 OFFCURVE",
"170 472 CURVE",
"214 500 LINE",
"263 448 OFFCURVE",
"297 425 OFFCURVE",
"350 395 CURVE SMOOTH",
"465 330 OFFCURVE",
"494 269 OFFCURVE",
"494 218 CURVE SMOOTH",
"494 142 OFFCURVE",
"435 108 OFFCURVE",
"358 108 CURVE SMOOTH",
"241 108 OFFCURVE",
"156 142 OFFCURVE",
"142 163 CURVE"
);
},
{
closed = 1;
nodes = (
"67 205 OFFCURVE",
"112 209 OFFCURVE",
"176 209 CURVE SMOOTH",
"236 209 OFFCURVE",
"281 205 OFFCURVE",
"337 190 CURVE",
"337 326 LINE",
"281 312 OFFCURVE",
"239 301 OFFCURVE",
"176 301 CURVE SMOOTH",
"115 301 OFFCURVE",
"68 312 OFFCURVE",
"15 326 CURVE",
"15 190 LINE"
);
}
);
width = 662;
}
);
unicode = 00F0;
},
{
glyphname = e;
lastChange = "2020-04-01 12:17:58 +0000";
layers = (
{
anchors = (
{
name = bottom;
position = "{305, 0}";
},
{
name = ogonek;
position = "{553, 10}";
},
{
name = top;
position = "{336, 700}";
}
);
background = {
backgroundImage = {
crop = "{{0, 0}, {170.64, 212.4}}";
imagePath = "../../Atelier typographique liège/000DOCATELIERFIG/01-CROQUIS/1/E-capital.jpg";
locked = "1";
transform = "{3.798, 0, 0, 3.798, -37, -53}";
};
};
layerId = "A956090A-BD7D-40E0-8141-33D8BAD0406F";
paths = (
{
closed = 1;
nodes = (
"382 111 OFFCURVE",
"269 101 OFFCURVE",
"94 101 CURVE",
"94 0 LINE",
"575 0 LINE",
"526 153 LINE"
);
},
{
closed = 1;
nodes = (
"56 458 OFFCURVE",
"45 321 OFFCURVE",
"45 269 CURVE SMOOTH",
"45 178 OFFCURVE",
"60 89 OFFCURVE",
"82 0 CURVE",
"259 0 LINE",
"216 101 OFFCURVE",
"185 183 OFFCURVE",
"185 290 CURVE SMOOTH",
"185 372 OFFCURVE",
"205 470 OFFCURVE",
"249 536 CURVE SMOOTH",
"275 575 OFFCURVE",
"309 601 OFFCURVE",
"342 601 CURVE SMOOTH",
"364 601 OFFCURVE",
"395 591 OFFCURVE",
"427 583 CURVE SMOOTH",
"457 576 OFFCURVE",
"492 570 OFFCURVE",
"527 575 CURVE",
"527 685 LINE",
"493 681 OFFCURVE",
"469 685 OFFCURVE",
"440 691 CURVE SMOOTH",
"404 699 OFFCURVE",
"366 710 OFFCURVE",
"332 710 CURVE SMOOTH",
"238 710 OFFCURVE",
"162 657 OFFCURVE",
"112 563 CURVE SMOOTH"
);
},
{
closed = 1;
nodes = (
"185 445 LINE",
"185 290 LINE",
"185 372 OFFCURVE",
"238 370 OFFCURVE",
"280 370 CURVE SMOOTH",
"364 370 OFFCURVE",
"435 365 OFFCURVE",
"527 345 CURVE",
"527 500 LINE",
"438 475 OFFCURVE",
"369 468 OFFCURVE",
"280 468 CURVE SMOOTH",
"240 468 OFFCURVE",
"219 462 OFFCURVE",
"212 445 CURVE"
);
}
);
width = 615;
},
{
anchors = (
{
name = bottom;
position = "{310, 0}";
},
{
name = ogonek;
position = "{558, 10}";
},
{
name = top;
position = "{341, 700}";
}
);
associatedMasterId = "A956090A-BD7D-40E0-8141-33D8BAD0406F";
background = {
backgroundImage = {
crop = "{{0, 0}, {170.64, 212.4}}";
imagePath = "../../Atelier typographique liège/000DOCATELIERFIG/01-CROQUIS/1/E-capital.jpg";
locked = "1";
transform = "{3.798, 0, 0, 3.798, -32, -52.885}";
};
};
layerId = "57E4F586-A492-45E1-91B1-80A22D2CC2CE";
name = "Feb 21 19, 10:10";
paths = (
{
closed = 1;
nodes = (
"387 111 OFFCURVE",
"274 101 OFFCURVE",
"99 101 CURVE",
"99 0 LINE",
"580 0 LINE",
"531 153 LINE"
);
},
{
closed = 1;
nodes = (
"68 471 OFFCURVE",
"50 366 OFFCURVE",
"50 269 CURVE SMOOTH",
"50 178 OFFCURVE",
"65 89 OFFCURVE",
"87 0 CURVE",
"264 0 LINE",
"221 101 OFFCURVE",
"190 213 OFFCURVE",
"190 320 CURVE SMOOTH",
"190 402 OFFCURVE",
"210 470 OFFCURVE",
"254 536 CURVE SMOOTH",
"280 575 OFFCURVE",
"311 601 OFFCURVE",
"344 601 CURVE SMOOTH",
"387 601 OFFCURVE",
"422 565 OFFCURVE",
"464 565 CURVE SMOOTH",
"490 565 OFFCURVE",
"510 571 OFFCURVE",
"531 587 CURVE",
"531 701 LINE",
"511 682 OFFCURVE",
"491 675 OFFCURVE",
"466 675 CURVE SMOOTH",
"418 675 OFFCURVE",
"372 710 OFFCURVE",
"329 710 CURVE SMOOTH",
"235 710 OFFCURVE",
"167 657 OFFCURVE",
"117 563 CURVE SMOOTH"
);
},
{
closed = 1;
nodes = (
"127 422 LINE",
"531 422 LINE",
"531 500 LINE",
"443 475 OFFCURVE",
"374 468 OFFCURVE",
"285 468 CURVE SMOOTH",
"245 468 OFFCURVE",
"199 471 OFFCURVE",
"154 476 CURVE"
);
},
{
closed = 1;
nodes = (
"154 364 LINE",
"198 368 OFFCURVE",
"243 370 OFFCURVE",
"285 370 CURVE SMOOTH",
"369 370 OFFCURVE",
"440 365 OFFCURVE",
"531 345 CURVE",
"531 433 LINE",
"116 433 LINE"
);
}
);
width = 620;
},
{
anchors = (
{
name = bottom;
position = "{305, 0}";
},
{
name = ogonek;
position = "{553, 10}";
},
{
name = top;
position = "{336, 700}";
}
);
associatedMasterId = "A956090A-BD7D-40E0-8141-33D8BAD0406F";
background = {
backgroundImage = {
crop = "{{0, 0}, {170.64, 212.4}}";
imagePath = "../../Atelier typographique liège/000DOCATELIERFIG/01-CROQUIS/1/E-capital.jpg";
locked = "1";
transform = "{3.798, 0, 0, 3.798, -37, -53}";
};
};
layerId = "91371AB5-0A4F-4F0D-88DE-1AE82E0B81ED";
name = "Jan 2 20, 13:51";
paths = (
{
closed = 1;
nodes = (
"382 111 OFFCURVE",
"269 101 OFFCURVE",
"94 101 CURVE",
"94 0 LINE",
"575 0 LINE",
"526 153 LINE"
);
},
{
closed = 1;
nodes = (
"56 458 OFFCURVE",
"45 321 OFFCURVE",
"45 269 CURVE SMOOTH",
"45 178 OFFCURVE",
"60 89 OFFCURVE",
"82 0 CURVE",
"259 0 LINE",
"216 101 OFFCURVE",
"185 213 OFFCURVE",
"185 320 CURVE SMOOTH",
"185 402 OFFCURVE",
"205 470 OFFCURVE",
"249 536 CURVE SMOOTH",
"275 575 OFFCURVE",
"309 601 OFFCURVE",
"342 601 CURVE SMOOTH",
"364 601 OFFCURVE",
"395 591 OFFCURVE",
"427 583 CURVE SMOOTH",
"457 576 OFFCURVE",
"492 570 OFFCURVE",
"527 575 CURVE",
"527 685 LINE",
"493 681 OFFCURVE",
"469 685 OFFCURVE",
"440 691 CURVE SMOOTH",
"404 699 OFFCURVE",
"366 710 OFFCURVE",
"332 710 CURVE SMOOTH",
"238 710 OFFCURVE",
"162 657 OFFCURVE",
"112 563 CURVE SMOOTH"
);
},
{
closed = 1;
nodes = (
"149 364 LINE",
"193 368 OFFCURVE",
"238 370 OFFCURVE",
"280 370 CURVE SMOOTH",
"364 370 OFFCURVE",
"435 365 OFFCURVE",
"527 345 CURVE",
"527 500 LINE",
"438 475 OFFCURVE",
"369 468 OFFCURVE",
"280 468 CURVE SMOOTH",
"240 468 OFFCURVE",
"194 471 OFFCURVE",
"149 476 CURVE"
);
}
);
width = 615;
}
);
leftKerningGroup = mine;
unicode = 0065;
},
